<mxfile host="app.diagrams.net" agent="Mozilla/5.0 (X11; Linux x86_64) AppleWebKit/537.36 (KHTML, like Gecko) Chrome/139.0.0.0 Safari/537.36" version="28.1.0">
  <diagram name="Page-1" id="NqzVmkWYA9Un-F-A4Mzx">
    <mxGraphModel dx="1248" dy="5451" grid="1" gridSize="10" guides="1" tooltips="1" connect="1" arrows="1" fold="1" page="1" pageScale="1" pageWidth="3300" pageHeight="4681" math="0" shadow="0">
      <root>
        <mxCell id="0" />
        <mxCell id="1" parent="0" />
        <mxCell id="schMxlsDzBp6fQwOlisN-4" value="" style="shape=image;verticalLabelPosition=bottom;labelBackgroundColor=default;verticalAlign=top;aspect=fixed;imageAspect=0;image=data:image/png,iVBORw0KGgoAAAANSUhEUgAAAbwAAAJYCAIAAACW78SBAAAQAElEQVR4AewdBXjbvNION01KKTMzrIOOmZmZmZmZmZmZmZl53bqVmZmStGGOn9J0ieN2W7e3/eu29FOV0+l0ks7x5XQnyzjkl/0pfxlnPWO9BP5oCXA4nPj4+MePHx87cWzZ6qVLVyx98uTJHz2jf2rwOOiX/cG/jLOesV4CWgkgWrCaQ9evX2/doXW7rm37j+q3eMfCY88Pv+G8KHVhMW3yT944cfXq1Wo+fv3w1BL4hUpT3YE+10vg10rgd/84x8TEDBs2bPz48VNRf0OGDDl48CB64tnZ2RevXeIpBTwF3yzQtMYIf6/O7o717M09zGxqWDt2tzl/9XxKSgq6iR6unhL45Uqzek5bPyq9BH6KBHg83v6D+7NLs2PSYpjGhVJvoTopXWW3n986fvy4phdgZuYaFUqaQMJ6SFp8VtbbHE0VAIhUolVdxqVLlwD8q5NAIHj+/PnNmzfv37//q/v6K/nrleZfeVn1k/qPJHD27NlEZQo7RCQOUhbEF5s4GdvXsQXJp5NnnWk1QhPf3bhxAwwFmJBP3j4tteIDGMJBQld5/MNkcalYVfz8b+RDj4gLl8vlnxG/5DMyMnLOwjkbz2xZtn/l4iWLhgwfkpWV9Ut6+nuZ6pXm33tt/4GZ/QR/5v/BIjk5+f7LB8U2HCBpuQkitJJmvM4GsCaZtzI+c+FMXl5eRESEyFyqwUMGsMRSnh9VqMVAEMWITHM2fPXqFRr5c+EPHz4sWrn4LfQx16lY2YCA1CFlM7MGjRw4f8F8oVD4c/v6i7n9+UrzL744+ql9SwI/wZ/5f7AIDQ0tMeOBMdLINJCLbRX5iYWlWSodCoogkY3IFjXNnj179jHiY6EBE2A0SWqNZLzT0bCgiu5Nffz8EQB+RUpISFi7dV2uSzFiWX7Xy20RiI6rNSIoi5jesVfH5SuWgyD4r+j6L+NZLr6/bFb66egl8B9I4NmbZyV0LpVkoOlLSJcWJ7I0RQBQnEnP3j2Njo9BjHTVMxWW8xSsFDag0SRzT0ZKegqTqaNeNbX/D1BaWrpz/64M81zEFAYqnkQgqbkpKEqlHPHt7FV/cu14fkz3Pt3DwsLUVfr8SxLQK80vSUaP10vgaxLIyckpKCmCqLAl3YIvKXNWQpCcqMwPK0TbayaOxhKyWIpDrc3LuMKlCMPEnJta3rAMp8pM3U2A21EF/dT/XXt3xYgSEGscUPFgtFJ5+XgUAoWgWAC6MrSgBvTxdevteOLsCZlMBjD69CUJ6JXmlySjwesBvQQqkQDwVHJEqpU4DGtvIqKM4ObkVhBVRMARNW1MAuhCCdZjSODiOrbuwE8TIgodryrBAR8eGa5p+2VA00oDfJEW+EmfRb/gOgoJOAIwM9F0sAwyczbVYMxcTUv47Cx9aEgjkcoA7fWurFaP00tAL4HKJZCQkiiwkGDqjMW0lg1bsWNLcZB2MW7pa4HH4yC+jnZjyE1r1qzpYO3ITi9BMzFzNQ4L/4DGfAHW8NcAlROCxf66HevZ9irfqzmNUcQr1tDBBUoDBQVPxmswACDRSXy+1v4tKS3Zt28vwOuTRgI4DfRXADrfy79iRvpJVFMJRMRFQHTYmeGUW5qnGSJZSWrTpg0VMWQnlmqQAGA4m+KSFQDQJBwH8vb2blKvMTddq6FALdGASLel/8QV+ubdW/JMihETmGFoVsBFxeslkGWuqTmDYWCo9cmCASBKBIfDxcTEnDlzZvXq1RcvXLx649qwMUNB5B3U6hOQwF+mNL/xqwsmXA2Tfkh/ogTS0tMQGgQ0kcY/CIkRI0MjOp0eEhjCKmLRSUaaeXk0dyUqiZoiJEAsGZYUCqV27TrCLJ3dmoAGbwnHxsYC4P9PV29cfZ3yFnFW3eZODEc0Q0YufVT/kTgCjkRCDQyCSgtL7969u2z98mNhp69n3bn66gaZSikSFG08umHRikVxcXFoJv8mrJLmvzlz/az1EvhhCbBYLIFUCFFgV3MXDRNYALk4qYoN6jQUpIsIMEFTZWRLpxBImhU6zEUCfQNArY2NjQHOgJfPA7AmGbnR3oe/1xR/GEhNTd1zZC/PSaWUA2z9PmVFaFjBOcpgy8B69eop8QoDQ6oGDwA+V/Ak4XmqT26xeYnMCSnwZmf7FAGkdx/3UtviWStnDhs1NCkpCVD+s0mvNP/ZS/83TBz5TZPIzMyUU1XLbROqsWYIRDHey9UTFP39/eWlSj6HT8FrV742PpYwq3y8NAnVx9MHUIJUt2a9kkxVQAnA6mRsb1RcWgT+1MUfztdtX8+y5oL4Pgj+ZLAztXyAnZtnMmnspOzsbBM7Y7lS+wyShCcVK8SF7jpuVsgAhqk4mVBmU8O64cwQchBh6aqlQAJahn8HVH5xvj0ZvdL8toz+eIq/dwLfdMcUFBQAZxzQDj9RBuDmevPmDZfLMyRRlUqlhrMpYmxvb68u1qlVJyMuk2Fgri6C3NbXisQpD7lQhRQ3NzeABIlmQIO42NvQ2IUeHl6VGDpgUHm6dPVSbEkC4qjizJfweWKt55SeaTB5zGQnJ6f0rHRze4ZYIdKwkHAlciPtjDR4MoNMpJQbzo717S3qmd6/f09TiwGAfDCYP6P4zS/T52moZPoZ/gs+/9Tr9ReIvrpNISEhYe7iuf2G91t3ePXClQt3794N1tQ/ZZDg5pLBcsQW9rTyiC9I1PAki0l2dnbqYqM6jbipfDKufA85QJq5mhLFOEii+orCIkhD2aVLl6JY7G52khPx/ccfX6EXFhbuO7Zf5FjJdktclLyxV4OOHTqCIaVkJBtbai1lgBFzJTK8yoIGsDbxEEmamPBZaQK8ibdRRGwkACpNQD6V4v8a5F+mNP/66/VHfvFUeuI/HPj79+8nz540e80sri271bImNUcFeY1xSZLHr9u4lsPRWQj/8KCy87KBQ9PT0j02P17DRMGTayzN4OBgfqaAx+MZkbRaydLTHJehhMSIqbEplVruSaTRaM6OTuiHLwFDcw+z6Pho0BzAP5D2Hd1XYsWDDCvcDgKEITYd2neImmd0VDTdnK6G1Tkrna2Q6ypNMNo0Q0MqFU/Cq2lATjYiM1lMsVjlLQXFfy39ZUrzX7t81WS+3xhGhXv3G/Q/Vo0gyP0H90ZMGr7h+Do4QFlvSi37OrYwvrxzy4YMng1n3aa1Egl2c+UPdFdQVIhQIDqFrt7fruIghWhUmkYVksnkwIBAEAR3NnJV1Zb9W3tY4uV4WAg52juUIcqz2oF1MG5NGAczPEyB9i+n+J6Pt2/fPo96pSyLmGPa0XMoE0aM9/RUOV65XK4Sp6SbqJ6a15DxOULISkcnGKaRerboTjXSOmfVxEDaauAfzHUE9A/OXz/lv0MCwAPYqnWr1evXFIuK7OraWPlaVJyXQ0NbtjFz3aZ1Fau+F8NmsYGlKVNo17+wGLG00Om0Sd0mnHQQCyJrmFv6mBNLYUiAuDu5a5AACPALkOcpAIBOZFfi63ev0ZiqwEKhcNuB7aW2Wg+mphVcqPRn+HTr0k2NycnJMbQwJOG0DgSA5xXyEVr5zwwowsmKVv4tWjVrZWSltZcBXswRwzBMoVAA/A8mvdL8JRcd+SVc9Uy/KIHg4ODBgwYb2ZvkkdiR92LjbiYppFg1BBo7NrPLw+csXrIYwD+cwBpfgVNAeAitNIGz0sbKBs0zKKiGIF3IlXItDazUeOAWNHU2oXEM8DjtUhdUeXl5yUsUIDwNYE2y8GbEp8R/rx/25LmTGdJsxEyr+MoZIpB1MWP88PHlRQjKy8uzdrEUKbRLbKVcKWKLoc9KEy5SOgptl8xZnJOTQzIjahoCQAoi6XY2APg3k15p/pLrXuE7+0t6+XeYVmWmzBJWnkmR0gHm+EvTcrIjzsfIBFpLUMPBsZVtgTzv/3khD5PJVJKVRhR6Flt7thtRRrCzKo8CqfuysLCwMrd6/fJ1ACNIjQG5na8NXgAHBWkxAKlay/sFFifpHI8E8ObepmCtDYAqppSUlAu3Lkk9K/nJpqQR2jduHxCg2hyq5paVm+nm4V4q0e4u4hcJEM1iXYxY5zFWLV6Jw+GSM5KMrY3UrdS5hCu1NNcxq9X4fyTXK83qfKEr+fZX5+H+l2OLiYl5/vx5cbH2Seq07DSEXv5rJXZT5oiK424koeMwmuHZtLa8cOs8WNFrMN8FcLlcMU5qZ2IblRujaWgEGzEYDE1RDThZO7NyWHSSNthCs6BCMsTa2lpNoMkb12vCTeFpimqA7E568eqFGq5Kvv3QjhIbHqRjFJa14yFWArPuncsX5mUoKCMn08XBhSvlqIsgB2tzKVkOAJBMs2hjBoz29/cHcGpmmqmlzvJcwpVYm2OnACj/kaRXmtX5QpergOo8xN8yth17dizft3Tryc1TZk45cuSIQKA63Ews0a40wahkzkhGSV78jWR7ms7jg6CKTCdZt7LYuW8Hm80Gxe9NBUUFIryYJ+FzxVo1Z6AgmZmZYViBWFBuREE2L8vXTKV9QK2ZqynNilpYiHoGHGAhqFatWrwMgVxcrrPKcJCpkzFbxEpOTlYXv56fu3T+Y1YEYlfJHc0oMB43bJy9ffkeUjWf9Iw0YyMdVVicykLK1ua4RGWghX+3bt3UlDk52UYWOpamnKewNC/3Oahp/qm8EhH/U/PXT/bPkgDQIMPGDg3NexMw0KfOuGC/yR7R7Ii1G9YWFRURiURI140pc4c+fYhMepLsZuyBmaa5hxnFl7jv4OfzezDVXy0mZ6ZAZDinJBdNhfAR9OFA6iowJLFUEhrzvqZFHTUG5Ha1bN6HhQIAnUgkUp3aIRVX6BQP0ouX3zY2CwoKjpw9IjaTonmqYbhA6Wfh3a5dO3VRnSsUirzcfGOajtLksQRgXpAQMSsxmjN9tpoSCFaqkBnSNOv2MjT3340CgfnrlSYQgj79GRK4ev3q5LmTaCEGvt288ERVLAXEcM2bmXItSuYtnEen0+EKSkPqoox7npj+IdPHrNzW00zVrqFNfEHclStXNJgqApk5mVCFuDERItSoUQPDIbcwT4STJn9KIeKIpuRyO9TCm/HibSV6MNArkJ8qxHCgORkUCPOUSiUGjylu2rWJacFBbCvczghkwzQfPWQUhv7U6VMe/u4gSIXG84sEiClslG0wceQEW1tbdVV2draZo4kS0fk5EjHFaPeomvLfyStI+d+Zun6mf44EgO9y2txpp5+crD2+hk0QdmFoVc+c4AYX5hdAYqwXGDGGcXh8flgBM4WlWSNr5u3SxeHinYvf69zMz8+HDLCeE7lQZlZheZ5fnI8YwYWpxQklcbUtQ9T9UkwoCA05d+6cuqjJmzdvDnNwmBU63YaekpPy4cPXTtjctWfXu+QPSNkTkxpuaoCWSanhFqR2TaoxIAdx85PnTgUEBZZItN4JIUukJCC4dEUNq8BuXcsX5oA4NzfXw9eDJdYGqWQimUKstK7glgXE/0jSK81/5EL/wdMEK8TuZFlj1wAAEABJREFUPbqHffjAK+YXRBVijjpXT8yplT1kqSDlVvg+k2EJTjp04LCnp58Zi02d6apTiNRNQE6mk61bmm/fs+27dvYUFxUjFF2lyYOsrK3xeJXxC9hqUiGzEGLAQrHobaQ6hl7eyqyGcVK69vlLNT2NRvN18y1OwD5SSXWj3H/0xQe9CwoKrt69JnCvYGNDEFyk9MC7LF28FNL9O3TicKkxz8fTmyPVHvrJL+QrKEorkXn7FjoL+dSsVBs7awlqZxK/UODs5KzL8ntL2N+2723/y+irNLAKX7JfNhw9Y70EfkwCCIIYmtIEtRRFbrzkxMywU5GCIgEBhw0Se/fwsGCY4qJ0FpKgR6GBmMfjzZsxf9+G/cEmdUzI2rc7gFrg3KQGUXbs2Q7gqqSSkhIErM11toRDsAIxN8WGzgG3IhDcl0EiE3nM+3iejGdHswdIkGwCrWJSYkJDsZ7NxvWb8FO1x2cASpBMHI2i46OBFxLAFdO6LetKrPmVPDHJh+yLraZPmAa8pehWT548eR71QmkEeTh58qU8TVVedBFSrOzRrgfG+5mVm2VsquP6BErT29VL0/CHgPIfjx9q+0sbVWlgeqX5S6+BnvlPkABYThIYJMgUBxnAXGdJLrMw6no8LIPpqFN+1d34d/c2lFJgto69wJFxbty+GRQUNGrg6B3bd7Rz6ETUfQzGrp51HpJz+MhhNZOv5+np6XyiEEtTosTsbFcTlAINa45DLOC8mIKEkjgvE281HuRUV0pcAvZA3zp16vCyBFKBzvZSKoNKt6d9/PgRtMKkqKio2Kx4xKWSu9go36B/534YzyPQvAdOHSyx5VMhir2FPU/G1TCUSqS2JtZDB5U/lq7BFxTk0420W6YAXsFSOv2/liZgo046V0qNqv55JeKu/oPWj/CfkoBUKpXDqr04NDINTFwegCuUlrw+9E4hlZtRdOw7mjWtZg9/cioOUpEDWlVS2uNyinMA1KZ1mxCvuqfOnejsovXZATxITu3sX8W+uHPnDoC/niLiIqQUFHc1tRJytMdubOJyuWDkEAkCul5GVrz++NoTpTQd6tree3xXLtdhBRb49erUTX6YquaqySkupAuXLmiKGmDfif0sS466iM5x6Uhtm+D+/fqjkQA+dfZUFpSLmMFOZo4wDPNl2qcthXnCfj36EYk69juHwyFRyAheR7VJWXIwTsDtZ6QqWXY/o6OfyUOvNH+mNPW8foUEjIyMEJlO+FjuAfGLhW+PfsDJ8ZYGVuhOLbzN3es4E5JR9zkV5in4KSkpgGzE0BEQG/f81fOW9m1AUZNgHGzb1ur0lVNfD7kA+qi4GEjH8AI4gKBZWFioINR/aWkpAjRmGUYCycJfR8AQrHEOUEwoZv4mly5dKqvXZk0bNMOLCdpyGWTuycgtVOn9slJ5tmvXrriCBMQaV17WfEggS7Zp/x79NAg1kJGRcf3pDZG1Sk3bGFtxRFqHJqJEECHSp08fNaUmZzKZvoE+6HiRUqHkFnIbNmyoofkHgQoS/wdloJ9y9ZaAZi8RAa/VJhJbpQXB8u31UKCGQELPwLuNu4WhKZyl1bMcKj8ysvz8x9nT5ry79b44jxnA0NkhRDUzsG5rsWn7prS0NDQ3DFxQmI+YYO8akoQgKNtgjyYG8SsppXyhrfTCgxV6LDPay6T8wHZASXWivP30FgDoFBISoihRikpEaCSZTjK0MQwLC9MgwUL7RdhLrkUFRwEEUXOIA3sMqF27toZYDRw4cTCDlAvRIEgOWTOsuAquGg9yIUvo4uKCw2HnBZSmO+ZRywKBo6NTRUrA5N9JWDH9OzOHIJQx8i9N+4+bK4PBQMr2EimVCirJQD1+IVVsZGRsi9g9vvvY29QX/WIJQBDc3d+IbwBzyi+xGJY8ePoQ4EGiUqmzp8w+uuWYCWJqa6jztLiZi4lVC8b6LevYX3hSCASUuDxuxecUiRDRz88PMEen9Ix0Hk71qJIKSYTkZsjL9y89TbQhFDM3U5aYGR0drSJA/Tdr2LwoDhtDJ7sS34ZqNez5S+dzcQXAW4pqpwLhUsRBYdu3T19VAfX/4sWLN9HvEAfV/Q4LECsrq1LUfqPCWKapkU58TN2UxWK5OrmWW5plKF4h38PVowz8dzOVEP/V2cP/6sT/sHkbGBhYWFlCIoQr5jEMGerRA8dcfFL86KFjeJHCWy9uNLFrRsBp7VAqw8CvuScprfzrjTjiClgFwG5StwUKbszgMfu37/cw8aIRgemlRqtyq0AL2AtZs3kNxtuoqoOg9+/fKwnliliNKc9lEI2mwwfg03LTEe2IIClD8fbeO0MiDa3fjfxo9x7dBcTo1LRhU0GyjqUJas29zF6+fQEMTADHxcWdOH9SaCcFMCZZMc3GDBmNcU3KZLIjF45y7T6bpQLE3s6uVFKqaQt8lCG16mqKGqCQWWhuYi5RSDQYThrPs+w9SBrM/w+A2Nr9+/ePHz9+7NixNm3bJCQk/P88fymH8m/VL+1Dz1wvgf9TAm4urjBXpa1A+ELDCmYQCgoKZk+ak3kv527onVYOOhsMbYOsnb1tNc5NiYlMs0IHHNq1bd/Qr/G2ldu9Tf0IOCLAaJJDfdsSI+bWPVs0GA1gZmaGlFu6GpwKAC5XQ0NDFYT6T0lLgUy1P8yIBY6XL3iX+MbLVLtCt61hFRYZBmaBagd5eXnRCUZ54QVoJMmQaOJs9O7dO4C8fvdGkXEJiC8BGJ3gfKUtyaZFixZoJIDPXTiXLEpDLMsHQxDjrC2tS1HnGyEliL3uk+mgFUil3FIS6bNfFpQhCC8l2H1+pUcZ4v/Knjx5snjJ4vkrFhx7dPJ8/OV9n47ISPLR40fn5+f/X3x/cWO90vzFAtaz/xkSqOkXjOfBgBMPdUZGHr4wIjKiRo0atX1DEp8mx7CiWti3BjSa5N/Zx1RJhwuUAFNEYj15/gQAmjRhzARPS68r167YG9prkGrAtaVTbHH0vIXz1EVNDhyXEriCfSeFqFQDAgFlVZY1yM3NRQxVYy4rqTIYwj19+9THVLuQh/GwWaDJw0flrgPo81/Lxq1ELMnnUvknxZ38+u0roPofv3+CeFS4c5WqJyZnTZ1ZTv35Ayz/rzy5hjZLSVICw8ScJdZ6AERMSaVKUyQUlQpKP3NSfYpYIkdHRxX0//0Dd8GwscN3Xtx9W/go0SMzwTRNaoOYejI4rkIjJ9qkmZOAqP+/Hn5h6wqi/4V96VnrJfCDEqBRaZRilclDwBEs6RZqLlJj+ZuwNwBeMG9BiFvdV9deM0XFda0aAIw6gZh4UFdfY5YBVIIgxrjI2CjVHiB1XVk+c/IsSZz8feh7Mp5ShtBmLu0ds3gZ9+/f06IgSCgUiiGsLoOUCJlERpMBGNhKcoIC0lWkBISQ8ykPgRASXktvHmh66/4tie5LOBrWb8hPEgA+6GThzQiL+Lh1/za2NReNV8PULFLnFp18fLRmrBp//NyJLHIeRNGqb5wIMjU0LRYVqQlkYrmQLaxUaVpZW4lxnxf1ECThSSkkAzq9wu4BNaOq5R8+fBg3ffyqI2uj6AkZDvnAzdLKu3mPGl1sja0LuIVEJcHck2EUZDh11hS1L6JqXP9TKr3S/E/Fre/sxyTQqlUrKsEAhH2L+Ux3i/KX30JUmCvjA48Y4Dlx7CRDltG9x/foJCP0M+YmjsbejdwNc4kQGcKZ4z99+gSINYnBYMyZMifrbl5meBYFr7PwJpAIzh0cDpw6EBERoaEH5o8UKg+Ia5AAQacbaYtl0KNHj4RKXb9kidLWztbB0vFl9HNfU+3pIRQTiqmX0cOHOsamra2tq4MbM0n7xDfgiiPgQMA9Pj0BscLetnApYiOyGDxgMCBDp/OXLrzP+ai012pMSAkZk40lCrFUWW4yS3kSSysrdCs1DCYL3BECRKu7hUyhgx3WKlcTVyWPjY2dtWj2vK0L3iPhxZ4coC5beDXd1ntDdknOlYgb0XmxgIkBj2hib+Te0kViLZ6/GGvpA4LqkLDSrw5jKhsDUpbrM70EyiXg6eUFl0XDaWTDchQEsWTsy5cvgyJYHU8ZPyXvYdHp+ydrW4agN2/a17F18XUgJ+NykPxrN64BYnTy9fXt2KpT4Rsmu5ht+vkgIjWBoTnVsYPdhu3rwUJbjXn/8T0swn4zYTmEOZgSEMMEnNBYAgBNgmWQo71Dm6ZtXj9+42r8We+XVRsH0G/eu1kGarPWTVpzKxibjCATCGsTq5owCownjZyI8asCRXz43GGek0hFofkXIo5ujjpr8xKxna3OLgI1bV5enpWNValUuzwXsIRujjojV1N+MwcCnL1wzrSVM55wXrL9BYglzsvK4/DgvR382y68viyx8POBoTyEJCeYe5kDht4d3dN4qeqLC4o/Jf0sJtVWaaJ+G3/WXPV8/mQJNKhZH+aoJoDHac/FENpLU3PKt1W6urr27tq78AXzYvS5zi7dyaglsHc7d2tjBk6KyyvNB6FkFRfU/6iRo4b1HJ56LZPL5VpRdQ4kN/cwM6lLX79tnVgsBi2MTI0RBvabCRcr5RIZqEWnqMQoSKvbVTUEMSHAK6Bhw4Y4Nj6rOJNBUakGVQUEGdnRYVPk2bNn6qI6B9qcxCMLWToqz8zV1IBMVsfE1GQghzOVDb3qNWvWDMDodPHWRaYlB0ItzEEtUPpOzo7AjwFgdRKVip1tKzmAA3gYzM0ZHIn2fRhytoJqoDsrNYuv5pevXh4+YcST9OfMQB5ig3MwtV/VZcmQugN2P9s36/ICgVS7/Kdk4fya++A+v0DUqYnD4eNVerb1q/3//MpqqzR//lT1HP9oCRhSqHSOAZhCVG6Mv60vAEBCTOCC0gL10z6gOGDAgL6d+n049+lF9pNurr0BRpOCevqZyKhZ2VnA6tEgNUCH9h16tuwZdTFWLJRg9KZdbRuhJX/Dtg2AuIRbAhGwShOhwgG+2nfvADKQ0jLSkLJT0AGsTgzEBPgNqVRqg5oN7j+4j/YhAAKqP+XmXR1j08bGJiSwblG0NlwDyEByrGkPlYW2AKxKwG4rNB07YqwKRv0fPHowhpuI2GNvcGIGbGtvyxRr2SI8yNLSEtW0HAwNDTU1NkNbmvJShX/ZCzDKKb71ERcXN3b6+G3XdhUHcJX+eGsjq7ltpvep1WPn030Lbyz/lF3+uIGKjRLCxSo8rV3Ng0xVxbJ/GIY83T3LwOqVYWVavUanH41eAp8l0KVLFzqOBomR3NI8hqHZZzTEopW+fafd9d2jW482ddpdO3ijSFTQ1E67+YZEJdbsHYgjw+/Kdu1ommuA3j37OBo6v7/yAQ/jMY+0uzR3TBUm7zmwh8PlVNzZTlaSTE20tzpgWFxczJcKgMsVwJpElVHUm3U6deyc8TpLJpHhYW2ciOFmWoqUAD2loQdAx/YdmeElconqwUdQVCfHYDsSU2trG2dTp46dAjSsuladnz9//uzt8yIXrP0Lc4ssyXQAABAASURBVBAjiGZpYcEUlUeBAL2Cq6xUaSIExMLEgo06SVPMltja2oIm30wgYrb/8IGpS6d/UITzvSRAFKMbDe8c0H7X8wObH+0o5Gl7B6zwuZBtrJmN2NyvpU4US5wrrRdSDxBUt/RFpVndBqofj14CIXVCYBYC5CBErel4xqKHzx4BpCYNHzS8gXujHVt32hraozdFGtsbBfXwPX/zfGJiooYYDaxbvc7PIuDF1dfmFAvMG9k8u7i+TXqdlZGNyFUDQLcyQCjGxjqHp4HYFAfmoWkgoL6ECLA0AdLc3LxL+663bt/yMdPuPQJ4egD1+u3rANAkoMuaN2qW8yFPgwGAgSnFzMkEzlfto4KzlQ1c67Vv3x7gNSk1NfXAmYOlpnxIq5PLKmWQZbaJq4sLw4SB9mlKSqUwjDWfQQORRFjM12o3uViulCIgdAaqvp6A6h81efTR+8eYATzEGmdvajem0Yh7sQ8Pvj4mkAjQbWEmYpPC6GTbtlX9FrXaBcssdbzAJbHc4OBgNH01gfVKs5pcCP0wsBLAKicIat2oFYVDAnRypQLk5ckQ5sF8zOnrk8ZNlmbJFi1f2NimmaWBNjRs7smwb229ZvOa9+/flzfX/Zg9dY6ZgPHo7iM7Q3saUWdvjWtnJ4Qsh3XuelVjkoKIUZpP3z2TGAE1qapV/8Mlypo1auLx5RZi546dCVwSItCZooUPI5+Xi4nvd+/UI+Mp9qgO93rO+EII4iM2heYTRo1Xd6HOi4uL562cX+LIr3henEmcweDOg4BL15BqyJNpdbqwVAT8p+rm6BwH45jiYg0GeFdtbG00xUqB/Pz8DVs3Lti6KMEkTVIDAlrbsCxqd+DVERAi12nCR4ySDWrLApaNWzyo78C3kW9talijCXLe57dv0c7Lq/yp06ysrEePHk2fPh1N87tg3O/qWN+vXgJfl0BF48fb25suoUIKKLEwiWFY/jwlYJIlyLl85TIA0Gn8iAn5KUXbLm7u6NzVCHXyprW/pdxKcuTUYaBf0PRqGIfDzZ++QJEC3715z9nIxZCgjXuQDIk1hwYaFpHgQpWVp6YHOUFOIBKJANCkjxEfEVOd4ZtKjGsG1dQQAHvN197vyeOnTnQXDRIA9CDDqzevAkCTjI2NYTyc9VZHb1r5WFBhinmG8eQxk9TWq5qez+cvXrMkjZIN4i1qjCY3TjXo2qjzwP4DS1glYkiswUu4EjqNRiKpfoo0SAAIhUJTUzOWTOv65BcLjA2xO6sApSZduX5l2pLp52IusQMFCKN8+sC0zCnJ1dCoAThT6V7sOLvn9AM7D4SEhGzft61536YsWKuglQolO6y0QUhDcI2uX78+YtLIsbPGbzi88c27N8tWLlcz+Y3571Oav3HS+q7/TAmYmJiAyADMUgqlIpaApZmE0gsfnRCN2R/eunVroPJeXn13/PHhbq690cF0365esBeyZuMaDoejYaIBwPJ54rCJRe+YLz++cDfxNCBQNVWGFtR6g2qSk3FwmZdAjcfJYLSnLy8vj80vgXSjQFQ+xc/PT02vzrt17pYfVqDk6+hfK3+L7JKsqKgoNQ3IV2xYyaRxkp+nKWQo4xqCXGo5WpMsMKesL1675H3JJ6VjucICzdWJmkps69Nq2uRpXC4X+GQliESNBzkInVc81A7gMzIybOysmSKtIpMJ5H5eOlMAZOr05s2bvsP6bb6yI8kiE3HDq5GV5wLEOMGgvV3L3at3durUCdCcPnfa2NUIstWRA/iRqF+zQVhY2Ngp47bf3h1uFFdQo6Q4gEe0Ij199Rh0Bxr+xqRXmr9R+Pquv1sC7Zq2g5k6q1oVC2DnWeArRnhq1KghZEjvHn50PfxKV5deKsrP//Z1bcR2grUb1wCT6jNO+wlcaQtnLMy4mfMm/rWniRcJtXvJxNG47qCapHgYLts0CtooxQqgzQGgTpFRkVwiXw2X50LEiER31H360NTUdEjfoU+uPrOh2paTlX3Qg6hnLp0pA6HNu7e8zn6HeOPFZvLUpxlqpDp3rGPLF/NUSrCsrFQqZy+Z8zovFPHElyG0GSUS18ql2fxZ8wGKzWaTjUhSBUppssXWltagCpOAWCwsLdCuT4gPW1hgg+zAtt26Y+uirUuSyRlCLynmpwLDE5eF2KWaz+o7ffWS1ZZl8fqkpKTbT2+FtKiDDjcJWaK8F0WPXjzeem5Hund+iTNfw5ZAxTs2dFi/bT2G839c1CvN/1jg+u7+LwnUD6lnxKdVZJEnKnj89DEGb8uwIXBwfAfpzcN3Xmc87+YK9KbWCrNvaMNllKzdsBZjoqqZhITUHTd4fPqN7A+Zod6mvgTUEUoWnoxavQOB3gReRUgKGdHpGmclaHvvxQO5hY7dRGDjGtdtBKowqXOnzhawVWpEOgF1Yoh1gGWBOO/58+e7j+659PKK2EMBWonsFBmfskuztHYxmU62qMW4cPk8qGUymdPnzXiR90bmgf05oWWSW/o2XzR3ESADCShNIwadI9XyAaF5uiEdVGES4GluYV6sE2RXYGzSd+/eTZg96WLstZJgIeL0VU0iQehJ5MYm9RZOXdCpo8rABN0pFIqte7cOGjcwURgHipqU+iijSMDMc2GKayuBXazBA0DJU7q3cCbZ4xcuWQiKvyt9daq/a1A/p189l79QAmZmZg529ujVsXqScjcoPCYCGD7qojpv06aNqYEpYotjU/iX9l6LZ8a0ddQJNNs1tmHRC9esXy2VStVN0HmrVq16te6dci0zovCTh3F5REJNYBtgFdzJzyABD+crLMy19pdYLI6JiUYYOreVhdC0bp266oaYfPzw8VFXY5RsHSVrXtds3fZ1J2+fFnsrITUnIsSzlcTeSkCfAWsTYnX/xX3g8hs/fcJLzjupqw4T0BE9jdLSsdnSBUs0LteSkhKaKY0rLQW16gS8h8Y0EzWMzvMK80DXCkSlstV4CUeqUZqAz+adWxZvXxpDShA56YS81MToHBevtI4zHd9hzLZ1W+vXr6+pOnj0oJ2HrdhYpHmgE1QVxTGzknLlTfGIsfbnDeBBwhUjlh7mBArBr7v3+9jQe/fuAeRvSepr8lu61neql8CPSKBDi/YQE6sgwB0uwAtzcnQCJu7u7gQRDgSO5I5QMVJ6Zs954KSra6W9b0H3dk1tiqgFq9etqtTe7NmjZ+vg1slXU+NLYj2MdTZa29e0DWzlTS0guTq6AD7q9OrNK4GxCEIvkQWIKd4ErPfVBJjc1dV1+vjp4ZeicTJtG1MnY9uGVjgyTvV+oc8NEGtcCUEQe0171iTJkGjVyHzrga2pltlYQ08KWaWY9qzRddnCpRqNCTgx2cXGZsZcKRfA6gQrcWgCNRLk+UX5ctU+KQCWJ5ohDcSvQOHt27cjJo88/ek8M4BX8Sl4QIBORpkGNU0Cp4+e1r+PzguLXr9+HRr7tlvfrvHsGA29QqqIvBUr9qhwccsoaGyybaBqIwTRgBjYz2/Hvu1l6N+Q6ZXmbxC6vsv/RwLNGjYz4mmD2hpWfJoorcKbKjw8PNXOR6kzUsBjHdt/nIQnY9VfM5siw4JVa1cCR56GmwYYNmR4iHP9pGupyZwkR7qTBg8AhxA7v1aeb8Jfg8UsKIJ06fZlqbnWOgMYOtOgW7uuAPhSatGiZa9WveIvJEt5Ug2Na1MnBwdrgziVxlcjLcRmASQfMtsg5UG6GgNymyArh/q2lCKtwgVIuEhpn2g+tvOoqZOmgiI6cbhckiFJgvJp4r6gNFlslhARatqKOWKZSAYM+WXrl83ZOi/TOh/x0OlUQ6kFihHTcGqf4B57t+4BJr8WD0FAXLsP7R4zecyLvKdofOydRJ6hGDGD0Ug1DCZlTKVb+Zcb9WYuJjgz3I4dO9S1/3GuV5o/LnB9y98iAWtra3sre7gEwfQupyo+RuscYgQIagfUhD8vRkVuisyUvIOHDroYu1miNm8CMvumNmzj4lVrV3FBfBmUddOkcZP8zAPiridl8TItDCyJOO0GHcf69qa1jcbPGRebEAtUdnJ2CmKBuqekEK3IoHnz5rr8sKU+vfr2btEn/lhq3ocCCVeCKBGQ/Lt5OznY2SWYMcIMvRKd6sO1RgwasW/bfi+yb/yZZHZaCbDLAJlXG3c3T0d6JEF1bGgpYp5uFKIMXjVvZffu3bHdQBDwHhCIBLTSZKaw4uJ0XIrqVgYUMkuk3Z8g5kgQBBoyZeiN5Lv8GrJK9Zq6oSqXQsQUyFPgPLHf+InjJhIqnDS6ccuGJj0bySky9Is0Uh+nZ8blKt1R0lPxKvvnI7R0kntT57JCeWbhyEBg7HegvO4Xf1Q2xF/cpZ79PyKBzp07z1s4b9b8mVu3bz106JCgwqvHflgOwV5BcKqOQQdYITQ4PhF7/5sYmRjLaaBWncQ1kLTk7D1H99S0qG1C1nn20baxNc+iZOWalcXF2n026lYgnzNtbmFUceKdFBAboRKpBFToxqGunU1TyzkrZq/ZvabEVLtpHLQyKqD27tbb3NwcwF9PQFZrFq/xVvpnncvnPBR+2hodvj1GkiGVc+WyEikrj7l8+fJ69eqRyeR5M+eN6DQKH0X5tC36/cbwV6tDs9/kKZkK0keI+Fwxtu2o7Ru3BQUFVdqdUqmEYESm1Jq0Zo6mtWrVqkiMJxA5Cu1RHeJSSWJ2Uo5pIeL6DQMTzlI6ZVqPbjz88JaDPXv2rMj54cMHUqq0bZN2WjMTgRQyZUZEjtQKDE+3BR/BxStMowwCGvox3M3QdVSCYXDQ73leSK800RdCD/80CSxethgxV0oDBMRGcIZpcmj+m/7D+63YuOLJkyf/fx9dOnaxMrTA8qHBHBEPGFNofOPGjYl8nftc6KFIeZtx8MKB2pYhhgSdZb51A0uJo3DlmhXZ2dloJgAuKirCkfHp6TmJ91I4klIcjCOi7E0rP4ugwX58IteUb2hQSIS5CPAJ4N7IrfmMbl2+tjYHnDUJeGAnT5x87MDxjQs3XTl7VZ3u3bz3/Onzh7qnbbZo0WLDqg3XLly/cfHmvev3n919duHkxetXrr8Pfd+rVy+gWDU8MYAByUAs1e43UtXCMAJsSBWk829AMeAptK5PMUcstpF/3YMJlyKMBHoH29bLpi4ZPXw0rcJLk0AHQIy7D+2ZMHb8vaxboFieYCjhXjLPQIQ4oNSRHIJTFMYfyUMbDLS3t7Otq/JmltOXfXBz+E5OOt6SMvSvyXQtWtQof013eq4/LoE/tuWDBw8+Jn+oO64msA5oVoaWvhbO7R1qTwsqMsvbf3nv6CmjMVrgeyfq4eFhTjVX7fhBt4QhiaE0OjoajTM2NjY1NoMEqG89ARJYSvNfFm3btq2edUMDggGa3irEHPZFlq5aink+PT8/X0SW8j1kGak5iXdTpAoJsNdIKL1paEEN6OUT3M3f3cLejs0wjMQb8Ek9OvcwNdWxZ9F9/UTY1tbWqrKDhDFdAEXGKeWihw3jIWkEXKcOAAAQAElEQVRlOwcoJDJXrlWaRcksSIiSIYavEqJmEN0LHBaNmL9qycoaNWpg6tVFDocza8GswZMHZooz0BszixOYGbE5cjdYTQZyOEvJiDAcUqf/9QvXc/NznJs6QoY6vbPTS2wZtv+d0tQODYwOBB1V+d/zryPav2daf9JMQAh78+5N/r19cHidn2Q8CW8TZBU43NekmeGp5yeGjRt6+/ZtuVz+Y3NrVKchXIy92mwCJ/QT9qFyL8/yWJC2IyPY2MjERGR25NzhulYNDFDP/AAay2AGvQF18YpFHz9+BEV1iomPEZBUgRGehywlOSv6WjzAo/fKgCJIpi4mpk4mYpbYzIixZcOWvn37AmT1ScBRIC4WEVC+BZgEVwx/PX3+VElUSpVam5REJyLmuprj86yAL9U21mxQ7f67N++ueKanmkomk23evLlrz65GDvR6wfVDC1UvKVFXiUrEUTfjxU4KqIw9zEEMI4kN6CGHthycNn7asxfPpIZSI2+dBQFoyPnIb9+6PQB+S9L5Wv+WEfzcTssk/3NZ6rl9nwRWbVjl2s7J2P6LzymbOBp7dnO16sC4/OHioBGDbt68ofK1fV8nkLmZOUNWYYOhMfzu4zsMJyqOCucp0UjEABLLJWuXrTNmMQ4fOxxiVY9KoKIJLP0YDl1s1m5bo3EmhEa8h4zKv1wib0V6bu6bgx8ETJUaRTdMfpiW/6ioS7OuwEQKCQlBV1UHGJhmwnwxeiQ4A7i0VOu7fPTk0YCxgxbsXsxiaqNAgF4uU1RiX/EQ4yRqfXytDYvWjx8zzsLCAlBWTGDZMWTUkFvRdyFDeOGURbczdE5ySn+TyZOVP6sOpytt0hmrJ6zYtXGHs7NzTk7OsbPHvJp6oCNXgH9RXLE5weJLChoQVJKwP6+VkFQd9YcozZ8656pL52+n/PnzO3j0IBMuMjAz4ObxlHIdVYXpzMiW7tbJybm33fXwa4NGDrp06RKPpxNFwdBjit27dyfxCZA2pKGqR4xhNq+Ez9d5irFDu/ZUAx2dCAFNwS6l0+kbVmxwJXrs33UgyLwmjaiNFwFeZm6m7n2cD1zZt2P/DqDT4+PiEWPtzSL1QJh8zqe90emPssBM5WJ5bnh+9ImEIKOaJw+cmjx5MuBQDZO3tzdOgi8t/ryfAILIRuTcwlwQQN++b2eH3h0XH1meYJgq9leKpDq6VSEHlmD5b4ZqXlKIkArZpZrP6Ttj99bdmMfqVQRl/xcuXBg3dfzWi9sTaekCpXDSrAk5siwQSSurVGVAdBnhOfJgPMRDTKOoXd06nNh7vGnTpqo6CNqxf3vjvg1YBO3xdGp84StWv146uz7V+K/lqLF/jaxqddrvQdXofxPVT53zb5rD39/tyZMnT508ycxkv78V8e7sx0cbXgCzi8Y2IqLWgxgp0G1oLh0cnPvYPUy5N2zM0AMHD6Snp2NoKi3CMFw3pC7MxOplIUl89OhRdBNLS0uKnIzGABhPJTCZTMBk0axF9Z0bHNx0yARhUHXjQmBsfoO8PjLf9x7eS0aVo7eaAw42BKsFMxe0c+8oe40kHE5DEnBju4+bPnH6V+IwoNVvTx1ad8h7W6gZhiHD4OnLp1PXzjj+6XS+F1vsq1Atw2FIwBdoaACgUpqfVQWcqzSOpHT36Xz28JkO7TuA2orp/fv3M+bOOHLj2HtCRIFLCYSHnEzs2tZr9yJXJwwY9zBJZCuHc5R2yYyFo+cvnbeEwWCouZ27eK6UVGLljbVeM5/lNKnV9EtuU3XbX51/lsSv7kfP/x+QgKWVBYTDcYIkAh85N0DGDZa9jf90c8dd5B3Bkm3rRfP5kvYEURTHVnb+47wixR+XrF+8fNXyqpxk42jpYFhMwciVa8wXSnXeq2MFIiRiBEJ0CSkwUJpq1ITRE/u26Hdtyw1mClON0eQ4As6zrZtLZwcrR4ZJONk0h2pYRAJRXcJjRXFKYZMmTXr16rVl/dazR8/u3bzvm/sxNWx/I9CjRw+6yDjzTbZ6DBQTCs4Yz3ThIM44iPrZNsFDQrGO50EmkEEiRBWfSaA3Map/YP2+BbPmA1NdzQSdA+ty5oJZy3aveC55W+hbijBgSAgZZBHmzJj1Mu+pWCHWEBfGFRflsuhMakf7Nod2HWrZsqWmKiEh/vytc826NMng6fyCAstUEC/u17ufhvK3AHql+VvE/nd2iighkqcBRNbee0ovvNIGZ4wzKY3hPNz31F9Wo5V1O8zGco0sSIYk2/rW3qPc2I6Fx28fHTxq8MnTJ7Mr7P7R0Pft25cqoUBKDUIFIKZwWESYCkL9m1uYg3sehYAUZCWTqVWR3bp0XzpjWd7T4pSHGRW34Jg6mwT28W0wqrajgw1QmuQMnBGBtmHDBjTDPwheOGuhQTY94VwKO03lzbR2t4CZmJ8USIrIZEKZZlI4PN6ISQuEfJaOXrRt7VZPT50nStVkUVFRcxbPPXTjyFP2q3wvttISVuOJuVDderXtLOzDiz+qMeo89k4CXUob223UysUrrK21Jy1JJJIbr6/X7VGbg9e6EdRNcp7kjxo0yszMTF38Xbleaf4uyf+F/YI4rAwvx0ysxJj74uPLfr37r1q4qiC2aP/qA1aldt0ce3maeGMoNUVLXwvH7rYOPa1fFDydtWLGgpULEhISNLUawMDAoGaNmjBmhU6GRbA4Tfd5SmsrK1jHcoIQEsTRPUyzRo0auzbsqsmoHb4nOvdTvqYXNcBKYcfdTMp8nWNEMW3Xot2hfYcaNmyorvrjcrAE3r5x+5iu40RvZcmX0+k2dHoOGTMLCSQVc7XRcwqOPLHX2GP7jjZu3BhDCYqfPn2aNX/W3A3zH5U+L/blIo5arQKzEbrYYOakmfcybwFKTYq+FE8SkPdt2ztgwAANUg3sObg7iZXk6e+B3pYEqoDwAxwCq4M5r50eGJY+6SXw/0jA1NTUSEnDcjDDZVJyT509DaKrI0aM2L5hByuVvXDKYl6yoKdT3wbWjQ10d0pqmoM1u3NTh8Cxvhxr1sJN81dsXp6VlaWpVQMtG7UgFWJehQPxqSIQ2VATqHN7GwcIrNDVBXVOhICKV4Oa3NDQcPKYyavmrLFi24bvicl+nJ/zIS/rbU74oejC+6x2AR2O7T52/tDZpYuWurhoD+mA/sw/oP72bN07qOVgRTxCxpNpzwjafa8SRCQRCllaL4e5BcPHxwczUfCrc+PGjZETRi3aueRp5ssC3xLEBqtPKNn4weMGFAjz84XaNx3xCwXcRP6JIyfc3d0xPO8/vP8h+X37nm0SS3V+JnkF/NKP3GEDh2Pof0sRO8nfMgh9p3+HBMA9gC8tX5ShZyS0kb5NCH316hVAAkfY8CHDTx8+jRRB86cuCH0Z2sS6RXP7VjTdF/IASk2yDbauOS4wl5Q1cf6EBavmJ6cka6qcnJyMZNhNfFwD3sdInZWgnZUdWHBqWgEAj8d/aYso0A5L5y3btGRzZ/+u/soaTcxa9GrW5/TRM2PHjnVycsLh/qpbplWr1of3HBkzcAxOCjsnWztFW9lHmHtnudhT7PgF2lgQnoxHPwUbERGxfef2Xv177by7J5wem+/BVvrjgVQxCfhArezM29Xp8CTnIboq93nBtPHTwI8oGgng0NDQHQe21+oezBKzlMDXA1CfU/bDvHHDxqNX8Z9rfsPnX/UN+KL8sB6bLxLqK75XAg8ePDh16tT+/fvPnTuXn5/v7eIFFysrMslhFBw4flAmK3eTAZtu5NBRG1dsonNN1s/dcO76OQ8Tr2CLWrQvq07H+vbBI/2ZxkVz1s2asWQ6uMFALx4eHvY29nCpzgVGTHHhkRFo16QlwwKW6WhzEo5Y8SAJwFCTnJ2dO3bsOHHixIEDB/br95sjD5pR/SIAhLMePnh49eLVI7sPnzxw4uzRM9PHT+dnaZUmTIWAmf/69WtwoQcOGwjiPGeSLjHrCJgOXMRYR7DaEZYq6VzK5AkT3xa8Qj8FAIx3V2M3zLlH6lbnb54zcqM5OzihtyWBqsxn2bXd67Ro0QLA1SHhqsMgfvkYvnBZf3m/1bMDHQ3zfw1x0pRJmw5u/MB7F0+ODisJPXrtcEJygnEqFaPFQB8gPpONyzt77iyANQlYphPHTty8coubzOP8hou3bt+iEgzNDSzwcCVmC2hFNiI71bevPa6G3E2y9dymFbuWXb91rVHthjAbVKISAZIR5SkpKRoUlUolITqreAOEAmxeDYEeUL9bzczMzMTEBEjD29ubnV0iZJZ7ghGqct/R/WtOrj8SczLOIS3TpUBqo4CwjlDQTptIhfiQZsG2DPs41ImZJZkcXrhoxOCRWrrP0KWrl4oUhd1Hdk0uTfqMU30WxBQp0uDhg0eoCtXj/99QmtVD1r96FFVVhj/pJwQs0PKUOU3nNrCsw7DwZ5jWMbLvYR08zc+9mZNRKpkUjcBFSvSUS20FF29fCg8PRyMB7OjoOHXStCUzlnoofB5veRbxNFIikhBwRCqBCmorTVZ+FgEDfYsNCq6EXbp046IJmwoCDmhKMV2WmZmpwQCNgEN0FDFJTKzaWk/D498CiETi2KFjM1+VH+psaGEoMBblOTKlNkrI4NtfIDgHMVXShvca8SDrNlpwnBhe97bdwRVHIwEMAnenLp70befFl/MViAJg1EkmkrPelLZo2EKtytXI357rleZvvwQ/bQDf/i7/tK6gM+fOvIh/VnNIIIYlnoh3buLYen7Teu2Drfgm1Ci89hFGIpRHKDx+5jimibro5uY2ffL0tYvWGeWZReyOTbydkvEhy57m4GrkTsQR1TSY3DrIyrOTW8jUYI9WLnZcM6NIEjEDgrmq344SfGlKWoqGHoaxshEXi0CPGgI9UFECvXv2YSgsMl6qgm80K0M8HyvDik0ABmYhtjnm5jn0LsM6ZfOzeDLtU17MJBaVZ1jpeXH7j+6zbWZlYW6RL8gDTDQp42F2pxadgIdEg6kOgF5pVoer8IeN4crVK5efXgzo7wPjvngjWfpaNBpXt37vmo54S1oEAZej0mVKX3wCJ/nixYtfmjCISq9fs/7YvuM9gnuJoqRP9r949eylG92jvnUjoEArbUWkEh1C7OqNqV1/UK0ATw9GHs3wE57Iwb15/0YkKo//gpiPEtLaL4YRBGZ+cbUyXiqd2m9HLp+7wiCTFn8qWcqTGlvRgUL84pCECCWdYBvLaIKvW8u8hkOwXdPgph+Lw9DPFLDecAb3G1KRw927d9PZaU61HdBnEgOy7Pe5djj7Af0GArhaJb3SrFaX4w8YzPbt23fu2Vmczny65fW7ox+LI9lmeIalAfa4Q/VMTJ1M6gwObjCwtrOBNVCdcI6y0Lbk5JVTsbGxaoJKc2Nj406dOh3YeXD60Bn1jZqcX3HpwqkLCAcCqtPry7s76TY012bOzaY0aDyibo26PnwKd+DoASMmDV+2ftnNBzcUAgWcpYRTFeR3kCxLMmRIJXdv9wnqnQAAEABJREFUpYP51cjqzB/8ruzYtnNYpxEpZzOoVANyGg5Ce1xkEFCjVkVmrml2AQWeE5qM3rly+7oV65Izkxq0rhfFBLE4pfrsIjDH7Nd5Nb1q1a5dG8DoxOPxjpw97NbBSa6Uy5QyTVVeRAH7DWfC6IkaTPUB9Eqz+lyLP2Mkjx8/dvJw5teQc2vLckmsVw8/nJpxPv1hlkmOuT8j0IZqW3EaRnb0mv0DGwyq7Uy2Nowj5BIKduzbqVQqK1JiMDVq1BjUb9CerXvbenV4e/r94Y1HPrwK86B6eZv60HTP10A3pFkaglB7rWFBtaYFWrVnlNgWFxrnBzTwDHLx9LFxIYsJw4cNB3/oJnr4KxJo1arVwd2HajuGELl42lMCI4pmFWtiH2XulerY1aTdqEbDVs1cceLQ8cGDB7u6uj548IDqTvFy807jpmp4goBSzrP8AX2x+9gBwanzp2i+BjQr7PZeQYK4b/d+dnZ2gKa6Jb3SrG5XpLqPBziYUuFMxAQGRgRiASsCcSJ7uZIJxz6Nv7rrOlIEdXTuUtuyLglHwszEyJZea2BQ3V417Iwt4jLiJk6eiCH4UtHc3Lx79+77dxyYO3K+Gcfi1Iqzlw5dgfLxwOp0N/YgVugIzYdmZWjpY+5Yzw4YoQAoimGOHTYO/KFp9PA3JWBqajpv1rx5M+dR8OTF4xfuWbnr1P6T506cW7p4aa9evXx8tPveL9682KhtQ3TEHDDPf1M0ethoS0tLAKNTamrqgxf3nRs7oZEAznqd62vrV6n3E9T+9qRXmr/9EvxhA+AL+AKofCeKeuiIMy48PnzogKHj+0xMfJi6be325MSk9k6dWjm0Myar9q+oydS5matp3WG1gnv6ZQky+w3p9+qVase7uuqbeWBg4Nyp8y4evzSyzeis0NzjS07fPHXbhGvqY+oLtCcZT/4KB1YqO+580pKZSys+t/eVVn9D1c+bQ4cOHW7euNm0aVNgUQIXSkXGwMwkWMNWVtbojZasFDaFZ9i1ayWv/di+b5t1AwsCWWdjAzePVxLGGTGkGu0xwsxUrzQxAtEXvyEBWxtbmkR3M5ABXGxVev3ujbp1625YvQGozvSn2etWr3/84VGIZf1urj3djbHnO1j5WzaYVMe2vcX+a/tGThhx9uzZig81fmkcZDK5VfPWm5duPrH7ZN96AxKeJJ9YcubW8TuSTDkdNiLjKRQ8hYDT2ZXJLxTkPivo2qJb48aVPDr9pY70+IoSoFCwx0qhaa7cvuxVwyuFo7PRsiSMN6j3IDSZGr53/y4TKbavjfXnZNzPHjd8HFheqMmqYa5XmtXwolTrIYG1GKUEu/RG7HERWZGPHj0CQweqc/OazRN6TSx+xdq7ad+x+0fpJKOuLj2DzINBLToxPMy8+7kRfOCroZe79+2+acemqKgoNMHXYbBm7Ny+85YVW4/tPt7Op+P9A4/OLbnyYPfT0BufUt6nl2Zw+VkCVmyp8J005VzGqB5jRo0c9XWG+tr/RwJv374VEPnOgU48KVfDpyC6yMHIsUGDBhqMGigsLDxw/IBTc3t1UZPnhOX52Pm1aKE9Jk5TVX0AvdKsPtfizxiJs7NzoG8AXKDEDLfAkrXv6H7O56ODGjRouHXdtjE9xiojcNvn7NxzZVeuIKeuVQNvU63/S83Bsb590CC/BnNrp5IS1x9ZO3zi8DPnzuTklG+rVtN8PQdB3v79+5OIZFFdhGnMS8nN/vQq9sm5N+GHYr3Evs29Wx7bd7x169ZfZ6Kv/VEJlLe79/SubS1rrpRTXi774H4S9OrWqwzUyQ4dP2hRjwE8zmisXKJgvSsd3HcwGlkNYb3SrIYXpboPqU/n3iYsbLgTMYILjJjHT+nsXa9fv/7m9Zv7dxgQdSn+zLKLZy6cicmLsabaANtTFUhCTZRAIYCVmu8gT6v2Zg8z781YNn3mwpn37t1jszHPSKLaoEAcDmdqZgpJEIQBI844pS9eGYB3cLIfO3YsCP4aGmIP9UA11YM/QQJFRUWx8bGeQR5ob2ZeeIGnnSfwRGM6ePz4cVxBrGMDbGQ893V+26btqv9DB3qlibmg+uK3JRASEuJl5QFXOJhD4CC5/frup0+fMCyGDR02sNcAKVEZEZVwf+3Te6ce5aSqDEkqwdCUjD1Qlm5Nc2/pEjTOFwmUXfhwbszUMctXLwe3GZerXfRh+KuLNtY2cPlm9jKEFDGmG5dB+uyXSyA8PJzuYShRaI/gBF3yooRdO3UDADqBX8G9x/ea+mEvDS+fL0mVtW/bHk1cPWG90qye16W6j2p4v+HGBVhjEwy6mFGy89AuzWlGAKNO40ePr2EVAOEgsIJOZee8Ov3hzZEPWfHZJRK2M93FzywQ2J5qSk3OcDN1a+8UPNWvxKno4usLoyeOXr121cOHD1ksloYGDViaW0JSRIMxEJFdnV01RT3wSyUQGhFq7sEQyrXbKgpiitys3P39/TH9Hjx50DiIZhNkhcHnvyoa1GuwrS02LgRBEIbytxf1SvO3X4I/cgDA2KzlWRPOVmJGj9jgkmRpBw8fxOBBsX/3fuYlJqoVtCNOVFOZR2C9vfrx+Z63b1+/i2VH2Rvat7Bv7W3qCygxycLb3KGDdcBkr2KH/Avvzo6dMWb6gmnnr5zPzc1FUzJMzCDNsfEIRIhREolENIEe/nUSSEiMN3cyk6BeASSIEXdq3wnT44cP7z/Ev3dtit2YmR9ZaEO2/VP8znqlibms+mJVJTBh6DiDJAJQgpgGQhfp/dCHz58/x+CbNGkyZ9Jsk8xy9yJijZPUgJgmvPePoh5ufHH72t17SXc4ktK6VvV9zQLwsM6eIcAKxsFAezq3dwie7I+robybeGvK8sl9R/aZt3bu4fOHHr58WMItgfiqo5UMMvHUFzigQPv27Qsa6tOvlkBBQYEclkMUWNNRaRbHUEmrVauWBqMGDpw64NDUVg1rcplYbiQ2GTbgB09lVygU+fn5ERERp06dunXr1vHTx7fs2Tp59pS5y+fNXjIHpPkrF6zYtPLU2VPPnj1Dn32lGcD3Anql+b0S09OXS8DV1XXEsBGkjEq+QtmWqgclwVe5nPTzB4jJtKvTGp+sXUQj5rDMH+K4iKNexj9f/fr15Xf3w+4nlSa4Gbv5mPlbGmAXcWpOZq6mHq1da44JcOvtJLDmvs58ceTuofCsMFdzOy+qk5eLM5VCWbNijZGRkZpen/9SCXA4HDKdjCDaZQcvUdCmeRtMp+cvnZMai809sF7srFc5ThRnb29vDH3FolwuDw0N/fDhA1COO/bunLNozsARAzv26jRsxoiZ2+bsubl/yZWV25/vPRVz/k1R6EPO88fClyDdZz+5lnl7y5NdK06uGTdr/MYtG4H21GH+nYVKvvHfyUFP/u9KYOTgEW4k54oRIcQYzjcv3ndwX0XRzJw00xXnhF3XG8HyELyMgXgQvfgvxFHHY588fBqdF6FAFGDB7mcWaEZhVGQFMIbmVOsAS7cWLv49vGsMDAgeFAAAYaF43NBxjRo1AgT69B9IgEAgKGRycLE0fXGSeA1092aCX9CT5085NsVGzLl5PEGCaFA/7TYjgUCQnZ0dExPz5s0b4MLesWPHkuVLxk+f0GdE39bd28zZNG/ajplAOR6LOf1I/DKOkVpYh1MUwGF78kVBCsQdjzjjEHuc0guPmMOIWVmywAGvEeKCK3HjFwSXXn9xc92mdZqh/gCgV5o/IDR9E60EZo6bYZRpoC1/hkQ2stC0D7t37/6MKP8EN9iS6YuMiwxRR7WVVwmdZK/D32xYsWHuyPnucu9PO6LfXXj/KvQl8HiScCRfM38XI1cGxbyc+gsf6c+zatgG9+zR6wv1evTPlwCw/nKScxUypZo1O63E2d6FwdD5nTt2/phNQwuKMfaBorzXhe2atQf6cffBPWApPXjs0L5D+42bPX7q2hnTds2ae3LRsdDTt9Puh8rDk22zSuuLucESoY9cpRztcEAnWjvZeFi6q/tF53SKKkrJMGQ4mNr3rdVzYfs5a7oum9tmho+1l4KB8IX8b27GQHPDwL9YaWrXYZh+9cW/RAK1atVq36Q9nKioOJ9Cx9L7rx9GRkZiqvz9/ft26GOQhvVaQnS4kMJas25NYGDgzMkzzx47N6jJEHKiYdSe+NAbYa8/vUrnpnGlHDrJiII3MCAYEHEkIo4IkoY/M4mlTIYmjJmoweiB/0ACAwYMoBvSM99kq/uS5Mpq16ithkEO1tSvX7/+EB3q3MgRFNGpMLY4Ozr35KMzC08uPfzpBFhKx9gk59Zk5QWy2X584LdBvPGIH15lNtrAEFXrM9UwKeAWJhdpT5vW4HliPoBZAlZ2Sc75j5dX392w4Pqy9Q+2xBckGvAJ5l5mYIEPCH4sfb/S/K5+Kpnmd7XXE/8BEpg9ZZafgVfFZ4QgCpRjVbBtz/aKz5UPGzjUm+wB5ysx05O5IR+TwpOTkwGeSqW2atV63fL129fs6OTbBfeJnHQwvfAJKyc2l8fniuQimVIqU8pAAsTAzMl5m5dzu3DKuKnGxtg9gIBAn36pBIDYM15nl2SUgl7SwjN2HNnZvn/HLgO6duzdqXOfLiu3r7BrZAOqMCnuURLXR1LiK5B5Q4iDynKESBiSn1yk5ZDsfGwc6to9fvX4h1n/YqX5w+PSN/xzJIDD4RZNX2iUYQCxsUoQscBlEnIOHT6MmQ2FQpk/c555tjFUpNuEADEtSw+ePISmt7a27tKly4Y1G1YtWt3St7V1vn32qYL4/SmZF3JzbuRn38jPOpcftSPeBw7Yun5rjRo10G318H8jgbZt25obWsTfU/3a8fkCbqCkwI2d7VYEbEamE8fAigJcz5iRZL3N4UFChPHfGVaUfLwZQndr6QKCUWnpqRV3E2NG+KWiXml+STJ6/HdIwMvLq3nd5qScSr5OJXb8J2FPXrx4gWHn4eHRrklbMzYdg0fscJ/SI8CCDoMHRQcHhw4dOsyYMePw/iObV22ZBoKmnUeP7Dx6xuiZp46emjJpir29PSDTp98igfEjxwmYwoxXWQqpEnhaVKtpAxjCQ7Qikksj7MZMmVAW9zhZ6vhT/Xd8BOIhcCkCMxGw7oHTlXCmUpWnqXJSFEQrJNfsGUQ0IBDIBBNXkwcPHkA/9FfJt/yH+PzERnpWv1MC796927pty7jJYwcNGzRs1LCZs2du27btxo0b6iXzV0a2dOGS+h714DRdy7GsQZZVwcGjB3k8XllJmwH1V9elDpyDbcK24h44Ucn2eG1LCLKysvL19a1T9gdUNjBd0bV6+L+XQLNmzayMrBMepECIVhXCuUozKxOGmylmPMnP00WmUsjwh8xMbplmLFDCGUo4WkGPI5tGUE3fGdimmXuzXWvLA1vSG/d06jLQr8/cFtMXtpu9uOPcFmaNHM1t2s5oYWJR7rqxCbI8c/YMZlRVLOqVZhUF9feTCQSCdRvWHbp8UKzr7tEAABAASURBVOgoCBlWq+P8tm1ntfTu455vnf04+QFwSw0fP2zPwd3h4eFfksWK2cus+QzwO48hQEzgDHIuiPBg8KA4ethom2JzSIIAWJNAVDRbmXvosM4iXVNbjQGdWXxpnFUi+lLj6o0fPmAYbIBXCBTQ55f9UIuJro2dMaMWMoXp77IUzjgMXqcIbEZgMOaqjETLXFPbbHPLJGPbRIZNuKkPy7W+slZ3h05Tm45fN3zl7rk7Tm8/ef/yvdvnbp7df/rAlv0bl29YOHPBzGkz+vbt27Nnz9zCnCK4oOOEdiZGpnyZKkAEOqIYkQuKCgDwA+mr4/4Bfvomf6wE5i2el4lPdelrDznK85HcNF5KGj+FQygNCA5o2q1x31m9u03qUmxYuOHkup6De2zZtSUsLAwzVyMjo6Uzl1BzSJAYUwPxHcRRadHqAzfRdS4uLsP6DKUlkdFIAJcY8+4+visWV2AE6tSpOuqeKtlNVSJSz/FPy1u1auVh4aZQKnGpqt0UcLHSyJRm4oB9xCDxWarYVgERy6YHlhkiBGYjcJ6SkkmwSDO2SzC3+Wjqke9YD1+rp2tnYCrO6zVr1Zjluxft3LFk28VjF84cPL17067FsxcNHTi0TZs2AQEBNjY2RKKaXRnPzxmfz58+d9r73HcDxveDcXChUKslZUWKUcN/8HxV3Gf+/9CnfqoVJXD63OlSA7Z9U+wjbhKFOJOXHl8SF8H8mCxNDGlYZ8mixTPXzEAc5Lsv7Og/rP/eA3ujo6M1DOvWqdu3bW9ckuqe0SBVAAwV4IsfvVCdUqwqov579+7tbe4JbjAUDoLMcGwa9+69uzpIdOEv1j3oaf5RMIFAmD9rvoutMyEZsiwxIxcSnIKxXmZuHq8wstgKMbdJZFhHmlp9NPbKc25KrD/Up/+8DjNXjFp6YtuxO5dvXzh2fs/GXQtnLgSmYvPmzYODg93d3d3c3Kp+yl9cXNzkOZMktsKJkyZl8NJz+OU7ooBEFTJFSQSnXr16AP6BpFeaPyC0v61JRETExTsX3NpivfWYeQIF+qk47EraxWhuRLMGzdcv3zh66YhMUtr6w2uHTxh29vxZ9cnBk0dOqu0YDBzwmOZKX/yHjE+nT5/G4EFx/PBxVkVmAECnUnP+mctnlVV4aSW6lR7+vRIAqu3CuQubNmwa4N/bQmZq5oL1Zua9LuzWqtuq8ct3Ld1+Zt+pe1fvnjt8duvaLVMnTu3atStQZGZm2G/CD8zo7r0781fNc2vjMrz/iJd5T1liJppJ0UN2x9adwCoHjaw6rFeaVZfV30kpFAqXrFqMkJXvT0a83v/+08mopPup+VGFIjb6cEqduTNFxfcybx2M3cODuON6Tli6bGmrkS2eZj2as3zO8lXLQaB8ztjZVvxKnJslhtzrD29U3OpRs2bNliEtcGmITjc0uIBQfPvObR2kvvAnSKBx48aDBg0CXnIqwwA93tIsDplvMHPmzFq1arm6upqaYlUqmviH4d37d528e6LnzG7N6zZ/mHVPonvKZ96jQjcjj/79+/8wf73S/GHRfbnhH1UzeMhgJpOVjRTlM0ryLUv5ueJOnl3tShzTzmann8/JDS0QsrSHJGJmFsOKOp147HHOA38n/83Ttk1aMV7uLTr3+MyqDasa+tU3yTaEdBUv4oDLIxSePX8WwwcUB/Ud5IjYQkIdvSmwFJ++/IMhTsBTn36jBBAEodFUzzKix1D4kdm/549rKzSrSuHs7OwJ08a/zw+dPH+SGYPxLPcxAul8o1KuZdhCDgMHDKy0eRWReqVZRUH9nWQgFF4qKhU1hRBXPGQEQ4YwgU4Adt/8mQvOHD07dci0OtR6+VeZQIHmhxaJSioPy7DEzFsZ14/E7cPj8Iu6Lx81aZT/YO98eo4RxZAeTgAOfuhzLBUIUWAvvf7kRmhoKIDRydraulvLLoQcHVclYgwXQczHjx+jKfXwHyEB4N80tzAXMLW/uMCbKc2TtWzxk1+aBhw4eXl5ZVvlto6eMsqynvmS6Uvi2DGRzE9oQSnlyo/HI9Ojsp7FvBw2eUTvQX3Wblz38eNHNE0VYb3SrKKg/k6y9x/elzgJIFTsWkqUFRYWqmcL4pLDhw8/su/o9OEzahrUyT5fkHu1qDiSJZdUiPNAEF/Gf5R9f3/MTjyMm95w1qTBkzrOa1uzf6Aj3tIwEg+nKyF5GVcSlE7Mefj8YVlBJ+vVtReDZwyJdEyDUgrv/LULOnT6wh8igYZ1GxVFMzWDLYwtZnNKh48dsX379suXL1+/fj02NjY/P18ikWhovgmwWCzwI/rs2TPgHJ8zb87wcSM69uw0bt6E+asXPAx/MGLRsL5t+19Nu1QgzEezErJE745+zBYWcupJmL7c/CB2im/Oxexrq7euadKkieYLj27yFVivNL8inGpb9dMGlpSerDIwUfxYSKk6noPCQf7+/iNGjDh+6PjwbiNcBZ4xuxML7hezUkvQNGqYJ+Pdyri+P3Y3V8Yd5DVsSudpPSd0bzKmnpulPTkUglMVkBBCnHAvI15XPMjD0NBwYM8BlHydvSNgRV8kLn7//r2avz7/gyTQvXP3/NdF7LTy70luTEGxHzfCPP542tntT/Zsv7hr9ua5I2eN7tq/W++RfTv37dKlf9cuA7p1HQhS926Duvcc3hvAANl9SM+OvTv1HdO/fY8Oo2aN2XB40+pz63a/PfBI8BJwK6hZyoJZdoHWq9evMrU0vZJ6XoI6QB6IqzST8+bohwI+W+6mu46xxmXQcwkUQsUDs0GrryS90vyKcP7mqqSkpCdPnuRkZ0MsJVyCaFfQNCg8LuJLM69Tp86UKVOOHTzWqXZXUjQ18Uha9us8MQdrKbDFLGB1bolY/6noQx3LeqMajOs4qG2raY2sYVNKOASnKYsZJYdOYh9IB51269yNmkOEdI3NQhq74nIeEOtTNZcAiPMsW7gs426OVCDj5fMlcilkAEOGMGKF49mJSnwF+e7sfD92YW1Oim12jh8z27s427Moy6Moy70w060gzTIHwACZ4ZyfF8hOss8E+jHDPb/In8N05IpsZYgNDCkgwxhCg3p1ls9Z8Yn94X3hW4xMst7nvj76gWMlUvpVouvAT7Icln+M+L5FeiWMML3qi3+ZBLZs2TJ41KDVu1ddCb1EdiLYUi1Mi6mUdxA5GoKzlQgZLmSXL8+/NHFgErZt23bdqnVLZy6rTa+bdDw982YuK4VdkT6xNOFy6rlbGdfcjD361BwwcHa/FlMbuVnZU7LwUUnRYJGFaUKn0wcPHELM0/lais2kL9+9qhhzx7TVF6uhBMCvbJ8OfRKuJwPnpsJQx/GiM1oQYydAqu3uJAgCCfiLyDBkDKtgsPCgQBAeggABDoJgSPMHFyD0ZGKfwd3GDZhwPf0yZkkOyKKvx0c+jxcFKYGaBsWKCS5WGjvQo+OjKlZ9BQNG8ZVafdXfJoEzZ87ceHTdopWp52AXm9YWXt3d6w+u1WJSo04rWzfoVtvL3JEWR8jOzb53715VZu7m5jZqxKgTB0/0bdKfHENLOZ6ZfDNNwpNi2vKk3Bd5T2+mXyXjyR0COvUb0at290BLH7MV61dUPNawS8fOpiX0cgeomhEeIhgRU1NT1SV9/mdJoG/vftY427xP+QpgFv68oeOiFOZc2pSZkxqGNDqXfFIkF6J5M5NYr/e/T83OlgQhwLZFV2lhGWSYRXJv4UJgEEBEVIv/FqRXmt+S0F9UD1zvB88crDuuFsO9kv3DDDdT/64+rec382jjfOjGgdFTR12/dV0o1PkuVioMMpncsmXLtavWjuo3upFD04TDqWk3snLC8ioSA8PzWe7jfGF+66Ztuo/sWmdcjUvvLgwYNuDq1asgBqqmNzMza1S/EVygVBfVOUKFCgq0z8Cpkfr8T5HAisUrRJkSg3wSzP6ysfk9kyGmQI7mNutWrCVY4e9l3cY0BRGnsHORhSK23BPGVGmLCogSB3s1cjP3ZNjUsLxy9bK26luQXml+S0J/Sz2IOW7du7XW8EAjW+xpbOgp4ok4pzoOTcc1sm5pfvHDuf4j+u09tCczMxNN8yW4YcOGo0aNOnXk1MBmg2k5JrGHEzPfqPxZGHqOpDSKFZHOTfXx8m06sJFjT5u78bd7D+h16tSpkhJV0KBbu64mHJ1BynHyrz2HjulAX6xmEjA2Nl48f4mUK/Uv8bBLNCdl4yHej2pPGWQQhwvxrrFx9YZwflgsG7uyTrifHHYpUkCXQkIEF6cwSCQwUuhWKaaWicYWicaWSSbmyUbWqaa0UEKNBv4ujR2BqMw9GB+iPgCgikmvNKsoqP+cDPmZPYLo8+pNqzw7uCEKpDSbK+FKvsJdrpRzpRxrF+t2A9p0mN3mI+/DzGUzVqxfXjHeXSkTEonUokWLjas2rpi5KoAUFLEnJvleGq+g/HSZ8iZlH7n87DxBrqura1Bnf+/h7m+KXk6eNWnLti0EAsGMYALxtSLAy/FUKrWskT77IyVQv379bdu2nTh8Yv2ctZMbjm0gruUYaemWYW+ba04MV53WAbMQ1RUHFx18N6UQBFY4MghSJ3EZAJD5SsMI/KA+/caPGn89DevElAll73aGCaLE3Zt3n99t1pCmA7eN3bR1wsYNk9ZunL5u58Ltexbv3Llg26Ru46kCcutBzT2buqpFqXpsiQo9ffpUXfxmrlea3xTRbyL48sLiewcEQs8z5s6QKmQpHzIib8el3c6MPprwYV9E0r0Udrrq/QSVMiyVlGTyMng4XrMOTTvP7VBolrfu4JrpC6ZXejxwpRzc3d0nj5ty6tDpDj6dsq7lxV1KrLS7YlER6At8cb1aegSN9kumxG84tF4hleESFKqwvhABeWFc3q7duyrtRY/8UyQAgkJgqH5+foMGDdq9ddepQydXTl8+q9f0uf1mTagxqp9V97bKpiHswFoFfgHZHh6ZDm7Jdo4JliD55bn6pLu4xNtYZBstXbzYv7bftbTLYt19RdxcXsrZzKGdh185f2X2jFm9e/eeOnVq48aN69atW7NmzYCAAE9PT/CFzMrKOnP1TOsxLRh+pkI5UMxgRKpENaFcvHRRBVXhX680qyCkP5nk48eP02dMVxpBgkbKEh8R25Qf4Bp09eS1vSv3tfPrKPogfbftY/LDVF5+JZYgmLdEoTrlKIef1ax508GzB1nUN9tzdde4aWPBYh/UViWBgHifnn3PHDo7rNXIlMvp7498YiZXEmcHrPgynpQgsa9t697fyb23s39tTzshwyrXyLrIBIbgHdt3ABp9+mskAL4YPj4+zZs379mzJ/DqzJkzZ926dfv37T+0/+CJw8cvnDx/6dTF62evgXTq0KmRg0cYm9O3791WTCt4mfcMghC0HApjipPOpI0dMK5Xr6+9hfTIsSMnbh0bPHuAwkIOfqfRHMhSg5CQEDTmK7BeaX5FOH9DFYvFItKIorpK1Y4NMCEyXFis2lHH1W1vAAAQAElEQVRkY2PTv/uAPRv2Th02LfV11vOj757veZsTll/p0z6gXVJpYnhxmKePO1hBtx7S8sKrc6Mmjrx//z6oqmJq3ar14V1HuGmCd5fDX2x/y6psb7yGlYmjsWcbt3rDa9UfVRuRKBfMXmBtba2prQKgJ/kdEtBRZT9tAMtXLr//5u68ZfMeM++nc7GbKBJuJytj4HUr1gO78ktdlpaWLlq+MLI4fPj0YQnSOIzGBIEjVzvXYUOHfak5Bq9XmhiB/G3FnNwcngvwEpXPCzGA8/N1njBr1aqVCc1EHKBkmvLCXkc/WPM05kYCJ5db3kD3I7E04XHOA65B6YSJEybMGx8a927E+BGbN2/WpfpiydzcvEfX7hJTebEJN/RK+PtjX7Q6NSxiryS0qNMSDFKD0QPVVwLwzx/a7v27yFbEviP6Xs++BEKImA5izie4EjzmTp3n5eWFqdIUP336NH76eIoHsWPf9m+KX4LFk6YKAEK2KP9Rcb9e33GMiF5pArn9zSk9JwOiob7LJEiOVxQXF6Pn3LRJM7gIQRiw3AcW1kESCzPfnvoI1tEFMUVoMg0Moje3M669K33de2jPLZs2e9b2mLtkzsWLFws/P7SuoawIdO/c3YpjhljjhEGKbFzxhxuRoUc/pTxKq0gJMBmvsugC49kz5wBYn/41CYjF4tXrVyPGynod697Lv6V+V7NGCBKeJOFcSkO3xssXLndwcNDgMcDZ82c27FvfdGgjn7o+H4pCMbVAYyZfTB8zZAxwemKqvmI065UmRlZ/SvEr11RnCiKxCMLrYMQGkpSUFDSqZf3mNA6lHENSPRvOD5ZnI8Upt9LD90Vnvc2R8kHksrxe/QG6L5Gwr6RdvJx53reG74olK40c6fNXzFu3aV1YGPY1GOom6tze3r5Zvaa4KNWRH0B1CgLkObjixPD056veZD7O5eRoLdy0F5kAs3bFOgj8gf5AXp2Sfiy/VAIxMTGLli0y9zFzq+/yOv8Fpq/SbG7SmfRejftMGjcJU6UpxsfHL1m55EHM/SGzBlKsyQklcZoqNVCaxYk/mTyq96jWrVurMegcZWig0SpYrzRVUvgD/79yTXVmY2BgAMl1MGwiJzImEo0KDg42URpjnvhGHHB4GmlUrzGuiIcoWpr6JKPSjUoFwvxzyScPxu+hOVI3b9lcq03w6dsnJ02ddPnyZXQXaLhnl57mODMNBrHBiYKUZDK1gVWjgpvMuAPJaZeyI/bHJt9OnTFxhqWlpYqyqtNV0er//3QJlJaWHjx+0M7Pxsrf8lMx9jcYuCB5r4VThk/t2rXrl2b64sWL9TvWc81Lho0bmihMyOVr33WhbpIfVZh2JXvupHlt2rRVY6qe65Vm1WX1R1JaMCwgsY6dhpCg9KIMzGSaNmoKF+uQAYJCKiszO3PulHmz+s6tbR4Svj8m7GhEpTsugbPpWe7jPdHbxXThwjmLBk0cEFMQPX7SuPuVRYrc3d39Xf3gQt1nfhiwi4vLicMn1y1eP7nflFWzVu/Zvrddu3ZgGH9Xwgr575rdT5iNUChcsX65Uz0H2/o2sRX2rue8yxe8k0wfPaNBgwaVdiaTyfYf3H/o0sGAXj6t27d6lf9cKBdgKDOeZyuj4bVL1tatWxdTVZWiXmlWRUp/MI2LvTPGhISscFExUXl5eehZNahV35iDPWdbbq589PwxIAPm3oQRE88ePtfMr0XW9fy4C4kpj9IBvmKKYgEbcVcRsWDUsFGj5o4KTXo7ZdrkivuTenfuRWdT0c3ZhNKMjAyAAf6pGjVqAL++v78/KP51qco2818386pMiM/nL1+/3NCTauZnklKaiGmS9ijLMI++bsU68PXAVKmLwO80Z+HsR5EPmo1rZGxjFMH8pMZrckSJJF1Nc1G6rV6yxtPTU4P/LkCvNL9LXH8esa2trWrprTvwUgovGvUKSVBZv359G5oVXKprB1FgAUGk8VHSaLSpE6aeOXhmXOeJpAJK9Mn4ongmaFsxRbMij8UfjOR97Na/68BpAx5+eAgW7A8fag8erlevnoncCBJquxMTJMVMnfBURbb/KEYrpL9fANt2b5MZiR1CbDELagRBok8muBM8161Yb2FhUakgHjy4P3vxbLm3pPX4Fhwpp1BYgCHj5vJiDie09m+7YPZCU9Mffz2RXmliBPu3FZ2cnEhCAmZWEmPZ03fPMMjenXoRCrHfhwLD4ldvXmEoGzduvH/bgRkDZ4nCpBHHY7+kOvOFeTczrr0pfdl2cKsOo9s9jX48ZOSQS5cu8fmqjfStmrbCVXAIYDrSF1US+Gds070H9hbjC33aeRWLilQT//wPAuWJZ1Nb12g9f9Z8AgH7ZVZTHTp66NiNo96D3Txru7PFLGGFJXlOWF7G5ZyJgyYP6j9I3eSHc+xN8sOM9A2rpwTMzc1NaMZomw6ME6HhkjKTMa8ZaNu6rXGpIaTd0wkIIcQS9zH2E3AzqQq6/yEhIQe2H5w9eI4yFvdm8/svPecDvr5v8l+Giz/U6BLYdUqnXEX2qIkjd+zY4WBtbyo01rCkllLu3L6j1qcapB74lRKoXrxv3779MT0sqIN/kUj18IVmcNw8XvyZ5G5NeowcPkqDRAPgO7Ni3YrXGS98h3jSLA25Uq4CUe3NQNOk3ck0yWOsX7EB/N6j8T8G65Xmj8ntT2oV5B8El+iu8agQU8l68+YNehpUKrVu7bq4ON1YOxEqRbiYtTy6FVCdO9ftXDBpERKFiz2VWJzIQtei4eTSxARZrNxT0mp6c5Z58bOIp7IiMSURB6cr4QSFLF4IgvjAA4BuUi1hXUlWyyH+cYNKTEw8cuawf2dvsDpBD74kk5NzP3/8wIk9u/VE4zXwy5cv5yyanU3MCOjuRyF+3janqYag7NDcmEMJjZ2brV2xztnZGVXz46Beaf647P6Ulo1DGhnyDTCj5ZuKbj+6g0GOHjLKGDHCIHOR/FPnT2OQmGLDhg23rd0+pd80Qjw55ljCl3bFg1ZihahQnk/yxNl1teq3rHeHTq1q+ng7m9i4eLhU/ckiwOf3Jd3Vsl6F/owrcejkQdd2zhKKGM0MuCDTrmVOGDCpRbMWaLwGDg8P33lgh8ia37BjAxiCJQrdVRIEZbzK4n4U9mrdZ9iQqj4iqWH+FUCvNL8inL+kys3NzdPZQ/eIAwixwCWmJ+bm5qIn6eTkFOgViD0A2AmfnJXysQovOwXhnU2rNs8aPoeWZfxpX1TOhzxMp+i+pAoJm1iMc0GM7Ix46YI92/aga/8YGP5jRvrfD7SKPYIIYZ4018SHLldqVzn8QkHm9dwZY2c2bNiwUj7Pnj1bvWWVd0+Pdj3bgqgR8AKhyTjZ3LhzSQ5il50bd/bsWbmViqb/LlivNL9LXH8ksY2NjbHcCGbq7IsEM2HJSyq+1mJg9/60Yt1lDg5im3Jeh74GTaqSatWqtXbJupUzVlsKrN9t/ajaFV/hBRgaPjKhLOp83IwJM8zMzDRIPfBPSeDy7UsODW3RUxYUC5FE3JhBYxs1aoTGa+Br168dOLe//cS2Pr4+KZxkDV4NFCcw065n1bCpuWTeEgaDoUb+xFyvNH+iMKsvq3ZN2xhwyJjxidzlz94+xyDr1K5jS7WFs3U0rMwBeRz6tIqHEKsZ+vr6Lp+1cu+GffWtGiYcT4m7kqR5lauaQJ1HX4pvXrt5+/bt1UV9/q9JICUlhSfj0u20e4SlfGn6rezmfi1btKh8VX7o2KEzd08PnjkQMVKkcXUeCAbSS7iezH8rWTpz2eyZs0HxVyS90vwVUq12PEGMxYhviB0WDWYrSz99wm4AHtRzAJ6ru+wkQHnkwlfvXmE5fKtsb28/euiYY3uOD20+TB4BReyJSbmbkR9RwEphc2J473Z+VOQgCxcs/BYbff1fK4GioiIig4ieXtrdrC5Nu7RtW/nTjRu2bfiU82HSoglx/OhC3Z2YcpE8+UpaoGmNDSs3VDyAA93F/wnrleb/KcA/o7mFhYWTjROcoWM/gqHnGxQ9evYYAOjUqUMnW8ga8xYXuR10/d4NzPFI6FZfgUFcvk3rttvX7Ni0dEu/kAFBSG37PBc3iVfXxt2uXbn2lYb6qr9eAiQSCZFro2npjzODbGv07zOg4sR5PN7CFQu5BqXdhnR9WfBMrHtyO1jRp1zKtMM5zp4x51e7evRKs+LV+TsxPTp2p8momLmBcFB4QnhJiep1Zuiqml41qCwSGgMRoVJT/qYtm3SQ31kAgSZgQYwePXrGjBljx44dNarynXffyVVP/gdLwMHBgaowRJQqvVmcyEp5nuHm7F5xPiwWa8nKJVQ3SnCrwA8VTnhjJrNTz2UO7jhk9arVFdv+dIxeaf50kVZThs2aNaPzqbDu4R0QCSqEmS9fvsQMevCgwUYl2OW8zB6JiI/kcDgYYn1RL4EfloCVlZUxxQRoPcAh5m4C10m849rusVPHoXdr8Pn8lRtW2taxcg9xSSiJB5ToFHs5ofghe/70BW3atEHjfwZcOQ+90qxcLtUTm5+fHx8fn5iYWFBQIJfLv2uQYB3UqW0nKE/1k45uWGrCu/ngFhoDYFdX15qBNeEi3eU8BeIw+DfvYIkBvT7pJfDDEvB28Qbx7ozXWRxYgDjgSj2EH+CIedsWTpo95d27d1KpdNn6ZVY1zK0DrSoGytOfZlsorGdNmV2jRo0fHsD3NtQrze+V2O+hv3LlSuuurScvnLT24OrV+1bNWDK996Bek2dP2nNwN/higZ/iqgyrY5sOlkLsOQWIMVzIKwT8MRw6tuxgwqSjkdZGVhIbxfmr5zHPX6Jp9LBeAt8rAeCCLIgtSgvNkjuUN0UscUwf7hvZ+0X7lnbu05nqTLYKssjiqQ7BKqco+0i9meGsdFm/Yv1/qTFBz3+Z0sSaUWCGf0Favmr5sTtHgof5B0/w9xrg5jXQNWicb+N59UxbGEXJInZd295/RP85i+e8efNGocA+dYuevqOjo4+rD1ygaz9CUKEx602oziOVoFX9+vUdjexhrlakSkRpaWXJwpXsP7AfEOiTXgI/RQK2trYKqVLEF0Po97JAEFCdAqXAp7GXfT3bfKHOSYa8fH7K+Yx6jg0XzV1MoVB+yjCqzuQnKs2qd/rrKHU3yvy6fv4rzjKZbNiYYTHsqDqjgo0dtA84ypVykVxkaWfRrHWTAeP7D1rVX+TC3Xtjd79hfXft3RUZqXMwO3qwA7r2pxaT0RgAS82VcWnxKbrvwIBhuF+XvvQCA0CgTkW84kA7f5GL/O2nd2qMPtdL4P+XALATiUqiXIx1N5FT4SBvX/c2LsUinUOPgMZMv5rtauQ+ZuSY/7/3H+DwlynNH5BA9W0CLMcufbsoHGQ1BvjjCJVcKY60NJWTEl78kSsrHdJp2LQZU1tPbxGDRG46tGHmvJkVwztgqnXq1LGlWsOYczMJUCmdn5yCfbKicePGNrAVJNQamwxDM4gOswmlFv0r4AAAEABJREFUjx49Atz0SS+B/18CBAKhV9deMBeCRNpvGiEHcjV1DOzsx5GUortgJrFe7Q3NLSp4FxW6fMOK0NBQYFigCf4DuJJb8T/oVd/FNyWwb98+sOImmROkXEnUhbjEuyk5YXm8AtVJlBXbFokKH2TdfZr7yMnceWq/qQNm9UNqSI/cOjRx+oQnT55g6Pt26UOo8PJHsan07pN7GEpDQ8P+3foZ5Ws3Kn3Kjmzl3bzYpOTyzSsYYn1RL4EflsDYsWNXLF/hmGylfgkKzEZoReQGvUJKJGw0z9xP+R/ORwh9FIIG8jw/9vXMO9N3zOrQq+OUOVOfPXtWWlqKJv518J+kNH+dFKob5xUrVhw5dkRpAmUTi5OVuZmcfByT6CRzzblVEHE4JuNVlpgrqThmiUISVhR6Je2iSC6a3Xn+kMmDTZvSj9w5NGrSyIeoU9NbNGnBgEzR9iNghTDg+LQEEJcHMDo1a9bMXKIlTi5KqeUYjJjC2aU5wBBGU+phvQT+Hwm0bdt21cKV9fG1jRIMaJmkJv0bcAg6ShAYDZGP4gW+CvBdVXVEghA7nMhPwQzkvxKHzjuyqO/IfmOnjbt89XJmZqaK4Jf965XmLxPt/8FYIBXIXSBRLSX4WoCviNRQYWxoMm/y/FP7Tq+btSHYsHb8keSMW9mVPs0Nuo0viT0Sv1+qlMzpsGDK7MlOHexPPj02bPywe/fuIQhiamrat1tfcj4BUKJTCZHz5j02HGRsbBzkGWiYp3WDZpfk2JvY5hkVPX6BtWHR3PSwXgLfK4GAgIAxQ0fj8pTO/vYUZ+1XDvDJCy+IuBcn9JAD7xAo6iQDCLHGSbyVRbW4H4QRq29sGDFn9IARA0+fPp2cjPU46TT80cK/rDS1DpQfld6vapeVm414oZQaCdIsPdzc3CaMnnj26Lk+DftDHwlJp9LB96nScYQVvT8QuxuEvOe3Wzx75uyAXj4X3pybPGcysDpbNm3hgneAZDrtFG4wWHRX9BAtWLDAQmwG8cvFdS/uYbcancHX9G3YWxbri0cO67DWF/QSqJoEBAIBREbc27gqEe0+kMKYoojbsWIfJWT4jUgv4oxDPPDsIH68ceqe1wdnrZy9ePniqKioqnVeVap/WWlWuABVFdqvpRMKharnGknaXhAKzC7Wce4QicTWrVtvXr9l5ohZ9hznqL3xGa+yZEKZtk0ZBBbsj3Me7I/dBUO4mS3nLpy5MKi7/9lnpzdsXe9o5kAqxkPoPyrMMii9c+8OGgdg4Kcf0LM/Oa+cmC0osTaygmCIZyp69foVINAnvQR+lgRevnvp0cYVT9TqpaIE5qeT0TJYqdr9hg2wf7lbC5zQXprlXXSb+XDp1uXTZ834VOFgmi83/kaNdnDfINRX/1cSgGEYwlwWoEApcK7ugcFQ2V9gYOD8WfM3Lt1Uy7AuUJ1ZT3LFpTrHXwOqUknJ9fTLu6O38WW8kfVHr124rl7fkCJZgUEqAXjcAYEmSazlZ6+e0xQ1QOeOnU35Rho36J2YBw3d6gvIwpv3b2lo9IBeAv+/BMLCw2xqWGv4lGZxcm4XHNh5YO+inW1tWpi8p+BiFXCxUkPwTQCxwWV45D+XvFmxe9WUWVOfPn36zSbfJMDcnd+k1xP8cgmAFYpSjv1awHQ4La1CzPvzWBwdHceNHndo9+HGds3ijqSkP8gSskWfK8s/geq8lXF9b8xOjrR0YN0hO9ftmrR0vHEGBZ+AQOLypTdiDOfJCh8/xp57RKFQ+nTvg88pZ/Um7Z2xgRFiiyvgF8bGxpZj9R96Cfx/EgBmAUxBSIblJ8VJeNKCh8yZk2f6+vqqTrZetObW+ZtLBy4MhgLMwgyJyRDMLv/efrNboDoz3QpeIe/XntrYb1i/GzduiETYG+SbTDQEeqWpEcV/AHyti7dv385dOrdLn84TZoyXSMQGbyBKJAwnKlQPgMshJqH0K0pTzdfMzGzQwEHHDxxv5d426URa2v3MknSd+CMgA6rzYsrZM0nHQYS9V70+V05fHty9j0EYDvexfOXDJwkv3LwIKDGpd9de1jJzqLT8ayqRSUgEUjG15P2H9xhKfVEvgR+TQNnzbFqnWfSleHcbjwYNGmi4GRoadunQ5fDWg2f3nV7QfU6gxJsWSoTjFaqNSlIN1RcBhAEXu5Um2mRuv717wLABZ86cKSrS2Tb/xZa6FXqlqSuP31TaunPrtjNbxO782tODgqb4tlndrMPiVk0H1QsJCXBQWtLDCPhS5PU7bGi70sHSaLR+ffodP3CiuUur3DuFGY+yJBX2J6Vz00CM6GraJSWinNp9+omjRxuGhJAjILgEQdxwacXp0dHRGOaAbauGLXEl5UozNj++vktdKUP+vMLZ75iG+qJeAlWUAFgwKUVKCV+l/zLf5eQWFr5IfH3g8IGKzS0tLbt16XZs59FLBy7M7DHNH/KmfSSqVu4FSgjr2K/Qmg6znXgZXgVH3pwYN2XcgQMHXr36Pte8XmlWkOl/jjhw5MDH3A+BQ30tfczxxPJ4C4yH6TY0h7p2IUOCW81rEtDQq1CZP3TikLNXznCqcDgblUodNGDQ/u0Hmji0iNoXH3shUcLDbu2MY0fvi9l5I/2qqbHZjrm71i5dZV1khk9Wsow4l29Vsne9W4duppzyRzkLuIVB9v4QFWYLS9PT0/9zmek7rE4SKP8l/QlD8vcJYCWzwXc17kGizAtie/NPvTk3YebErKysSrlbWVkN7N7/xPZjL28+Xzx4QQDOxyTCQLVyZ31xTCCMyTBkQBSYZctN9ys4E3ph+/4dhw4dKizUed96pd2pkXqlqZbDb8tPnT35JOqRd89KDl7VjAlPwtvVsmkwNsShnc2dmFv9R/dbtnlpfHy8hkADYAAjI6PBAwdvXrulbWD76H0JGY+zOVnY0zCjWRFAdV5IPu3h5HHx0IU+9XuQ8nCv3rzKyfnswvzM1NnZ2dfVBy4q97cCKxXUiGiSpKQkAOjTtyXwxRv5202rNYV2Sf3/DrNdy3YFUUVprzJF5nLIEIbwEM9N/E70cdik4RevXoK++tetXdfj244+uHAPrNw9S11M4qhwbvl3VdsOgcDvPY1s2MG/bZB9AODPcROmeOaci748dvK4U6dOcblcLfEXIL3S/IJg/hP05auXL9w7b+ptnBdeUBTP5Oby5BLt9jTMEORKmYENJbhLYItZTQoMchdtXzB+zriHTx5gyCoW3dzchg4aenT/sdqMuqmXstIeZokqRNiTOUnHEw5dTj3ft3/vUwePO3rZL1m2JD8/H8OtT+feBkyyGhlfkOhm4cIilKSmpaox+vwbEvh5yuUbHf2x1cHBwbwMQfb7PKWDVliIPa4kQLjtys65K+bFxcV9fXJEIhGs3M8dPrNn4c46UJBdkrnmZ17VsIxrJjvrTsx9jojT1KMx+A4D1cmy4mT6Fp54d3rY6GGXL1/+uq9TrzRVkvwt/7t3796+fTu7mPP+eeS7V5Gh5z8V3SmJ3BWXeCo1/WlmSSbWJFQPEgRwJDixXyOfZhMa0WtTjzw43HdEn+Pnjmt2v6vJKuYmJiZjR409tv94C5dW8UeS0x5kikqwm5Oy+ZmnEo+9Yb9YsnTJgAn9F6xYcPr0aTSrRg0bmSOmkEBlMr1Keetgag8C7ikZKWgaPayXwA9LgEwm+3h5I0IEKg9MfuZkCAt9ZA+Zz2aumL3v0P6qxL59fHz2796/fPLS1oZN3VLsSYXljq/PHKEMVtbz5JelQm5H/7adAzrQ6LRiW066R/7RZydnz59z5w52w7KmoV5pakTxnwIymezmzZsEGklQX6EMICDeeKUZPGrIqCtnryyeuLS9a+ePRyKfbHmV+jS94uYhMFCulAuSg7dd88FNvPu6P0l5OHD0gM17Nn3J9QOaqBOdTh/YbyAIE7VwbR13NCnmSrxMJFNXafJsftbpxGNsetHydcsM7Cijxo18qHl0HYLq16wP56lWPRK55H1GGESE+XyBpq0e0Evg/5RASHBdI6qRQ44lVm9CqsclC/xKjr071W9U/z379lSlo1q1aq1fvX7h5PmdbdpZR5oQM2CIo/rJ17RlCVi3Y+4/SXre1KORh6U7w4KRa1MUZZN46v6ZZcuXVeoE0ytNjfT+UwAsIvr278t3EIGlQXnHeEgsVpl+Hh4ePXv29PT0KjETRMUnPdv95sPpCFYq9t1noBXQm8WiIhs7m1a9WzSeXi9BEjt18ZTVm1dXeqUBvSbRaDSgOvdt29/Sq03k/risd7maKg2QzEk6mXxEYiscPmdYibxk6oypb9++BbXjRo6lc6iQSm1CQqkIFiIWZuYAr096CfwUCTRp0kQhVwzo2N8skQapAum6XPGQxFWRTS84+fJs35H9Hjx+oFtdeQms+hfNW3hw84F+vj3t0yxM02mwruoUSAS3Y+4lF6XUcAjsEtgRosLxVmlvxGFLli9BWwxq7nqlqZbDb8jDoj7Kjct0T1nncrwSHRa3NrWCixCFO05YV5klK3xzKez53reFscVltDoZS8zM4mVamVq369K2yfT6OYYZy7cvW7pqSUREhA5dhYKlpeWooaO2r9nhIHL+sDci6X4lrsk0bsoz9qN828x6feq8jX09e+HsqKgoK3MruGzvEVygpEUT69etX4H3r0fomAu/vjt9D/+VBBwcHO7evduvT79x3UebJ9HVviBM54gjcFEpks0ylx1ZOWDMwCtXrmAIKi3a29vPmDbjwonzM7tN9S/xNEmgwp+jmhr6xwnP7sU9HBjSt4Fr3WI6O9u76PSlM/fu3dMQAECvNIEQfk8qLCpEQHzwc+ewCOGJeZ9LUKf2nYwMyl/Rg9jiJMEQ04j77lr4u20fWfGVWJ15gtyEknhrqk2ndp0ajK/Dsi3aeGjDpp0bK/5OarpQA46OjotmLxraaVjOh7yPpyI52ZVED/kyfhohWVSDZ9vE8lXSS0O8gWEa0TAcTwxDXK3dOnXqpGb1M/Iq84CrTKkn/DMl0LtX7znDZ1klmnzpuUnEFBb5KRKg1G1Xdw4ZN7SKj0gaGBh07NjxxIHjq8etaEKpZ59oAedrbRcgKqlcevr9eeDx7F+nN8PCPNIqYdeeXehzafVKE0jp9ySBQIB+xhyxw0VGR2mGEhgYiC+BIVQsHbHAyerAUq6MFE+VfUBK0iqJFKVxUyOY4fZ0p55tezUYGxInjD554/iaDWu+eUZW9+7dG9RplF1U8O70p9jrCRVjROqBCRl8pIbUqb9NnX5BVByldp3ax44cVVfpc70EfroEWrduvX7xOk+Oq8oX+QXuiDOO5yOJoSUtOrysz8i+p8/qhC6/0EiFbtCgwbZ128b1GdPBvBU2yA5BeZz8sx8uWhtZWphblCpKjx8/rmpT9q9XmmVi+M8zuVyuemgMZS4hBlBBQYFmICCM6OvnC7OVGowawNkS27Rq0yqgjTwUyr1VyMvnq/GoHIlnx7wreGvH2FEAABAASURBVONEdxk8aEjwyIAco4wl65fs2bfn68+J9+nS2xRnyguWpRTnPNv+OvTAR1GpyseK4lwO4sn45Edp9qaOu7fvLkfpP/QS+DUSCAoK2r91b3fPTrbJ5hhHJLpDxAwW+spS8Jnbb+3uOqDbqVOnKm40RtNrYGB1rlq6aunExU2I9axTzWC2jt/nU3YkM71IzpM7OTlpmuiVpkYU/ymAIDrXRtU3GebyuRKJRAWX/TtaOOArPAdRTGGHR4Y3atRo2+ZtXep1K7jJSr2dKWJhTx9QIopI5qc3+S9djd3btGkbNNb3VeqLpauW3Lhxo4x3JVlAQICDiR3MQWSOiKCWokDOfr7zTdSl2JKMUgx15KlYXAnhyL7DGPwfUdQP8o+TgLGx8fxZ82cPneFV4GKYSUIvvzBzQZxxMj8oy7nwwO1Dk+dMWbR08eHDh4VCIYasYrFOnTrbNm6bN2R2kMCHGooHdwGEQMDjaZhIsGAZGZpTfXx8NK30SlMjiv8UIBAIOBxW+HgqAb2rtn/f/sb48scWNYNTmEOhH9+r4+zt2rU7sOuAncIh8XRa3ietlaohBkAMKyq+JMbR2LHj6PZ+I7xufrw+Y+6M69evg6qKqVu7rvSSsjcCkWGZO8Svo0hm50Sfjk84mZL5JpuVwgaRqJQLGfVcG1y/VDmHijyrDwapPkPRj+T7JdCsWbNDew4OqNXXJta0kkd90AxpMC9AmuFfcIf58HLYtX5D+u3duxcEMNEkFWEEQUCkqH/3fvU8Q4xjKMYfSK4E26BGPo3G15WLFe7u2mf2sPdtRV56zK+QAAzDZAoZsxNNRpKhlaadnZ2lsQXE073ZcZDCQJmQkKAeFYlEWrli5bql603yzFOuZAiKK/lRVSLKdG5aBjfNxd6lUf8GygDplQeXd+3eie5Lza1J4yaGLIp2VDgI/HQbm5r2bd2/sVkzk0wLhxKX4Z1Gzpo+S03/Z+UoX8ifNXD9aMslYGhoOGHM+G0rtna0am2byPhSgKicGoJAnCDfgZUdwDybdHn17rUTpk68evVqcXGxVCoFi/dPnz6BMOnho4cXLJ8/aPSg3sN6rdi7/NLH82IPXp0xNVovahrcL8A22FoqkAL7xtbWVsNWrzQ1ovivARqNBsl0FCIXJ8Aosib1msAVjh5gUUoxb0Bzc3NbvWx170Z9Sx5ys57mSnjSSieTK8gBQfbAWgE1RvslKuMnTB1/7do1NKWxsXGzxs3gAiUaiTPCm5iYAPfokrlLZk+b3aRJE3StHsZKQF/+xRLw9PRcuWQl8EI2JtS1SDTGZep8XSvtnE8UJBPSw5ifdh7f2Xdon049O05ZOGnflT2XPp1PwsU7NrHvP7PP7PUzB08d0LRHY9/6vsZ2Rho+QrYIRiALCwsNRq80NaL4rwFTE1NY68BU9S4qFb59/04Fff63MrOkcww+l8o/uVT+p+jw8gLqo0OHDrMmzmlo3SR6X0Lm05xKVacSUeQL8mRKuUcTV6A670bemTJzyoMH2h3C7Vq2NS42RHGFICKsCvTroPSFXyEBnV/QX9HBj/KsjgMLCQnZvnH78nFL2jq1tIw31vml5yOgCKcqqOkEoxiSUQTRptTU29y5ViP/5v2bjFo3fP6+ucs2L106b+mSiUuHdh7q7ektJPBfF7wILXybwUsvlehs6QNKk4gDKzqSRno4DaQH/mMJWFtaQ2KdryPijGNydLavd+/e3RChQhJdMmM4Ni620ofNgck5ZPCQw3sPN7JuGrU3LvFmSsWnJME0ZUopT8aDjWDPLi7UeqQzd08vWDJf/UrewMBAcxoD/nzYMCDGyWCVUQwgffq1Eqi2/oNqOzCofv36axasnjFoWk1ZgGU43fgjySiUYJVn5G5gVzvQr1WXRr3Gdp2zdcaKVcu2zdu+d/zBxX2XNXVtTiVQkzlJ51POHEs4dDXt0uv8F0mliSI5Npqqvtrs5FIKScdw0StNtWR+Q+7m6ArpXiaEDmdkZCqVSvRoatesDTN1lCaoJTHIGRkZAKg0mZmZAdV5ZN9RJ9g1+kBizvu8SskAUqwQ010MfQd7iDx5R24cAlbno0ePwAodYpWPAZeqlBVJ/fz8ALE+VQ8J6EeheuAYBHaOnzs2Z/nsXkN6Hr56yMLfrNeo7rOXz9i8f+Ou7Tv3LNu3e/K+ee0X96zdx9XYHXzPgRV5LP7g6rClQFE+yr6fUBInkmsCAF/8VSh8VyzJlDHMGGih65UmWho/CFdlT0NF1va29gby8mPWymtxEI6Ox2jDDs3akwsJ5QSfP0RUyTfP5gCqc+WylVtWbXEUusQeSypOZH1ujf2UKWXm3gyXXg6k+vCJe8ceP3xEZ1HoOSSDCBwhFhnQuz/waWLb6Mt6Cfy3EpBIJOHh4XuO7h4/Z1yvob32XNmlNFX0GNRjx54dR3YenTJsauOQJmbmZiwpK6wo9ErahS0RG7ZErDsaf+BK6oVnuY+jmOHAp/+FIesaJQjETi/Ne1oYuy/ZSe66f/f+ndt2oBvqlSZaGt8Hs9nsefPn9h3cd/DIQaPHj969e3doaGjVWVhZWVHlOmY/aCsykGAOQvf39zeUGmgj2oAIgopgVnRcTBn4jczJyWn+rAUzhs1URECJl1O5edonNSu2NHU28ern5jvCI6i7n6+fu4GC3K5dO+AiqEipx/ybEtDVLv+FDIBxcOXqlblL5vQZ0mfj6fUKM1nPET2W7VwybNxQI3datDj8dNKx7ZEbj8Tvv5x6/knOQ6AxUzkpxaIiuRJ7fNeXhgtcWOz00qy3OeHno19sevti1VtcOKm1R7uV81fOnDYL3Kcgao9uq1eaaGlUFU5OTp49d3a3ft3SJCm+Y91rzgyw7WeRSIk9cu3QmEljbty4od5H+XV24GIQJHgMTSmem5yajEbSaLTgmsEws3y9rK5SGiKxybFquCp57dq1d27cNbDZoJwbhan3MiUV3hqEZmJgSrHysyjN45pTLZYvW46u0sPVTwI/X499ZY5fXMd+pc2PVr1+/XrR8kWzV8y6n3LHobld/xW9e0/oRXIjhPJf38+6/TjnAVhiF4kKpcrK94pU2q2oRAz0Y154QerTjIgLMc93vb27/MnDbS9eXwv7EB6TJs4rduaVOomS0pIVCgWIEFTKRK80KxVL5UiwcL5z506vgb1GTR6ZS8pqOrdB0AB/AkW1diYZEq2CLFx6Odp2trwTeWv81HH379+rnMtnrLGxMZVkAOk+qYgYQh8jP34mKf/s2KwDoURXvRrCXDnv0aNH5RRV+2jbtt3RPUdbureOPpCQ/TpPLlV8qV3ux/zCj8XbN277EoEeX20k8F/qsapM+ico8ZiYmPmL5x+5fojvXlp3Uk3/tr4cOjuVlxzHjmaKdSKlXx9QSSaHmczOfJOdfC39457I52vfvNj5LvRq+Kd3cREpianiXKYlT1BTLqyllPghiDsescEhRrDUWpHlVXj68dnNWzZzuZWcX6NXml8Xu7b26dOnA4cNWr5ueTG32NLXgmZBkwmx9r8CkRMZeM/Obp593M4+OzN74azbt29rWVSAHOwdYKHOlwwxhvPy82UyHc4eHh50YdmDOigORRRWTh72NT6o+spBEomkOklz+37LEpvovaq3BgmYGnd4eROwhI86Hzt22Fhra+tylP5DL4GqSuD/VeLgllm7Za3ArdS1j5OFF0MkF3GllZxNU3E4SoWSm8sriCjOfpQXsS8m9kAS60GpWYZFc4vWI9uO3rx467Gdx0f2GWEiN8Yr8RBedaQxYgJD5MoGTIbT7fNe5bw9fPhwxY5wFVF6TEUJxMfHr9m6RoKTyj1gnpc0VZGb/Do99Upm1Jm4ongmhl4kFyqN5Q0G1SUF4C/cP3/i1HEEQTA06mKwfzDE1a2CIbwJAfOKczs7Oyc7R7jsCEvo85+MoXzy+unn0vd9WllZrVi2Yt/Wfa1d2mVdzCt6wWKlsBGlaiTgaxd3OsnVwa1fv37fx7TaU6umV3GQlWMr0ukxP08CX+Z09+7dKw8vuw6wt/K3hKBvXxt+oaAoklnwiJl+OidyaxzyjhCIBHcP7jVz1Oz9mw8c3X9s8fwl/fv3b9y4sYuLi62t7dBBQy+fvDS/1+xApa9djiXE/1oXGeZ5b5NDX758iRmvXmliBFJ58cbtGywHnqIVQemGQ8xgxAIHi3EXjlyc2W82FINPvJBa8RjKYlGRpY95k5ENn2c8Gz9t3MeP2EU36MnP29dIoruTHIKEFDFGaQJKFytnOFN3NU2DWeKShIQEUPtjydzcvE+fPqcOn27k0NQo1SxmV9KnLdG8J6Kpo6edOH7ix3hW51ZwpYOrHFspqR75ayWQnZ297+g+6/bmFBPKl3oC5mRJRikrtDTvWjH4xgqfyHzlgV1qdZs/acGFMxc3rN0wevTotm3b1qtXj06nV8qETCZ37Njx2L4jY9qN8M5xts5nYLZLo1ulZqXdvHkTjQGwXmkCIXwxFRYWvn///uHDh89fPkfsULISI3QaDYbhkJCQ7et3DGs3Iud6YcFrrLeFL+MXyPKa925i39Jm28Ete/bswfTk7u5O5Ktcomg8G1+anKITCwK1/fv2NyfqbBYDSDa1NPT9d8TrQZNKU+/evZctXH7qyKmTh07t2b63VatWlZLpkXoJ/FIJ3L5/y7IBg8rAbikBnZZkcoresvKvMKO2JdBiTUMY9Uf2GHVg54Htm7ePHTu2devWIGiDq3ACDmj4ldSlS5fD+w4PazTIMc7SLI+O2aCibmggIVVki1IEaip9XiYB4ACeOmPKsPFDj945fPHJBQkkJr5XwplKqCyIDcsgMxOzMkJV1qJFiz3b9ngRfDPP5nGzsHt6MnkZVm6WPWZ1i2FHLluxFP10uYmJibkpA+LorBEQAhQVH63ii/oH6tWUbIJZTYhNZfee3EdR/V8ggUCgUrGe0/+Lo76xXgLfI4FXb16ZuZlqWsgl8vzIwqwbeRHb43CfSA0sG4/pN/bMiTPLli4DvqOaNWt+yZaEIA2PbwDgC9+3b98j+48MqtWP8daQnI3XnDsHlyKGcQSSAbFDhw4YLnqliRGIqhgWFgbi43xbTqMFde07WTv1tG2xuHGLkQ3tDS0pn2C4UAkkSzOkqUg//wP1N2nipCHdhzLvcdhvsX7rIlFhGi+l/4j+RA/87IWzP3369Lkd5OfjB2McKwxcUXGRhkADtGnaGi7WUa8QDTQVYA7v0NDrAb0EdCSg+93RqaoGBYlEwhfyjWxUt5WoRJz2KDNqb4JDqcvQdsNPHjy5YfUGoN0CAwOJROJPHyyDwRg6dOiG1esbG9czCiURw5SGoTgrlnFgE2+KIQXYK5ge9UoTIxDoyInDq3atsO9g49rMGV1Ht6HVHRDcsH9tBptOzIcrjSw3atRo66atzpBb9oUCbh4f3VysEL/IexrSKKTruE7rdqw9eeqkurZBcH0CX3c7EQ5CyFCUYIeuAAAQAElEQVRGRoaaQJP7+/ibi7W/w2o804Ad9jFMDetzvQS+JoHq7b3Nz88nGasOxch8kxN5ILa5Y6vDuw7PnTm3QYMGFMoXXZxfm69uXUlJSXJyMrBXnj9/fuvWrbNnzy5csnDJ6iWTZ00aMnpwzwE995zcXYpj+zb3bNCzdt3BtRqNr2tbw1ohUFS80/VKUytaEH6ZNHvS4+RHwaMDGahlgpYCgkxdTJpOru/m6hAa9i4rq8K56hBkZGQ0efLkPu36Zl7ILfiANRjfF76V0MXzV817l/xm+67tcrncw8PDqEIsSIAIwAVG9wtg4D81JRqjV+jGBsZiE/mjl49BrT7pJfBHSyAvL49gjIu5Ep/4OrVe7QaDBgwCq7cfnhG4faKiokAs/sDBAwuWLBg6csjUOVPW7Vx75PrhS28u3Eu6/YL1JEOZyncvpTUnuwy0rz0rEOTOPeztm9pYeDHMnE1A10K2yNLKElfBVYqDIFCrT9DWbVuGjRqWmJogYAlSH6cXJ37xSW0igejX1duuidWUeZNfv35dqeyAl3Prxq3mLOuMGzkSns4TC2nclLclr2bPnM2hsucunKNUKk0NgLNSh02pMf/ew3s6qLJCq8YtcagVOoIoISO4sKTwS8Moa6TP9BL4AySQm5vLKeBmFRRwA6UfYj58/X1WFecDDNW3b98eOXlk0cqF42eNXbh+waZTGy5HXohAwmQ1hAGjvRtOrdtkQsOmgxu169+mR58evbr1HjBqQP1a9T1cPEk0lYVbkaeILXJz0R7YriH4oy3Nn+mkuXf/vqW7NcuKn2VUnJNQKPwgDtsdmf4iq+IOdrlSTsSR7GvbevZ23XJ887HTxzTSRAM2NjZLFy1tG9gu5XQmM5GNriqRsK+kXRjYc7BnC/e5i+ZSCVSYXxZg+kyEWOESUhOlUh1tCyqbNmxqwqMDQJ0kchUB11hQWFioxuhzvQT+UAlcu3WNxxQK3eUQDGWZ5u87vO/rExEIBBEREcfOHpu9fHbvob0mLp6w48bWd+xXUm9RUDf/MUtHTZ89ffHEpcsGrxzbcmIdh3pGJGMQWkgqTYhgfnpb8OpdwesI5kdQzBfmfamjvE8FXm5eFWv/aKX505w0Bw4dkNkjqc45iAMOMYJJMuLmlVt3rdodZFgzfH9M5hvsgzeyssddrV2sA4f4PIq5v3rTKpFI95S3z5Lu1av33MlzBW8kuS8LPuNUnyK56FzyySZ1mgyY3I8v4REzdedChKQm8itXrqhIUf+enp4MAzNIUP5rIZFLQKXQSPLszTMA6JNeAn+uBIryi6SGcvX4EWtcNDf+6HHs26E5HM7LNy+37N88evqo/qP6rj25+mXeM7mnuM3UlmOXjJo3c/7ikctmdpzT3K+VIdEwnZt6O+P6wdg955NPvcp/DlZ4UoXqflF3UZbr3nRlKE0m4UokubJawbU0GA3wXyhNTWe/FShXNBXHkJCQcOfZ3RKXz3EbIWJmZEan0+3s7CaPnbx34z5ONP/d/jB2ms55zoCPSC40oZsE9vZPV6bOWTwnMzMTICumoKCgLeu3uCLuKZcyxBydy3Yl7SLDwWzbrq1Bfv6ERJ0RsgilqVlpFbm1aNgcRh2vSSPTEFM4Mz9bb2xWlJUe8wdJAFEiFDpZM2COk/DSoysgaCOXy4FFuePw9hHThg+aMGD39R2JsvjAbv69l/XsPKZjs05Na9YMhshIUmnig6w7JxIOH4rbeyn13JOch/ElsWBJp2FYGaBzx6EJiuKKU89ljRwwCpgpaLwa/neU5hd/VV6+ellool0+wwLExclFLR2Q29ra+nr6FUhZHy9EpT3FRrT5Mj4Bhw9q56/wlMxfMu9jZY/9ACY0Gm3WjNnd6vf4tCeamaztC1Q9y338pvDFluVbR3QZRA6HoM9KFbHHvX77uqIB27BuQzOhMWioTkYU1WpdRJYcPYr9WVYT6HO9BP4ICRw8eNBQhNomrICKSMw1O1Z37ddl/Ym1uXCOeXOTetNr1xsQUqNZINewJIuXkclLB3kWLxOsu7lSzncdd1RRJqIScUF0UeKVlJj9iYZpxjPHzercuXNFMoD5d5QmmGzl6enbZ2IzlXOwvFoMuTm4lsNlHzgYpzCCOAHShLi00KOfMCdciOQioVxUo2GQTQfLjTs3PHz4sKxRJVnXrl1XLVrFesLJeJWNrk7hJB9PONSzQ6/ZU6dTY3Cweq87HlJawC9evEBTAjggIMCcwoA45T5QBk21x55JZxNJP3//GuhOn/QS+G8k4OLiUtMnGM5TQjyEnAIbfsAFu/p2ndC5z7IerUY1Nwqkql92JpDx2WLW/z8khVTBLxQUJzAzX2en3MiI2h+fdSnPvtQp0Cx4zYK1a5atrVmz5pd6+SuU5pcmVwU8iNmVCEshitYOJSlIVpZW6KYEAkF1dAAREnoochHm6/3vC2N1npiUK2XFoiKfAO+gIX4nb5y4cPECujkaDg4O3rpuq0E2LelaqkykPcqoVFJyLP5ggH/AmpWrDGLwqv3zEFQkK654TBzgFuQTCH9+7MiASKFTaIgxHB4DzFRQqU96CfypEujXsx89jUKPJ/Xu2HXMhuG1u9UsMWbmiLMLhPn/z5R4hXxODhdYkRkvsyLPxcSeSYzYExu1J4H/RGxdYN/MolWnoC7bVmw/sf/k3OnzZs2aBdT317v715Vmeno6nyJEy4gKUYyMjNAYAk77eLjSHuZ5SMNvxqQ9x3owC4UF5lbmDUaEPPh07+Dhg2gOaJjBYOzYvKONX7vY44npL7RMZErZxZSzOBNoy66NJgVU3CcF4oJ/E/pGWiGG3qpxSyqXouaZWpxeyzEYKH2+TJiX98U4oJpYn+slUG0lwOfzL1292LRjo1GrhoqdBNmiLGCIfO9o5RK5kCXKeZ+X+yk/9UFG4rnU8F2x7MdcSajCluPQyLrZmHbjF49eun/TgUunLu3cvGverPkDBgzo2bOnjY1N1fvCVZ30r6RMy0gXEHUC30QlAXO6PbOACbMQzfQRE5gfIM94mp10Iw14rzV4ABSJCmV4WYdR7T7khG7YvEGh0D2XCFB8TgP7D+rRslfxezZYIHzGqT5f5D3NVmauWrvS3MgEzlIiZrhPqGcuVRQQBMxVCo8IlUUaWQK2m7nKmQC8qxXX8mp6fa6XQPWXwKZtm+Q2EoN6pGyx1pL4+rAFTCGI2GS9yE2+kh5/IjlsayRwRxbeYuOSSb7KgD41+88ZNu/QtkMHthzcvnbH/GkLhvYf2qpVKx8fHzMzlVPr68y/UvuvK83UrFQI5X0GkiJABBKJBABNCggIQOja9bsKT4Toxka1rGrHn0kuzdZ50hw4pDN5Gb1H9EqVJy1ZsfhLIXXApH///msWr825X1gQUwSKmpRYEh8hCJu7dLYtkVHMKX717pWmSg0Ad4GjgyMus9ytWcAtBHiehYgv4APgj0jIHzFK/SD/Kwlcu3k1VZBECSIpkS/aGWAswIosiCpMuZ8efyrlzeoP7LtcB5ZrW+cOE7tPnjt6/tnD5y6euHRo56HdW3dPGje5Xbt2/v7+JiYmoOHPTf+60iwoLgBrW7RMYSVEJmu3PoAqhokZJMPe5jAJ171Lj+6NexY+Z3J131YmlAsimZ+GDh3KprDWbVmXkpICmFSa/Pz81i5ZK/ooyQvX2cVZImGHsUJnLJjm6uR478G9im3bt2yPKMqHFJsfRyFSZIbyhOSEipTVE6P7E6QaY/lkVKD+/5+TwLW71+waVL5AlgllwKqIvhb/ZPOrV/tC0+5kN7JuumTC0rPHz+3bvn/W9Fk9evSoU6cOCJD+lEfUqyL6f11pcjgcRMeshCAFhLE0aTQaGUsEyRWyqKioXj17jeoxJulcGmYjkUQheZn3fMTI4daNLeYvnR8a+sVTLz08PGZNnMN7L8yL0NGbMqX0beGrUVNGOATbz1s4D3Mtg/wC6ZLy04szWFkuDCeEBmfmVPIsPKZhtS1WVKPVdqj6gf1cCRQWFjKLmfSy8400nKVCWe7H/NeHPzzY8PzD46ikkiy2m5BbR8Z04t68d/Ply5eYwIOm4X8A/OtKUygQQkSdGxZRKDFKk06nExXaWJD6quDpBHNzcwA3adJk2dzlOXcLMNYiCKk/yLrbtVnXFmOa7Dq68/r164C4soR4e3uvWLiS916E4QCIQwvfdB3ZSWTKX7R8EToiBFQtUYgH+h3QgGRKNYFwkEwpY7F+wm4MwFCf9BL4zySQn59vaEvVdMfN5aXezYzcHVv4nFVQyhI1QCQ+iOoIcKrqPpUyFFnmBXef37tz546myX8M/A1KUyaTCQSCHxMcgUoA6ka3LYxWT6AKWJoEJVZpyvFKYKWCWpCCgoI2rtgoipTGXk0ERXS6nXGjnm+DTqM6XHt25dTn4+DQBBCk+io4OzuvWLBCECbG2JsQBMWyo93buDKNCqbOnlpQUG6NwjDs4OgAl5Yvamlk1SmEeAqey+WCJn9HKp/b3zEZ/Sy+LIHk5GSKpcohJigWxl9KLrzD6l6j59lj5w7tPuRj4I5LVmCaIg64VKeco9eOnz59GlP13xT/bKUZFxe3dOXSfkP69RnUe8yEMcePH694DOVX5Aii2/wSfpnW0lIhCILxaQJLE4fa/K4mleClaA0FtN7C6YvMpIz0CluR7mTedHN0GzN79Muk59t2bAP81RwwOeCwZO7SnEf5uWH5mCoQXHJobAf7KqbMngJ8AuramoE1IV65YiERVC4GHAEnkXx+okhN9Cfnqh+TP3n8+rFXUQJPXz0xtKCmv856tuN19se87Rt2dO7c2cDAwNTUdPaU2R6IKy6v/HuuZWgApzhkn31xYe78ueAu1uL/E+gPVpoPHtxfuHphOpJcc6Z/g4V1LLubvue8mb9i3q49u6q4YxGoGKBoMHLGEXEYuxVcP0iBvYVFHCHm9Co3N7d1S9cbsc1SHqfr8kTuZ90RKoWzZ87NlKfNXzRPY6LqkkGurq6zJs5OuJeS9Q57RAigdA1xrjew9ppta+7fV73ioqZvMPz55I7EwiQbY2schPviFwi01ye9BKqfBNhsdkp2an5sUWxosqgOInKSnT6vtR9r1KixdukaV449nK/Ejh0P5ToVh5Z8nLNwjmYFhqX5NeU/VWkePHzg2M2jPoPcvTp4qCVjYEqxbWDtP8ErRhYxccaEW7duqfFfycEyvKLShImwUKiz3R24nHFKGNK9akoTqOKGWLCQX7tkrbXELul2KqbfdwWv49jR88YtMPAiA+s4NzcXQ6AuNm7c2IRmmvQmraLFCoJLInNByNCaFx6d239wv52dnaGy3BOUXJSKx+HlfPn/uQFNPYbfklewJX7LKPSd/tcSSEtLE5QIcvMLxf5KiALLHJBrD2+gN5y4uLisX77eT+ZRid6EII6j8K3g45JVSzUrsP9gAn+e0kxMTOw3sN+F6xcEEkHmm+xC3U2OQGQODe38RnheexGtRAAAEABJREFUeX159frVxcU6zzuCWnQCHmgytfzRGg0eISA8Hk9TVANUGhXS3XUkloulMqm6Fp2Dpf2axWvMhBYJV5OVn3cFqQmiWZH3sm5N6zsjoK0v0JtJSUlqPCZv0aQFhyJKic5Kuo/VvIBSZChw7ev4iflhy84tOJQjVxDFbRzSyOZ7HmwA3KpPwlry1Wdk+pH8SgkUFRVJhVKZ1+c+iBDTqnTngV2fy6pPsAJbNnuZM9uuUr0pspFG4eM2793y+PF/9AqDP09pPn76OCcvh0MTZhkx04V5SffTPh6ILNBVnQZmBp69XHIMMucunlO5yVlm2Dg6Oop5ItVlQf3LIIVYLEYhVKAhzRDCaEgFlJlX+RYfGIa3rt/axL1Z3JlEUYkOqxx+9snEo10ades9vufuQ7sqPRXJ2dbJUEjhuIkz0nNjr1a+9dKxtZ3CW0KmEo1TKMRMmPoEJqZDY8aMUY319/zre9VL4AclYOxgChlofzQRW1wUK/bChQtodsD3tWnlRie2baV6U2KliKInbjy8+d69e+hWvwj+A5Qm2mFx596dyy+uChopZP4QZAaLSDJzuuXKqauVMXDynTSFTKkRkwJRODV0MAyhXLxz4cmTJxp8OVB2jQwNDRVSheowjnKs6kOGl2N8mgBLIpJg3SAeYgIz2UxQ9aU0eviY/q0HJpxJxjgoOdLSYwmHvFy8+ozpvXnnpufPn2M4tG/fniIkQTDEdZVkMQvCjkWgj/bQENsGWzeYVCegiZcNZGbFsLx39x6VWr5a19DoAb0EqrkEmjRpQlISMb6vUgfB/pMHPnz4gB48sDc3r9zkJXNVnYSErlDDJnCha8mGI5tu372tRvy6vForTRCeHj9+fL9+/YBmSU9PB/GTvUf2sZ35mt8lmIOE1Kjj5+e3e9OeEJt6CeeTxVxt+FiByB2DHew7WR+9cvjcuXOVCpFsQFY/xK2plUCSikqTakDF6FaICrNKdE7G1HDQAF06denSvFvei0JmEkuDBIBUITmddNzQhDpvzdxj549ibGE8Hu/m7gamBigFTrICqOTd/o/cXKzHANQSKAQxR2KCmJ4+dgaYtwDzTyfkn579Hzp5EAZo1rgZVg+SoBIvwZqtazHuNaA3185b41BqA+dozSPtxKlwiYdgy8nt1299aU+0lvb/gaqp0mSxWAsWLejQtX1maYZ/G987obfXb1s3bfq0YiULopVZiWWTpkmpAT4BZSA0YfTEPi36JV9I5xdqXX1APRlbG/kM9HwS+2jb9m0g8qMm1uRGJkaQ7vt5xJCEz+drCNQAASJAnzdFqjHAElQQFNnZOidjllehPoYMGbJ60ZrM27kVfa+3M24UKgoWr1p8/829s2fPohpBdYLqaLoT28qZ5rx3h8JyP2G3ImW/zxPHyLat366K76Pb//9w9VNA356T9nvxbVo9RfWRQKe2HS1LsCdoIGZwJj1v7bZ1mHE6OzvvXrfTReiAi9Rd+qnpDGG2K2/X2T1nz+ncUOrKn5VXO6WZmJg4ffb0Hv27p0OpDafVbTgzxKaNhVELA4fB1ibNDSlEEj5WCX0+iNJQZgD8khpZdOvSbUyfMWmXskqztIdoyJQyAhnv3dP9Y+aHLdu2aIjVgGrdjde92/jKmLgYda0m93L3hIiaUjkgMZBlZVXu1iynKPsIDAxct3R98YuSvE/lW9PL0KrsfeHbd8xXs+fN/pAeunf/XhWq7J9uQDPkayNUCkuIZy8teF6ccD4FGK0KmUImlCXdTy0J5WxYscHU1LSs0U/NdEXyU1nrmekloCMBX1/fxsEN4Sys8Yg44d6mhq7fvF6HGoLs7e2XzVziaeQGZ2KbqCipMNOLd+Te8V17d6mKv+C/GilNsABv36H98FHDo9Oi7ENsbQKsjOxU73L4PGvYxs+m7azmXj4upCgI4qtsIZwItrW1/Uyg+mzRouX0sTMyLueyUrRrZ6A3QV3tocE5UNb6jTrXwIhupFHBgAYkpS1OKMNGh8h4MrEYKysugVfFvfSenp7rl23ghPKz3mF3GqVz065nXB43YVwSJ2HeorklJao3Eak298q0ShOMCjGF7WwcRnUaY5BiFLcvOfFIuhfRd+HMRTZ/bLgcTEqf9BJQS2BA7wHWLAbmTgRV4gDl/fBHFy5dBDA6BQQE7F6/ywd2h9Mq05sEiOnJPR96ada8WV96lgTN7XthrCL43vY/kf5T+Cc+JBB7KllewmxxUfyNxIizMZxszXOBiEwppeDJIZ1r1mjlaxCLg4sQPIyvuDKtV6/eglkLsm/kFydoPYkiOdCDiE97z0xF2oZNGzTDNjUyxewlggzhouJCpVLnYtSqVYtuiNbgKgZyqjI2KVYFVeEfWMSbVm82yKGlP8Uap1wp52LK2Z6DexDd8HMWzI6MjASTolPpmrdOqtjTYJlM1rRp0zVL1pw7fv7ssbML5iwANqyqSv//UySgZ/L7JODi4tKva196to6hoBoODJW4C45eO3a/7IEOFebzv5mZ2b6Ne/2InpXrTWBWeUrfMD/MXTy3orftM4+vfaqMsi/U/+dK8wtjAavyw+eO8kPkiBsOeC15BiJD2Ghgm0HxF5Iz32j9hkK5UIEoghsHhfQJpibhibgKa+ayeQYHBy9buLzgAbMollmGUGV8GV+ulAV1DkiTpcydP0eFgiASngizdMcEQ1K8vLBQdUilmgbkwJ4liPEAQCeEDKdnYV+1hibAwNbW1isXrrSV2lfc+g4on+c+8Wno7djWbvOOTSA05GBvDwM9DyrUSYion5VUl/7eXPda/L3z1M8MI4GB/Qd6kF3hIh1jRUVDggqc2bvP7X358qWqiPqn0+l7NuyuTQsiJlXuThK5yl4Wv529aA7mdkbx+CJYOccy8v9caX5hLLfu3mJZlkKkskFBEFyK1K0V0q1t9+O7j1OL6Em3UqHPf8BmFMmFNWoG1R9VmyfmPH1aYTtRGSUIqS9fuJz5rAQdgQF6U6qQNuxRn23I2rh1IyAM8gtCKiheGUmO3ucEyCwtLelUGqSz5xKCaJBAImAytXoZUH49gcu8YuHKQEaNmHPxCinWk53OTTV0pnoNdr/9+mZhVgEk1moQmI842jl8nflfUfuF78dfMbc/bhLa79+vHzoej586doplnhmE2RANuqbCOZaFq7aurrivGdxQ86fOCzL0hSv4N53MHEFTsZMiVPxp1sLZaWmVvBAbEPxA+s+VZmVjBLHyxy+eSG21PzLGEloN/xqA1syMsW3V9pqWdcJPRivl5QTA3iwWF4cEhtQaFbT/zP4HDx4AyorJy8tr2YLl7Bc8tL0J1sIsUXHb/q0TeHGbt2+2t7M3UtIwbblCbkWeJkYmsKT8W2RILj/LUk5VViUWhOE/c9KsNsHtIo7F8Iu0gX41Dfg9gGhKl96OFC+SQSYeLiyfsp3AumaNmmoaff5nSuDPG/V//AsG3E3Dew81TjWoKCnEGC525SxYtSg+Ph5TC5b2a5evrUUMJMfojDefW9CrZncSnog44mINkoC9+fgnPTJULZRmXFyc2PRzRLxMJIZSqpubWxmoyqZOmCrJk70/Hg6ixqoyBEkVklROaovAlj59PU5cPX737l01HpN7eHgsnb+U9YxTHKe1BwVyQb4gr9fQHrEl0VeuXzZUYPeEyyyUJEPVWVVobq6OrpCwXGkCAzPA1g/UlshLnz17BoDvTcMHjhjTe2zUsbiieO3ANEyA99a9vXPIoJr2CgvaBwL9FYEVV9S8eXMNgR7QS+DPkkBmZqZYLI6NjQX3y40bN65cuXL9+nVgmoSGhoaFhYlE5a6ovr37NvdtQsqoRC8hZnCxU8mKrSsr2ozm5ubTJ0yra1eHnEHQiEUql96NuT+h6RhDEhWxwWVQc3Ye3PWlZ5c1raoCVDK4qjT7uTRvP74rNdAEfCAIgZRchbOzM7oXAolYIGG9O/5Jwi3fvq5A5B+K3rfwbeXd1/38rXNfOpQU6M3F8xYXPGIVJ2jVE7A3M3jpg0cNii+KE5UIQI/oviAaHJ+M/UHzc/dFR2YsjSxAE4mRTAGXG4Og+F2pXev265dsYL/hpKPeSYnmYO5hFtzL38KewaAz1qxe849sXy//XUILQg//4RKIjo4eNGRQnyF9Nh/ddOHNuXvJt+5k3LyRfOX0+xO7b+xct3vN4NGDho8bvmTF4u3btzeo3cBN7ggXVHJbIZa4RHLawpWLcnKwx4D5+vpuWLW+lX1Tw2SSRloCqXDbk90jGw5jGDKUrrgsy/x5y+enp2MOIdOQVxWoFkrzU9QnxBRlWgsRS0tLHE47NoVCIRII5e5wEaH03fGPopLy3yUEUb7Ie9rSu7V7b+dLdy5+6clTsE5fPHdx1q08FmofElvMSuOmzFg0neFpSojRuUIIDc7OykYQnfsXxOBo4vJVOZAunawKpiOGcHJ6Mij+WPL399++eoeNxCHmYoJUoGNrA4Z54QXvdnxsF9T+6vmrzZo1A5h/IaG+B//CdH/mHKsnr+Tk5MkzJ7u1ca41JcB/kLdPJ89W3Vv37NmzY49Obfu06Taya5e5HTsubFtvVG3zhqZRJRHX3l6RyaW0BBIco8AlKyC5zrSAzZhITVu5YWXF2A6ZTF61ZGUH3zbGsQYQKl6w4+mevrV6mNMYiDUuwyx3zrK533wmRafLCgWtYqpQ9R8hmExmKZ+jeTIS9AqixvY2dgDQpPz8fBJNtR0BccKxqDxgbwpZQk3ty7znHfw6u/d0On/93KNHjzR4NADiQkvmLU29llmaqd33XiDMj2VHL1281MnSDp+GUpE4CGeIf/v2LZpDkyZNDCCyBkMhlsGGMPjRw6hXDU1VADMzs5XzV3au3SV8T3T6iywxRxVsEhQL464lSj7Jd63fPWaU/hiOqghST1MdJcDlcsdNHOfSytGjrSuBQgAue7DIi2fHfCr+AHIQ+QR5Nj8rT5DLhIp4xpwm/Rq1G9J24trxy3Yv6d21iyXejPoeR4nGwelKmF1+hyJ2uA/SyMWrlhQV6bzGVT3/BbMXDG8/1CrJBBKV0wP8nhcHh9UbZEm3ADo3lZY1f8UCbaRXSwUIq5R+v9LMysqSUXV+TWAe4mTrhB4+g8GQisuDakoHHNuID/SmgFmuN4EH8HH2/fb+nX37eu7Yu+P169fothq4Ro0aMyfMKvnA5RXwNUigN98Xvt2wfIMT0RaO1dqbMkNg3aJ+rSDI2toaEWgJCLgy7wkOgg1wmJMFNMyrDgzoPXDXxt11jOvlXSr+uDmq6GZJW88Oh/YeBr6FqjPRU/4KCXz/PfUrRvFH8pRIJOMnTzB0o7q3cKniBHL4WVHM8Nf5L2JFUSEN62zZuHnjwbXDxg2o7eVrzqTTPuANUvBg5Q50X4wiYc3GNWD9V5Hz0EFDJvWdYJlsAnO1V2/ns32L2s81otCBzo0jJM+cNysvL0/V9vuXNjhVs9/6n5uby8VrtRgYi1sTNb0AABAASURBVAHRANhfANAksFRXKrUKC7HHlZgIwo5FaPSmVCm9n3WnXUCHFpOa7Ni3/dOnT5q2aABYiwPaDkq9rmNv5gvzXuQ/2bJ6s7OJDS69vJdSPCczKxPdlkAgmDLMNLEgHFwuOoUhgh4busl3wY6OjmNHjj2898j5ExcO7Tk0ZMiQ72quJ/5FEvj+e+oXDaQasP3OIcycOyu3NCewp+93tlORA4P0XcHrK6nnXxe8NLUzGT5oxMr1y2avndGoWR03sh39EwEnQN4mhM6YNxNzZLiqMQR16tRpwfh5Zol0zS5siVxy5M2Jdd1XkggkxAGXbZS/a++uStuqOXwlL7/zv0Lxq6uSM5MVlHJVpe7LQEnGPE8NrD51lSYHelOIl8aeSxSyy/2bIC50I/1qy8BWTUc0XrNpdXyFrQnqti2at+jfcUDWo1xevlZT5wpynhU9BnrTkWSNS1MNRm6gjEvGxoLoBoZwSflvF7gGQPqAJ58gyP3CMeyg9gcSkUj8gVb6JnoJVCsJrFyzMjI50r6GTdabnMizMR8PRUYfSYg9lph4Ng14yZLupybcTmallohKVf6or4xcqpAklyY+yXn4KPt+ijixToPavcf2nLBxTNc+HdxqOaWz0rr26bJl25Y3b97wdM8Ob9q06YbF6xzYVjCz/J6NyIlafXfDhCajQXc8a1FEacyPvZrtx5XmzZs3T506tW/fvosXL8bEYE+4AMOqYsrOz4FQR5CCVkQFEaM0KRSKUqGzWAZkOFNCsFvNxMupYpTcgd5sHtS8xYhmwFX8pXV6j249vK19gd6US7Q8c/hZLwufbV69yRJnAqcoECKUAwYGukGlwIBAzcF/xXwmw1B1NIuQKMr4nueCUPz0oF4Cf6cEgDK69/y+QixPz85NZGWmlORYUW23LNq6Yd6mxeOWTOw+eWCdIdYSO0ICOeNiTujmT58OR8Vcji+ILtLsjalULiK5KKk0EejQVG4yxYE0dMTgVdtWLNwxn+xJOPXgxKiJI+cumPvkyRPNBqaaNWuunL7CKt0U9/kgitzSvLMfLvar3Qvwz7dhPnn/7K1u6ALgv5lw36TAEKSmpZ49e3b0xFFXnlx6UfI00SAurPj99sPbFi1ZFBoaiiGuSlGKSJGymIqGGJbCGKUJlucwBEPlPxgaQijAN2BAxwGJV1Kl/HKPJ6i7ln65Ve3Wwc2D9h7dCyJ3AFMxLV+6vH3djsnXdB4SyOJlhha92bx2szXZDPhN2KUlwI2Nbuvl4qXxLjP5LBMDY1CL4KHUTB0+AKlPegn8yxI4euKYTCYTNUCE7nKplRKsCzMyM2xtbe3t7YGbvlatWm3atNm4ZuOGpRtP7T998dileSMW9G7cl15oEns86dOhqOT7acUJTIVU8RUZgvV7WNH7R9n3UsXJATUC5s+av2rHqqDO/rc+XB84fMDWnVvVPrrAwMDVi1fZZVpo4kiFvKI3aaHNPZsA5vmWxRWfagf4r6eqKs2IiIhNmzYNGjZozrI5T3IemXc0cR/o7FTf3tzP1CiE6jzQTuzDP3X95Oatm0Ck++tdYmqzUrMgEoxGkvBE8IfGABjoTYzSVAoVIHzWo0vPHi16JV5NlX82G5WI8krqhc6duzQb0HjRqkVxcXGgecU0eMDgxt5NQUN0VRo3NYkTv2r5ChMFTSgSYtbdVlZWVLkqiA+asIUlBiQDAEAmuOLiSqJ4qir9v14C1VQCFQyQnzdOPp+Pw8OyOjjtCpICSw3l0dHRlXZCJpPr1KnTo0PPNfPWXj5+ZcPsTYFGwYQUStj2yNgziRkvs0rSSyttqEaCWO7LvGcnEo7cyrhmbGM0fuyE9XvXWwQyjt44Mnj04KPHjxobGy+es8g+yxIuLZ91Flt1nIWruQvHkJ+QmQhi0WpWVcyrqjRXr16dkBRv52Jr7WCVE5qb8z6Pr/sIoKmHsUMva7ILceHShS9evKhi9yC+JpFJMUdVSnkSjKUJuFGNDCE5+NQm2BAHouqg3K9Xv/YhHaNOxGm0qgJRXE491yi4cftRbReuXBgZGQnIKiYQeAm2qRV+VOdaxrKjC0WFC1bOgcnI7du30a1gGCZKyoLmEMQVcUHASlVLgMRSMZiICtb/6yXwZ0gA/nXDBBYP3ZgOGet0UWLIvXbrWlU6dXNzmzF5xqZlm6+euTZv2IJGls0EbyURu2LTb2eB9bvmmcCKrIRyQQTz04WUM9fSL1LsSUMmDJq1bIa9v+21R1f3Htpby68mI8EI5pTrzadJL+xNbAETvpD/pX2KoLbSVFWlCRyXhw4cXr90w+7Ve66cvNrcp1X08fiMV1lopjKljGPPbjOu5dUHV86cOYOu+hJcWlqKI2PHACMQCFVjmiikuipT9dwQolAo1GRDBw5tE9I2+Vq6uqjOL6eer+dfr/fUHtuPbfuS3pw+aXqAfVDqI3XD8sv8qfgDgkfGLxn99O1TtMvDxcUFD1bjZdwVSgWFUO5WwFHwHA6nDK3P/n4JlN92f/9Ef2SG6enpwE1HwBHhVAXwcamMu7KHNhBrXOjH999lW+DxeLC4Brf23i379m3eP7DJEMcS17BtUa+3vk97lSkoFnxpfFKlNLEk/kHW3Vv516LxES6tncYtHFOrXc3m7Roz4gypkXg4XQmzkJcfXxFzYWZOMfN7ztwBnWIVFkDJZDKwLP3KKtvAwGBE3xEn9p60FNjEXkrA6P5UZVLzEU2TWAlbt2/95q5vMFykXPOAnssTglSiNEkkEqTU+brKWTL00huYjTawXdrtzHIuZR9Ab9byrtO0V5OVG1YkJiaW4bDZvBnzoCx81rsclR7+XPm+8K2ZKaPbjM6bd2wCIS81mkajQWXfAFURhvE4vAqAIIlUonagqIv6/O+WQPlP6989ye+fXVJS0rLlS2cvmXX0/mGaB8WZYWONmBnnGxiEwobRBIM8gpAgfvCFs3W+2RuDwWjevPnsGbNvXbnVvVmP7Ed5z/a9fbLtVdytRE4O6gnsCoxEcmE8O+Zh0d1IfBgSIqs/o077ga16Ne9U2yTAjs+wg8ytbK3mzJlTod3XEDpKUygUHjx0sOfAnrNWzZizYna/If227dwWG1v5ObtmZmarF65p4dc67kKSuOw5Fk0/0eyIkC51pCaiZSuXcb5qgoFfHjmsa0IiEA4GDkydgQHOKtuzfDM7KKkSbI738PBQQZ//165a60XzjTymM+CrqRca+TduMazZqo0rMzN1VKq6HZlMnjRqctL9tOSHOvGctwWv/N383Zu6nr96PiMjAxCDYRmZGpV7CYBqB6iyRDAhAWmUgfrsX5SAzo/5vygACJhZS1cuLbFnBk/1d+/u7NrJqVafoIZD67Sa2rjjilYN+tYKCPBgOBjtOrZz7PSxh44e+vDhg0Ag+DFRjQZ/Q0dbGlmxLQQJMemvTn14sv116suMb+5eAt2R6STYVol4ypza29QbXkvCkU4cPRHgvytpddOrV68mTJvwseR97amB/iO9vUe6+YxxSyUnrtu1Zvuu7Wz256C9LvtRg0f1bd0/8UKq4PPzOer68OKwxm0bG/vQl65Ykv3lt4/JwR/6MVHQWAEZ0qjgE5MMqAZwuTuxvEbBkiUlJZUXPn/MmTnH3yYw+3nZXv8ypAJRXEo926FepxpdAtduWlNpPN3d3R2SQalvM9lpJWWNyrMnOQ87d+1s08xy3ZZ1wCgGWOA6gCTl9wjgDDAgKfBKzS4HUNSnf00C8L824QrzvXPvNq2GgWWQubqGRqRZGliZUyw8jD1DrOp3r9dzTJ+xk6ZNXLRzQYvBTfINcvZe2T1k9JCFyxZevXo1JSVF3arqee/evccOGO1W4qD0xIlqKktsBBERCY+3v3yx/132pzzNGZJfZ5jzIc+EaNqmTZuvk1WsVSlNEINesWbFnjO7zNuaODS3xZPLV50ECsG6pmXgaN9oceSshbMiIiIqtgeYnl17Du8xMuVSBr9Q56fjac6jdi3bebZ0B/amZoUL6NEJOCXliK6lCUNymQJNo4bJZApGu8pNlM4uOichqSmB3jQuMct9o32LmVwpv5xyrk+Lfha1zQ8eOyCVavcnqZsYGRmZWZoLHKUfz0WhH7IEtc9yH7dt3hbniazfsh5oRmCWwp9HxxOXb49XQohK+QNqfdJL4N+TAJvNvnjtkl0da83U+TJ+kaiQKS5O5iQBTxcwPu5l3X6V//xF3lMlTdG6WevlC1es37uuXvc68byYNTtXjxo/8uDBg8D8rHhvanhigPbt248fPM4hwxLOVSImMOKFF9eHiqmcD8+i7q58/PZYWH5koVyiq1tQLBQyZdKDtHHDx6FwVQVx69ev792nd2hYqFQkS7qZkvI4XcyRoFsDr6pfKy/jJoYrN618+vQpukoDt2/bftyA8RlXc3j55XpEXXUz41rnJl28m3pevX5VvcJV4zW5XC6XYZQmAuHx5VpbQwYAmVgCsREAaJMMYpfqGIbqKgqFMm/mPEIGKf9joRoDcrFCDNbpo3uMllqJN23fBDCYZGVlCRnAXFvxx3ORmB22H4rede7cWWDOWbNxDVihQ59HwRFpgj+fURim+qJeAn+7BEAsd8asGVYh5kRqlZ5kS+OmPs55cCLh8I30ywq6oleX3ts2bp+2bCrdm3bj5fXe/Xtt3LLx2bNnmC3SlUqxZcuWHZt2sCkyhz8/p4dY4ZT+eFEIlIdjvX8R9WjDi7e7w7Jf5vIKdPQS4Jb2NJ2Opzdp0gTA35twEydOXLtm7e0rty8dvXxg3aEARo1Ph6JyP+ajGQnlQidfx5pDA/ac2n3n3h10lQZu0aLFuMHj069m81B6U66UXUm9OLLnqKBu/kAWwKTV0KsBYL0quDI1XJ4rIU2ApRxT9sEwN4eMyiBNRoIIJIKmhAZMTU3nzZovDJcm3E7W4Hky3t2sWxOGTEzhJ85bMFeDVwOOdo6QEEFscSU0wafz0UqFUo0HuRJRgnh6085N0wQpRXkFYCEPkCDllJS/WhKvxAELFGD0SS+Bf00CBw4dSMlNcar33e9iEclFseyoiyln98XsTBOmNgputHLGqlNnT9XrEBKW/n7KvMmLli+6efNmVFTUV0Q6duzYJbMW22dYgGi4lowIgWC9zAvi11Hk0dlJj9MLrjKjdyTmXytmPecUPWOnnslMfZQxf/Z8bZMqQMhnGhyICDdo0EBdtLa2njFqxr4N++FUQuIdHUeDQMY3sDBoMLzu0WtHLl3DvlFT3bxp06bjh05IuZKB1ut8Ge9a+qVR7ca6NHHatHWTjvcXgjy9PBEjXY+QBCFTyGqG6FzEE6m2L6BRCFTK+eKuV1tb2yH9hggTxSWZHE0jpqj4df6LqZOn5spyzpzX2RRlbsKAJCpChSNcpCiJvKATTQIVKZzk1sNbOjS2I6XAEA8RSIUgATxIeDnewMAAAPqkl8AXJKC5475Q/2eiQWT1wbOH1gGWrBR21PW498d7bQTrAAAQAElEQVTDo07EJV1OS7yRAsKq2aG5zCTWN+MzMqU0mhV5POHQ/thdcSUxQa41Zg2fs2PbjhZ9m0Wxwrcf3TZ20pjDhw+HhoZitIdaZnXr1l06b6lNuhnM1Bo66ioIB7QnXBIs5Eh5vbv2HtZtRFv/9h0COk0fPnPD6o2gYTlZ1T40ekrl08Q0cXBw2L1hj59RQOIVHb0pkgsVhrL2Y9uce3D2xIUTmFbqYrOmzcYPmZB8JV1QrA115wvyHmTdndhtsokvfeWalWpKda7a2a4ZixpFghSfd1+qEeocLJ8R3e2yEAkClqy6ttK8WbNmc6bOzbqTh75seYLcOHbskAmDb7y4hraaXR1d8bLyochcoZzsgsgLmAfqkVx+do22gTU6+pI+InCx9grhBJClpWWlY9Aj9RIok0D5V6sM/nuyxMREoMgKYosiwxKSS7KzBYU0hfGMfrPGt5/UL3igp9I3/EzMs71v7q9++vrA+/jbSUCTikrElc1f9aMCbJpH2fd3Rm05HLcvkhnu5+i/cNiSDWs3DJ09WOkgO/f4zNDRQ5auWLpjx46cnBw0k1q1aq1dttYmyxxOU6Dx5bABnOGUf+HKBSKR2LbsLyAgoH79+uW13/9RidJUM5k7bV5D1ybJV9PVRXUuUUiYSFHvST2Bxjl27pgaiclbNm85ut/opCupaOnEsaPDmWHT+s+gOJG2bNuiaSKTSaEKXycl6hQ4DSWRAGxuTakMIMGlX93PBIjAj8mQ7kOy7+RpHJEAmcZNkcDidsPbHD5/6O3b8pOGQSzIAKKAWnWS1ICyWYWfTkUhCtXlVCNBzpVyXOo4NxxRx4xFo0Tj8LFKwiO5h4M7+KUBtfqkl8A/JYHXr1+DKKugrlLkpgCuLcQGx+FxgoKCgEpq167djMkzfH39hA4yXg15gUlpXGF6YmLG831vn295k3w3LetdjkJamY6DoAJh/ou8p4fi9u6I2vyx6L25scXglkO3Lti+/cC2ml1qJDETF69etHDRArB4L/z8qu3AwMDJoyZZssxgls4NW345qDDLmXvq9CmJRFKO+T8+vqg0Ac+xo8bWdaqXcj0DwJokU8oyxekDJvW7/ermifOV25vt2rQf2GUQMFTR52iAYHoOP2fGsFmFyvxDhw6qGcrkcmBCq+HyXATB+Ap6FIKEfCFUqiMOhARxuNqlt7q5DgWkwnXq1KlJQLPIY3Gqwuf/SGa4k41zzb5Bq7euiolVWZQKhQIn1JGG2E2ZyyqOOBkjlygg1J9cKWO4m9UbXMvGjEHJJxjC1CGD9GdfogSkB/8ZCdg72St8cWDNVz5jQ1ggFqBjOL079CKziBAweExgxB4n9lTwa8mLbfmZL3OpmUaRO+NTLmRkvM7m5vLKOeh+8KTcD0WhwO+5OXwd0KHxJXH+Lv5blm5Zun5JYDf/5ylPpi+YNn329Hv37jGZTKCmVy9aZZ9jCXErqgGIZcgpRlgPHz7U7eFHSjpqoiKD8WMmBNvUSrulsycc6M00UUq/SX1uvrh26uKpiq0ApnvnHt1b9Ey4mgJC+6CoTtfSLsmU0unjZkTlRp07dw4gS0pKICn4RCVjuLi4uOKjRE6OThAVRtFBEBHmcbGy1qUoJx85fGSwU828l9pgOqh4k/+yvn8D3x6emw5uTE5OdnFxIeKwYSWptYImocefT0Jrf5lQlvIw/eOeqLpODQ7vPXz31l3wKwcY6pNeAv+aBAgEAnoNB6YvocjOnz8PAHUKqRPiYGCH1WJmsNIZblS/0YVTF6YNnNHIrIngpSRmf1L2vfyiuGL5F/YJFQoLQgvfnEs+tTF8zav8F472jtNHz5i/YZ5VTfMrHy9OmDV+/tJ5QHWMHjTKMdcaElWiNxPIaa/evFIPTJ1XQqSu+GqO+2qtqnLKhCm+JgHp91TngqjKZf9gnZ4rzek2ruu1J1cuXb9UhsNmA3oPaBHcKv5qoqYCaMxLqecYFPNJUyY9fvfo1q1bxiZG2p8pNR0M4Q0IFePsDFMG/NnnCKn/CBDF2IDPx24mgCr7A1azYRG94KPOcUTvCt+0qN/SOJg2b8W8/Px8pUSJbYpAri7u/VsPjNwXl/Umh5vHizgdA+BGtk3PHj07d85cLy8vfQgIKzR9+Z+RAAOET2U6mqeUzpPKtXaQoaFhq/ot4ELsncU1F168cQmPx4O1/NDBw3Zt2r199fZe9frYFTnF7ElKv5yd/DhdwtPywUg0k5f+JOfhsYRDT3Mf1WwYPGHsxBnrptk2troUduHk5RN0gqFpJBUuRiDdbiVUaUxsrBLl/avUxsL0VbH4baUJ2sycNtOZ4Jr1RMf5CixnIU7QeWyns7fP3Lp7E5BVTGOHja3lWOfTce2mAeDrvZN509PUa+i0IReuXyjM1bH+1BykiPTt23JXoxoDcjqdboB6rxnAgCTgCaropDAzMwOSFUfKiuKZoKE6IYjyY/GHBg0a2LexXrZuKSJTYvbPQ3LEhG7ctXPXTas216HVV4biG3s02bN578ihI01MTCAIUvPR53oJ/JsSAHcBRUFGzx0xhd99DEVjenTuYVZiVP7wsaaCBrOhkq1bt2oQIJTaqlWrObPmnjtxrnujnk4il4TDKZk3c8DiXUNTEQBaCKzfb2dcf53/0s7Frv+wfv2W9PFs6ebdwt2abWLwGqbE4OA0JVykhJkIORYuKii8e/duRT7fhamS0gQc582ax+BbZr/WPp4IkEWiQoSsaD2i+eELh588ewwwFdOsSbN9bf1SHmkDSjGsyE/FHxo5N+k4pv3j548IIuwYEDoEdByGFQjUEBUVds+SIJ7uGfeYVuiis7PztInT8x8WYY7nS+EkB9eu4dzFAcIp4SSdRwioENXUxBQwcXd3HzVi1MbVG6dMmGpjYwMw+qSXgF4CQNMZyHWUJvCh8WT8zEytQ8/c3Lx1s9Zwrq7VB0FMC05iunYZqhEmHo/v2LHj8mXLTx053cyrJaPYIvFoWl5ogVysc29q6NWAWCGKL4l9V/A6nh2D94bsGlm3mt60/dIWNer51vT19qE7e5EdDIXkli1aAubqJj+cYxXWlxgB58W8WfOJWZS8MO3jiYA4V5BDM6U3GFx3+8Ht7z+8B5iKacmspUYck8zX2gX+vaw7qZyU3rX7NB/elMQjQLqbEASwqLS0FMOHQqHgxFprmognGpKoCOE7lCZg6OfnN2fK3OSL6VwdxzMCZuHq5+LewsVYaIjL0y43TCVG9vb2oKE+6SWgl0BFCdja2uKE2rtSTSCkiWN033/Tp2tvUxZdXavJgU2aK8x//eaNBoMBSCTSgAED1q1av2jqYotim+g9idl38zEWD6YJuiiSi3AEnH0DG5cmTr5dvcgmZFMDs7Vr16JpfgyuqtIE3IGtN3/mfMEncWGcdoUL8MC/4ObkWmdg8KqNK2/fvg0wmEQkEpfOXkbIJud+yldXgXXx5dRzBcKCiR0n+9X0pqTrDEOCkxazitWUmpzBYBAg7eOVMoWMSCApCIqqW5pqVrVr1547bV7y+XT0DnxQxZVynBo7hAwNtlOa05NJcAkCrHoyh/ibgzxgZPqkl0B1lQDQCWYmZhBTx4pkktgfIz6hhwyirEE+gXCeDhkgyKUXXr15FQBfT56ensuWLTu6/2j3kJ64CHLCkdTs17lijq6p9VUWxQmsjGfZS+cv/SpVVSu12kprX325LfhhmTdjfvbtPPRjNoA8viQuyKeGaZDxmSuns7O1FiWoUiew3J4/dQH/g6gwplwbypQyEAgDAaVlc5fbWlkQ0lD9k6G8onL1qm4OcjqdDum6nMl4khz/3UoTsAJOzBkTZiafyQCBHVBEJyNbet0RNT0DnBnpVHI8LOaKgLJGE+hhvQR+TAKo7/ePMaimrXy9fWHdB6ERU1xYxAd0vAUMfVjvodQ8EgDQCbHApRWlRUREoJFfgoEGaNu27YbVGxZPWxJi3CDtTHb8ueS8iAKFTGdHYMXmEq4k6nJs1zZdAwICKtb+AEarNOGqtfb29p43Y17W7TwhS4RuEc2K7DWwl3EIbc3mNRUX14DSwcFh0ezF0mglO7186S2SCy8kn7E0sFw4e4GpjK79IZJC+QVYpUmj0ZQgUAMYlSUinkgmkiWw9HstzbLWUKNGjWZOmpl+PrsoSms1y0QyYAu/3ReW+iCjlnudg/sPgvi+mv7vzf/We7naXbEq3l/VbtzfGlDdoBACT6tGVOQESEZThobqhIPAis3d3h0EZFQEqP98o+JLlyvffoOi0gGB4Tli2IhTh05P7j3VhuMQti0y9lJiQUyRUq7UoftcSHmabko2mz59+mfE//upO9uqcatbt+7wPsPSb2WjN/QjEJLAjm3UvJHCUbJoxaJKj3gCsx3Zb2TOvXzNc40glHQn81ZNqzqjpg83yCDAZdvXEQbM41dyGrMB1UBzWIZMIcPj8BKFVCTS0d1Vm4GKCtibq5auNskxTz+Tnf00L/lK2ovNbxMupzT3afHg5sN169b5+/ur6P6I/x9XfX/rvfxHXLa/YZCeHp7GUqy/skjGjI7TefUWmOqIPsPIBQQAoJPYQh6fnlBcXL4ARVd9HYZhGCiiRTMXnT1yblyHCYxCq7BtUUmX0nI/5guY5c9wAxsz83FO9tu8hXMWfp3bd9X+iNIEHbRv16Ft3XYptzIArElSpbRYVFSzTbDYWrh20xoNHg3UqVNnYLeBGXe0S/goZvj7wrd9avTvNq4jJRMHgRAZCeZwKlGahoaG6BU6AYdX4BVyOWgA/dgfUOLLlyyfOnx6F7/ume9yGgY2unrh6syZM4ET9scY/rZWetX320T/r3fs6OjIoJtBIh05KJ3hB8+wz940adTEnmYHs7G/8EITyfv3lceQdZh+oQDUQpMmTZbNXXb2yNkxnccFwsGCx5KoHQlhGyPzLzIdZS6+7r41a9b8QusfQf+g0gRdDR001NfCP/Whjt7ky3hg0e3T2iMLyZy/aD4gq5i6dO5a36thyu10TdXD7PvxJbHj2k4Kqu9PTIZAvAeBEUGF0/DBCl3jPQHLcxyMg2BIJNG9XBqmVQaAp6NDhw5nz5xduWKlsbFxldvpCfUS+GslwGQyVU/rVWF+BALB3dEdLlXq0FJhHl4QHh6ug4Sgob0Gwzm6lBBUSGHefngHQ/kDRSqV2rBhw3Fjxm/fuOPU4VOnj545uPfQokWL9u3d9wPcvtIE95W6b1bNnjIbyYCz35cfK6mmF8qFckTh2tYxX5l75pzO8WtqApBPHDvRCrGNPK85fg25knqhSFgwZ8RcS5opLgchGhArOkYRBQJ/PlsILM+ViBIoTdU5SYDj/52sra3/bx56BpVIQI/6syRw/vz54aOHTZ03Zfy0cSMnjNy5ZyfGO1lxOm2btCGXYtfdxVT2s1fPMMSd2nWygi1g3WfDETM4m50T+4V3kWE4VLEIFotAh6qJwUJeDfys/P9Smng8fs2ytaUf8xX2UgAAEABJREFUeKlPtGYjGJlcqQqnuXRwuP3y5rNnzwCmYho9eDSeRdAEhQAB0JtGJKNpM6ZQswlikajik5QWVpaIEQwoQQKWplypgHCQVPbFZ60AmT7pJaCXQFUkwOfze/ToMXzM8BcZz+z6WvmO8wiY7O3U1zaeEH3gyr4R44Zfvny5oh2j5gwWvwYcCuaZRcQS9/TlM0WFYx4D3P2gLKW6oSbPpRfevFP5U4UamuoD/F9KE0zDxsZmYI9B7EgO+vFEgAeJQCHYt7PZeWBnQkICKGKSm5vb9HHTcx7mySXlOwaAS/R88ulGrk16jusm5AkrnoVOJpA0pwMQ8QRgbAJLs+JVwXSkL+oloJfA1yWQm5vbf3B/loBFrU22bWlpYEJR0+MNcY617L36utv3sH6U/GDc5HGXLl2sGHo1NDR0cnTEPmBOgmRGioovyJk1ZZaR0FDNX5MjdriwxE9vKzw8rSGoVsD/qzTBZDp37ty4VpPCd8XoYDrAg2RkQ7dra7Vt19aMjAxQxKSQkLodmnRKvAW8mOU1JRL2ldSLI9uM8Wvmc/Ea9nx4EpGoUZpWRlYiqQjCwSASVN5Y//FvSkA/6/9PAu/evRs+YTjOEmo4PcS2phWGmQJRyJRSQ3OqbwevwFE+j5MeDR0xpOLysWfHHrgK7+sCMfQP4WEYhhYWFn6evho/m6Y2i5j3KVJnS7ymqroBP0FpginNnDGzbb32ybd0FukAD5KVn4XQWHDh8gUAV0wgmiTJkkdd0B52mc5NfZB1Z964eQl5cU+fPkE3QZ9D7GhqzxaorpJcKkfT6GG9BPQSqLoE1m9YP3P+TJIpwciWXpzAAu4yRIlUbC5XyrlSDtmIVKdbTb9BXqfunli8fHFcnPa2bVC3AY2HfeOL0h336t0rsPDHMAx0CzDIwW50l1krbz24XcXoE4bhf1z8OUoTDHr44OFept6pT7QP6gOkOnl1d0tkxl+/cV1dxOTe7j45UXn8Iu3rfxNK4qLYkeOnjd9+YDvaRAUuVI3fxJRqggCzkwCRSWQMw19YrOTr9At707PWS+CXSuDM2TNXrl2BbXGFppyCaFYNWk0kHBe2IyruRiIrhV2xa7FCnC/Mc3Zz6Ta+C8+pZN32tcuWLVP7x8zMzFxdXGHMqRx4SG6uvHgRu2QcOnSoidIIkuj2QIT45qIHDx/oYqtj6acpTTC5WZNnUwoMgMQBjEk2LS1PXz6F/mnSELi5uolp8rCzOo9SRTA/ikjCLqM7rdq0CkHKdRUOjwN6Ut2QiFf9UuERvAEF+/umJvgleXkU6pfw1jOtrhL4O8c1f+H8Q9ePSFvgBH4KuQVCIhH79xiwZc3Wk3tPDmo4RBqujDwSl/spv+Lkc/hZiSUJfdv16zizHduweM782YmJqsOKavvWhnTD4qBtMYGdlp0GAHSiUCid2nbCxZcHMzRVfAvx9Qc3/p+d1xpWvxT4mUoTyGJo32GCZDEnG7s1HbiWrVtY7Dqws+Lxl+ZmDMQYKiEKwi9Go6caVhRq7WZlX8dm5bqVanwJqwTmlStQPE41cjqOBpzQ6lp9rpeAXgJVlMDTp08/ZH0q8RVC1M+GAAwrlUrQnE6nt2/bYdf63csmLbcusYs+lJAfiT30VqwQPcl5iMPBw4YNo9UyWLJq8Z07d/r06G3MMwQc0AmxwUUmRDGZ2oeV1bWN6je0xJmrYW1uCLNxpWBsWky1hFSq5ycOrG7dujMnzMx8kFsxKAScm2Jz4d5DezHdAU8lAcIr3OGc7ML0V5no2vDij94NvIrhwsPHDgO8sbkJ8vkac8U8gDGFjRkMBgD0SS8BvQSqIoG8vLyUlJQLVy+yrbgQem8lHhKLdc4N8vX1XTJ36cSBkwyzjSKPxxYnsjD8k0oTn+U+7tWqT795fS49u7B+03pnJ2e4QKV5tZQ4iEkuDQvDhoMCAgJq+gVrj5uAIBJBtXYsMmbf/MKJ5lqevxv6yUoTTKdx48YdGnRMv5cFYExya+cclvb+/v37aDyBQMBBqmFIXJXxL1Mw1yaVk+zZyv1VzIsbN27whfwyQlXr8OxI8EEVUezs7ACgT3oJ/LkS+G9Gfvjw4eHjhs1eMWvZjiWpeUm0VCItmaRSW6pN1ZCSgKBfiKYZErid1y/bMHXgdF6YMPJcTE6YzjHkIrnoRvoVc1PzuQvmKRykrHwm1q0JQWJz6bmblcSB+3btY8yiaTqSlr0kQ3XIJj+/opLVkFUHQKWtfvo4hg4eaia1yHqj83oMdS8OLWwOnN6vdoKoMXjwB+FVMBUWOSs+no0UFAtUxc//XKjUvaPLuQdnE+MTIGI5Np9TAMkhBUvm5eVVjtJ/6CWgl8AXJLB119anCY/NW5v4jvLwGeLRdF7DlrMaBzfz9aDZ08LwpBRYLBez2ZUEf9T8GtZreHjrkdoOdXNe5qe/xNpDL/KeRrMiloxa1n1SZyMpFZehY2wCPZhRmBEdHa1mpckDAwM9rNxgZrnDDeBNqKpXyGRT869e//Yhm4D+d6VfojTBZObPms+PEjGTsZeBZkWza2m9ZvNqzVoAWJrIZ7khDFjgLPtwMkKz4x2wUiU64tjOliMrIZcSIPUV4SG+HPdOHTqZmqpeR6Gi0f/rJaCXQAUJsFiseUvnhTM/+vT1MHHSHq1AIBOs/Cxq9gnquKBNSEgQxFecu3Q2E/WaigqcoDlT5xzbcdxSbB15Mpabp/KPaWgSS+LPJZ/qVKfr/mP7a1r6EcMQ9Ou2uFbCK7cr0YMDuw8wZmvdoCKpyJJuIbNUxqcnADeChnl1A36V0jQ3N581cXbmvRxxqY6jBMwfXCqKH2nV+lUABgkoTVitB0EBghBbXImR4P2BT0rFZ1Vahqdb02oODXJ2sKU+hch3lcQnilr2NQYMGFBWqc/0EtBLoBIJgCXd7MWz2GbFXp3cKqmGILlSriDKvRp4jFk3HO8Nz1g4/eiJIxWf+dG0BSGENfPXjug0Kvl8eupjnSdWWGLmgdjdXAXn4KrDMydNMYjCQfzyWxjc1G/D3lbcPNO0aVNzpZmGTCKX0MiqBTvXRPC2Gj8d9KuUJpBycHDwgO4DU+/pxHYAHiTHhnYFuNx9B1Snj4ArJNd9ZZLCERYVSFJOZQiKhYBYnYriiqOvxOV+KLCxtO3bo++jh49mTJ+hrtLnegnoJfA/9q4BMI6mDe+eGds2m6S2bdu2baepbZtfbTNp09i2fTnvP5dLL3d7af8ynHZubuadd/TM5rnxKiNw9erVqTOnZpVkZoRlhtyIANORsosmccoF/PzYwpjWHVuPXDnsdfKL8TPGKZ/5kY/SuUPn9cs2mGIWYZeicJNpDxPvXoo617tVn7N7T1llGZef/EGRHGL+B98P8olI3f2696VlkaVuYHMFXFW6Si6r4MEzhZUPEFRzzD8kTVDJ/r37e5h4xT3BT4KAIJN2hr6xH2/cuKGhoSEmioGkwogQY1PjYT2GJ15OTbubnfY4q/g1N+hsmIeu1/nj569euDpnzhwVFZUKfeiCCEAElBA4dvwYW5Wdwc1NKs3UFxq6oh5pN7Miz8UmfUrBdVOkUUNzg2I5MaNHj+k4vt3hWwfXbVmbllbJPk2pMlhbX7V41fB2I4NPRIIEpUKpHV0QeTT0IFuFffbAmSH2/Uhlf/1CG+TmvVtCpdtv27dtLxmhfyOA1II0Ew1jTAXN5uYEBwdLE6xp9r8lTVDbmVNmqhao42AFciKFqN9O5/qzq+8+vBOXz1MCscSQCwjOtk4dO3Y8sPvgsI7D+zcZOKzDiGePni9fvtwIvhtSghD8QAT+DwKfPn1iabMT1dMFrihCQZs1ajZ50uQTB08uHL/YXuz8euvHqCexvCL8DWEcYcnr1BeoGrJ42aJS3ZJpc6c+fPSjHl/nzp33+ewjx9AirsfwCnmyMuXz8o6HHY7ID10wccGifnOo4ShCQvPohc+eKRyMBvpgHq+JVxM07RtrAlHZmD6LmVtjXzZDAIX8p4ZMJi+YtZAfJEr7qvDuX5ApXZ1m0EH38YeHBC4KvDJjyjV0c3UDXjab3aRJk9atW9emN0+AckMDEahWBHg83u4je2LJiZhp2R84hsjulHR0dJw1fVb39t3DvkQ/3/E2XmkpHBQ8qTjxSfLDUb3HTFo94ezD01u2bykoKEBAQGXG2Nh4j8/e7g16hJyKzAjNkqkIxYLb8TcvR53r0qbr5nnrGYGEEhHnUmV7j3p17qlRUDFwDEoNsdAyL9Hk+QX68fl4WpelX42OMkz/cf56enorFq7MeJ2TGYY/GKBiwLYfZGOgp8MMI5HTUIKvkBFOtlAxa9as2T8uFEweIlBnEXj79m0WmiO2+PbXjSListM+sgo72juSSZRiV0Hg18hnO95khGTKgqSOUmHp1egLZCZ589otxeoFw8cM+/zlszSoUntg/0FrF67jfxEFnQ+VV4gqiDwQtFvdUHWP9042lx6TFKv87kk3Nzd9hh5agMkioqATRUb4LOGXLzXx3qNvsMrK+28c5ubmaxevw+LRvPh8XA4sHWbDMe5mFoa0KAI9n2JLslyycAmdXoUnynEFgl6IQC1HICg0KIsqt9uPiJRwFPY+29raslEWQkf5tlieHufTncDPFwNlrzuU1f59+ptHiffmDJk3ZtnojXvXn714Vhak7AB92N1b93gYNww9E1mcUZEdT8S9E38rRhy5f+9ebWON7fu2K8ft06U3NbtiOSglXzKXmknP9fvsp6xc7ZIqIk1QT3t7+xGdR8VeS8oIyQJemcmOzHl/0C/1c0aHFp3+u/bf8ePH1dTUZKHQARGACPwqAvEpCQgT9Na+xSMjWXkKf3QmJiYkAREpu1UR00R57lhCYdrL3e/ACvu3OOXfqSUpYHbSwcJhq4/3p/gPy9ctU36lQrkqglAolAVzFozuPjbsTHSa4on1yPyIx+n3Fy6fr2bN3rBzfaniS2RbtmipVsCSXcdTtoauylMXvvv0TpZ4zXFUHWmCOnt5ea1bvo4QTI68GZMVnp3wNsn/TNDX88G2mnZnDp1ZsWw5WEkHatDUeASwGl/Cel3AYk4xJv+XTUHTMiR9N3lQbK1t5N/VIzYjFDsKIx7EhF+L5ikuEIGu4rWYSwklcVvme5t6mazYukL5jWnyKXfo0GHb+m2ln/lfTgfKy0sExY+S7ncY2IGnzpk0e1JE2d1IUgWwHOTm7CZ/97sqXQWhIDyyoNL3PkhjVZctD21VlAH04bdt8hnWcqRumqFmvi4vUXjQ55DPFh9DeIS8KuD/W3nI9WL+VpIwnb+HAO4iYYyGpGfibyqyNLIkJyq2IxstYXI1eFohpyKiHsXgigOG6jdir4zoMGrqrMl7ju++/+AeTkHea2VldWj3YWIe+dOJL7xihcWcwGx/Ey9jy05mS9YvfvDggSxWjw7dWfkMmZdMlNwmUkArludWWWj1OqqaNEFtSSRSx44dlyxYumnVpts3/tRsuR8AABAASURBVAPTK0AIDUQAIvC3ECCRSYjcHh6EgWZnZ8vupZXm0qxZMy0m/nI2gTEmQsQTBk9Ek0lxz/HHUuIKY46GHtDS0N6/Y39mcebxk8elSVVqgz/zRbMX5SUXvjv8KT+xQF4ng5PONKc3G9fo7OPTO/aUT3E2adKExaEjHEyqWVBayKQyc8l5YRFhUsmf238rhWogzb9VdJgORAAiUCkCbBYbLZuvLA9FESKbhBvnuri4kEoJiEIvEMFU0OS05MaNG+/13mdJtA0+H87JKUXk/hXw8k+GHfmY8X5U/9Gt2rbatsMb0LFcuILTw8NDV0Mvj1ny6YJ/sm+qfBgY8nNZpV4j3ENKAifNmAjKhqJo82bNZfd3ZBfnsKksTIMQFgVJUx456IYIQAT+AQLa6loIv7zLJk2eTxcoL+B4NvBEs+V7pBJdkSoWFhbGZDKXzF0yuO3QoJNhYbcjJQFynzdpL0+EHVbXUZswceL23T6+vr5ygQpOa2NLpBgr1OcFv4iIehyrEIYgxcJi247W7MaM1d6rrly90rVtF1JexYxBEa8YISKFRYVZWQqrWLhEqt4Le5pVjznMESLwbxEwMTBBFO/JySUUxMXj33tobWJFzZBMHcqXBoy779+/L5X06t5rxtiZxCxynNIeeLCqfiB4d0hR4LLly/97/N+5c+ekUXD2lAlTVIVsRI9Q7CSMjkzwvxAk4JTd3/lNjy/mq9uqWg02exh0/+ylM5R8knRNH4SX8EqATaJRSkokDuCuIea7pFlDyle/i6HQWajfUMDa/wICerp6DCFNPgLGQgLD8TdaduvWjSVkyDb6SPX5plhKVsVQGiyF7960R6dIL/IOfmkI6D9PfnIp+uz0WdOSCxK9t3vL7nsEQVJjbGxsoKkv2bhOREqshUklGe+O+OYnKb0OR51m3sO41LyYDiYy48lIacWTX5RdQKFILnWXJlgTbEiaNaEVvlcG9HsBUA4R+AECAoFAna1wzyzGQqNjo3FR2Gy2nY09mlPBUBIFJprHyUtOTpa4yz6qqqobV25qaNA46FRYbmxemazCSuOknok83ndoX31H3YXLFsTF4fuzHVt0QL5NAvBNsGz1oo9nvsS/KbvGoyIZicvAXa/pTC8bezPtGJZ6CI0VRqY+EnNKOAxGxaq6RK+6P5A0q7sFYP4Qgb+NAFgZ5ycpLOAgZERIEymfSuzSqhMpD08CxYSSy5fxL6iYNnF6C/tW0VfjEz9U8Km04DwR73L0eRNn464juhy4uP/Tp09SudRu3qS5rqBimR7TIxQZ80J8o/3PBpVkV9z9KFWmsCiWbcxazW3q3tuZTWCAFa3lS5arqalJQ2uIjcer6ooFc4IIQAT+DQKga6aupi4/yAX5FJCKlNeC9PX1tcUKfVKgmUPMT83Eb4YH8mlTpx3YeVC/yDj0QmRRWjGQyJvXqS9SKUmturbccXz75SsVnGthYaFGUZPfSI/oEkodRSl5Wb77/JM+psgnInWDxEOuhbuZuD+6/ahjx45SYc2xIWnWnLaAJYEI/DUELEzNUcXlk1I2753fe1wG7u7uumxdNF9hhC7WJyRmJSrffQniGhgYrF6yemTn0ZEXY2Oe4UfiYKj+VeDXbkLrp8GPNnlv4vHKL4tr2aQFkquQBUiKaynSVtelRDNiLiXmxFSM+rMicgKOh8wZM3fjuo0oWhNnqCBpguaDBiJQ1xBgU9jERAWewjQIXwP8cVvcQbU7teqIZCluPKIj+Vjh58/fvdaoU4dOh3cdoaezQi5HcAvLmREkJTUZWJpLf6dUatLU2VOlFwk3b9hMhVPxLiCpGgLWyVHh/Dnzx/QcSwlmBB0I/7j/s+8e/5Tb6d7rtnXq1KlcreZ91WHSrHlgwxJBBKoKATCqVVdcC5KQFE1869YtXBFMjU11RRVzjtLQHHHuxSsXpe5KbS0trX3b9/dq1CfkdER2ZA5OJ5+XZ97SVLeN5qZdG69evers7EwuKr8fRF6TxCbn5OS0aNFi87rNOzfsWjtzvfdynysXr9bw+3Mhaco3InRDBOoIAvb29qjC2UVJvXKZBRwOfu2lcePGGhR1NEWhsym2IIZGh/3fDZKD+g1aOXtV7svC2Mf4M5elQg7bkmk71PJx8IOVa1aaGBtLNh5JSlHxQUmobAivp6fn5uZmbW2N1Ph/kDRrfBPBAtZLBPbu3Tt/2bxVG1f67Pa5cet6SEgI7iLhH6PCYDBMTUxwk5V8VeFb37fKETu36UTMVpw9JCF8LdHbt5Uo46IDptu1ZbdankbMtXhugcJQXYyJiWyCRU9TxFKUkpSCKr4PXZIOD2OxWBJHrfpA0vz95oIxIQL/AgEwD9h3SJ9nEU+4FiXFVvkJKtH3o+9uOLJu6Nghew/sDQgI+MlMbc1t0DiF/iOmiialJyufFm/WpJkWCb+GXqBafP/pg5/JS01NzWfr9p6N+kSciclUejuDUCxUdWT1XdzTzcGBGUSS3f+GJolzErNtbGx+JosapQNJs0Y1ByxMvUYgPT193YZ1MxZNV3NX8Rjlqu+qq2GhruukY9rKyHWkk+sEx1hq5Pbj22Yvmq38hjJl4Nq2bMui4pdfOHTexYv4yUoLCwttljaSrsiwmmhUYnR8fLxyypVKevfuvXL+Ku4nQcLzJJwCV8TNImd4DWrQZ2Q3F7aNygeyegCVEUEUi8R+fjXxbnZc+XFeSJo4QKAXIlANCGRmZp4+c3r4uBGP3j5y6GNr2dYMVwihWCCmivTcdBqO91Brzj71+MSkWRN//HZyMK1JLiTiTknmsvILSpQmOxGkZcMW1NKKF05Ic89XK3r/Hr9LSRpUqQ0WcHZu3WWOWYecjMyJkXvfRpl2Djebq82x7m3edmFzDT31Bu4e169eb9q0aVlgbbIgadbg1oJFqx8IFBQUrN645vB/R4UkgUMXG1Ujle/VWyAWgIVpFWNmm5EtjTvpn7x/fO7iub7fuWSIRqOZW1qginswMS3Cu4/vBAKFWzNAdl06d9EoUgUOmVGhsUs0uLcf35FJfsZBp9OXLFwyc/iswjecyNuxuFlOkAKviP/1TLCXcaPdPrtr44QmqAIkTQACNBCB6kTg7Lmzn0O+8NK4fJIg5H3k64MfXqx7G3sjIdk3lVugeFtRWTFLhaUpJclqxmqdx3ege1L2nNm1YeuGSsfRzTyaIGkKg26EhPC0hFeuXClLqcIyNDR0tHJA5TZsWutYIUw0h5v745dbVCQh5wIr8kf3HOvq1O3znoCUt+n8b5e3F6QU+R3+2r/lwEXzF8mp1zInJM1a1mCwuHUMgYyMjAfPHopQobAdqdQDK3ESlRgLGjdsOqnXVDuxY9iJ6IjrMcobIQEIBbz8mIJoBxf7XrN6pLAT5i6fc/rcKbFYgSLtre1VxPjl6VxqwaegSmYS7cxtWal0kLLU5HLy7HRtstXyX719LZX8qj1owOCDuw81VG2ScC41+FDkiy1vA46FLJy0aNiwYb+aVI3Sh6RZo5qjigsDs6t+BMLCwgi6JFFrMkL9VhgMUWGrNGzYcNa02VfPXhvXaQISRAJdtvSgzG8aFd/xhbGxhTG9u/XusaDr85inU2ZPll9aadSoEZVLRhTH4pg+ITQ2VLlnOmLECLaIKbvLPS47vrF5Q7EO+vTVU6FQ/iL4itz/r8vExGT06NEnj5zq1qabkZrJw/8etm7d+v/GquEKkDRreAPB4tVxBFJSUvJIiiszKIJiFbVu1arVjk07l89aqZqsEXgsNOUL/ioNvojnm/lRTBaNHjea5cDccWz7wcMHZZvYHR0dla9nz1bJP3PhTEUeZS4KhdKuVVvZliAgU6FLXgkpUBEdP34ceP/EDB86/MSRP03kTwrwF+NC0vyLYMKkIAI/iwDoYF6/fn3AwAEhYSHFghKFaGSUw1G82A1BGjRosH7FhpXTV2vm6ASfDk8Pxvc60zlpb9Jetu/SbtSSEV/y/abOmSLdmm5naosorgWBvDA1xDfAT/kcuqerp3phxTJUHifPUM0gg56dnZcNYkEjRQCSphQHaP8TBGCiyggcPHRw8MhBK31WnH16mmiARmaEM5LI1C8IGiNCijCJPgnhKB12lMgRBHQb1y1ZP2voHEI4OfJ6bHGmItsiyJcs38j88Gljp7oNdD54+cCylctcnFx0UfzRckSdUEAtfvPmjTRZmd2yZUstigZSXFYMBPkY59vWthWmS3jv96GoqEimVs8dkDSr9QEofzirtQww86pCAMwMrt+y/mX0c/NBxm6THT3GuDoPt3ef5NxlVduOY1s5WVmpRlPJQRhSiBUV/4ihwNr0rs27BzUfEn0+IeEV/krgAn7+nfhbTjbOExaNy1RJO3zqEENIk11niX6rbJF6ye1HlWwn6timIyGj/LmMzIx2NXRGAEnoED9+/Pgtan3/BnjUdwiqs/6yR7g6CwHzrgoE0tLSRk0cGckPcxpkx9LFH9Sh6lBcOjsOWtW3U582GhxWdFRUcHDwj4vVtWvXg7sOqmdrBR0LzwrH3zP0MeMd6HLOHTvXoZetkCgghpevqpfTIYJgOoTQ6NBkuddaSLNr26KNenHFCL2QW6hKV03lpj18/FCqAO16T5qyhwg+C7URgVpS5qCgoDFTxrA9GLZdrL5XZJ6Il8vNMXDQm712etepHTfv27h1x5akJPyRRPnompqaWzZuWThhEfezMPK/GG4+Vz40g5N+PfZKU7dmM9dP19fWofmh8os8QDNHlPfs+TPgkDfm5ua6qjpoXvkfxsuoN43NvcRmhIjYSJFIJK9Zb931njT/bV8P++UH69dj/HIWMELVInD69Onpc6aLKaLoV3Gvdrz3O/E14n50RkiWoLSSfTyANwOy/bWttBasm0+3pE5fPO3oqaPKb3mUrwFYIzq442B3l55BR8NjnuCPij9PfpJSmrR5y8bBU/tqFLCJQWLZlCXXSnT/2QP5pKTuXp16IpnlPVNAmtY6lggRQVWJYPFKqlDP7XpPmv+2/X+dkn89xr+tAUz9jxG4dOUSmUrJMinKcSzNtC5OYGfGhiXxgoR+ewJCb0XkxlW86UGWVVxhLJiXdPFw2bF3e3hx6NhpY548fSILrdQxoP/A5fNXmCNWkRdjC1OL5HWSihNvxF71cmq4w2dbq3ZNaAEoChadwM8zCy1AC+X3dUpjtWreSkNuhO6fFAjk+dSC0NBQ4IAGkiZ8BiACP0DgLwRNmTQFMyAgGgSEhCAUBFNByQh56Yxl185cG9J0eOqDzE/H/LPCsxGlf2/SXr7KeLF8/IrRC0Ydv3d0yZolsbGxSloVAk9PzxWLV4zsOjrhWkr8S/y4HnQ5wUTn/CEL1u1ZZaSuS/6CoblYBjPnyXM8Hevq6poYmBCiyzubAhGfTqYXsTifA777AoyKQtQDFyTN6mpk8ENfXVnDfKsUgXef3+exFLavkwQkLS0tKpXavUv3WRNmZ2TmfL4b7HtRXVM0AAAQAElEQVT6a25cPq5kKcVJx8MOWepb7t2wT7eB1vyV885fOo/TwXnbtW13cNch/RLD6CtxubEK3VgwywlSo9Fpx9YdHTy+LyOGhHGwkNjQxMREXCJd23ZByjkTic2Ot9ezwVTRsMjw0lL8BlJcxPrghaRZXa0Mx+HVhXxV5xsUEoSpKfyhEYQok8mUloMB/rEYxc6CRCzD9+rXr5eDi9IU3o5bKiy9GHX2c5bv7B7zVvusep/wdvr8aT9eW1dTU1u7ct2kPlNynhfEPk4QC8XSvKT2y5Rn/8VdH91m7Lodq4zZOonJicrvUGvg2kCVy5LqZxfnGKsbATeJTU5JSQGOem4U2rKeY1GTqw/7pTW5dX5QtoSEBD5JiMjfVClAxHyxLEpubi6RJ/kzxPQJRa6CuOLUtyd8Q/6L4Cq+OuJTxvujoQeM1Uy85/m06N98zY41p86elCVSqaNx4yaHdh5uqNMk5HgEbvifzkk7ErqfzVDZtXanR0+34xePv3jxQj4RCwsLFspEuOXPHYqiIFRME2dm4k8iAXl9M5LWqm91ro31lTyztbHcdbrM5YzywzomJSWVUrkKKgSEyS7vZgK5l5cXQVDRvCIjtNhdGBWT8H67b9yrREwuDzC4PhpyIDIvbFDjITt3bo8uigRdzoiICJDI9wyYAZg0btLiqUtL/QRfTgZi4orkhGLhw8S7HzLeLhq2uPuELsduHtm5d2dxcUUn19baFv228aiIJ5GLyOLCwsLv5VV/5GWkWYFk/an4n9UUIvZn+NWN2BVU9/36JCQnFJMUXwApRihkiiwGGKdTyFTZ3UISORERmiOG+kYuNPfgI+FpgRkSYdmHL+bfjr95I/aKFkNn3ZSNPUZ0X7x+0fWb18sCv2u5ubmBLmcbl7ZfTwQXpigsrMcURJ+JONHIrfHsZbNjRJEz5k3/9OmTNKG2zdogBeUPekGphCsJZAKPx5OG1me7jDR/pvHrM0jKdYeIKWMCJZUhEJsUh1TcUVmmgSFkMrnMVW5paWuhpeX0VC6iowY2RmNHjl05exUrQTX8UnRBsoS2pKGhucGHQ/ZFF0R1cu2yb/++jzHv125aEx0dLQ3F29/80yfOmDJomt/RrymfFe5J4om4d+NvBWR/GT1kdMMhnrtP7lq5cmV2dra9rb2KoLxHHJct2f5JFVEBxX9Lr3Z+K8L8e3UoI83fi1oPY/0NxOshbLWxymKx+MOHD5cuXbp7925ISMhvVyEjKwOhKf7GijEySYE0DfQNEBxpokhESERWVpaDg8PmNVvGdBmXdicr7nGikFe+H76QX3Ap6uz12CuqNNUt87ztGtkuXbv06dOnPy5nu9btJo+cEvIw8su5QNzqUFpJ6oPEuww9+tB5g/mGpZNnTAbVRzkoUvbM55TkojEiLF1oa2v74yxqeqhiU/xeaSFp/gpufwPxX8kP6lYDAl+/fvXesbXXoJ7rD6x9nPLgQfhd78NbZ82f+TMvgFQubn5+PlYxFi8LFyMkEqnMVW6ZGpoiyjt5GCggTalG27Ztj+w92sygReixqNSv6VIhsMNyg/cH7/6Q/nZg28Hbd2975v9k09ZNqampIOh7pkuXLmQxJaU46+3BT3kJChuhQJTk4kT/PD+3ti4d5rXxz/gsKOahESI0G6P4Y+RQZNigYcbGxkCtnhtImvX8AYDVL0cALB9v2Lyh96Deaw+ujqFGuU91bjLDy7yliV4rbesRZpSmhAuPzq1YvfxXjxJKLnkjKf7YYnjStDWzxg/PEYRPEYAxcnnhEIRGo40ZNXbd4vXsRLXwK9GyS+H4It7T5Ed7g3YUiQs3zN/k1NpxxtwZoIMsi4hzsFgsezt7PluUqVrw8cznhHf4PfBAH0x0ZiOZKs0YzWc3cnO2005nEzPQ8WPH9+7dG4QqmXongKRZ75ocVlgZgczMTDCR9/DJg/ziPD4mINNJVLZC/1DNRNWsv1GeSfaaLauvXbumnML3JLrW+gjuj0yMEElEeX0TExOGEDfxiRQTS3Jzc+XVgNvGxmbz2i2DWw0NORGR+KHiUrgCXj4Yqp8MO9LYufGuQzvfBr3Zun1rQQG+IwlSAKZrq86UPCKmSyh2FgZ+jHh76FNJFgfIlQ1bnyXii8g8yvHDxydMmKCsUD8luPasnyDAWtd3BHYf3CO0RYuaiwqaCVKZuV9vhwSeCZVfe5ECZOJmZDvG8p7/nQ1bN+TlKRy2kSoo27H+0YgCQyJoISZSvC4IkCaJr6iEIIVIcU5OjnKCQNKta7fDe46oZWuF34qSzXICeUpJMlggCsz3X7dynYad2pxFsyt9kaS7u7tqSdnGdTrKc8TS+bkv972PehorFohBIvLm67kgQaT4ytkrdnZ28vJ67q5S0sTqOdiw+jUSATBZ+THWt9RcgJR1LjEtlM5k9mnSL+FaSvxbhdGrQCxgq7Ds+1knkuOWrF4SFRX14woJhUIMxRDc6FwVBf/kIxKJRDJClu0klwZhNCQtS2GZWyqX2np6eltWb2lr2yHwZFiW4mWa/lmfj4UeatjQa8KCCT4Ht61es1oaRWaDuIY6hui37USYLZHjIQ6LiHm/zy/Vv3zClFfI+3w8gJJDP3/qPJ2O7wXLkqoaR03LpUpJU/HhqWlQ/IXyYH8hDZhEVSAApibDw8OlOd19ci9HS24kK0IIRcjgwYMP7DpoXGIWfSteUCqQagKbJ+IRUVKjTl5kV2TRioVg1QgIv2f4fD6BqPQnRkC4PC4uirqGGorbAUlFc/P/T2d2zPAxC8cvyvtYmOyrsPhTKuTcjr8ZLQxfuHYBX5W7fN1y+elRkHXrJq2QbLl+JRXhWyFCHkaPY/l6f40+mRBxLG5o2+HnTp8DytDgEFBqUVw49P4KAnX+V+FXwKi5uidOnBg3ftyiFYvmLpjr7e39NeArpiHXdBzMyMgQlF5DQ2Pl0pVt7dtHXorLDMsGEqnhCEvy+fld2nWz6Wexznvt69evpXJlG5AmbvpSokNE+UpbxHV0dBCe4m8uGSksqtibKYlY2adRo0ablmymJNCjH8bhwhOLEu4k3WzUq6GJl9GE6eOfPqu4zah1i9bs4vI9mLJYVH16x9adTh85s3bRujMnzvTv318WBB3yCEDSlEcDuv8ZAoqE8M+y+T8JAxabMWvG8XPH7LpZ2420pLUjpmkmUjRJpC9iNKe8iGAh29jQRJbQiKEjWjq3THqSmhdfcQVRqZATmP21d4u+nqPdDpzZf/fuXZm+vANkJxaVJ1shJyI8Lq5Xiejp6CN4GVJSgn9vWkUici4DA4Odm3a5qLrF/Jcg4FR0ioEKhmDBOQEFOjm95/S89frmJu9N+fn5QA5mUWkiCsLBgFtmxCQxl8tVUVExNjamUMqmKmRhddvxi7WDpPmLgEH130NArif3ewn8eayTJ092H9Ath53ZalFTy45mKvpsphZD00Wj+cxGjXu6s+IpaFzZiJWHmOgr7EacPGnKoqmLo6/EZwRXXFchwoTPU550cuvSekKLa0+urlmzRrmE6urqYqEILwekyePjhIa6BohAgcKAgoqBKmAx4Pi/BkXROdPndnLuHHg8LDcuH6fPF/OTiQl2fa15epzxU8Y9ePAAKJhamKFFCjmSxSTIlQCZ/2sgaf5fiKBCrUfg6PGjXXp2vvLsklU3c8fednR1/MqGnoNO29nNDciapAiMgpHVVNVwdQaj4K3rvAvec76eD5YFiTHx/YQ7XmYN249rk1yUdOvWLVmQ1EEmkwkEAlJGxVKJxEYRlIjKX40BhPraeohCHxHIkNzcnMxfuVVo0IDBS6YtTXuQWenuyzxeLtmeYD/C+qH/w0VLF6qz1BCOJBfZh1JEAn1MmRc6vocA4XsBUP7TCCj8XP90LKhYRQhkZGScPXOWI+Lmk0tCHkd+3PcZd/haWg4yndRkrKepvgEpHcWd2JEq2NjYLJy5kM1TSfFTWNQGvOmi79ZmVMvrj649fvxYqiyzaXSaMhsSSASxWIFKtdS1SGKSLJbUwRFwfzBhKtXB2V5eXj7rt2sX6oVeixDxlTq5CELToRp00hI5CKLiI+jZJDRdjBRjaKqY+YyoRlJ1dHTEJQi9ygj8Omkqp1HfJWh9B6AG118gEGzatqnUXljYjM+xFHKIvDE9x6llaoZfjMa9SEdaCff+TuYeRrfu36p0GybglLVL1pV85cqfZcQQ7FbcNVdD9/Zj2x67ePTt27fSpKQ2S4WFFCnwI5ATyUTcuBv0KGkchQPpQK1UhcdisYDjl4y+vv6G5Rs7unT5cigwJwq/PR4kBUbr6nYqHlNdGvR0tmGZ6KerqcRSQVd3546dIBSa/4sAJM3/CxFUqMUIgCFzSGEE36icttgCZrt27Tau2DSy8+jwc9FpARW3rskqadfFGrUWr9iwIi1NoUcpVTAyMlqzeG3hh5KkjylSidS+GXvVw9yz84SOe4/vkU4aSuV0Kh0l439WURKKe2+EnZ0dg8GQRpHZQpooIjZS5v0lx6gho1bMXJn/tlj5/ZTSdECZ9Jx1rNqYU8mU7h17XLlwRbkAUk1o4xCApIkDBHrrDgJg8frKf1eydb4tjPARGoEKVodBDTu077Bz8y7OF37860TgxRmzFsZCc+7KjSsSEysLNTObOm5aaSA/K7xiHxJI4UbslUa2TVoNbH7kzOHIyHKyY7NVlIfnGAHBHQrS1dUl8FCQiIJhopExkdJ7hhTkP+fx8PDcuXFXA3WvgCOhyqtDYFIpL6Eg4GTImB7j5s+e/3NJQi0JAjWQNCXFgh+IwJ8jEBgYWEgqRujfyIiHaWlqyZI1Nzdft3Rd1OO4iMf4myjJBIpxI0OKM3Ht5jVxcXGyKDJHkyZNFs1anHg3NSdaYfx7PeZSK6/W7Ua13rhtQ0rZ63TU2KqIEBCULKrEwRPw0tPLz95I/AgCenlMGhPhKmhiNDQjIx13oEiq/5M2+IWYPmn63DHz8l4VRvxXcc0HiB72X0T4hajlM1f07N4TeKH5eQQgaf48VjVTU+HPrGYWsbpK5fvFN5NaQWqoENFQ05AvTEZGBpVFiwiMC7odJi8XiPkUAsXM04TuQVm/ZX1MTIx8qNTt4OCwctGqmBsJ8vs3QdD12CttvTrYdLTa7LMZTIzSyDQkD99GfIKARqMBZXljbGyElsgLEISCiMkYKKSi9Jd9jRs3Pr7nRJ8G/bLu5YUfj4m9mhh+LEZfZAz62o0aNfrl5Op9BEiatf0R+NaNqu31+Afl//D5o1ieJMWIGlthL5G2tjaBQuQ7I9GRiZ+vBsoXAayWEFCipYc5qxFto/fGSnnTzc1t2bzlWa/zcO+Q+C/u2oD2A1WcWVu2bXGwsQfLPvIpA3cRoUSZCm0sbMBCNgiVGTKRLKCJUn94P6ZM+f86+vTue3TvsfWLNswZPm/Tss3eG7ytrKz+byyooIxAfSRNZRSgpO4hkJubm5mXhTDlflREGJuhsBhNXz5xAQAAEABJREFUIpGk7xoTORMSk9I+X1bgTa6oFEUJlh4W7Eb0zds2VzpOb9iw4fj+E2JvJXCyOTIMBWLBf3HXh/UaxtPivP/wXkWskClQ44l5MfH43quOug6VTwahMsOkMotJJdJhvkz4hw5TU1MnJyewnPWH6dTn6JA063Pr1+W6gzUcIUMoX0MiRmTQFFaoiUSibL+kyJGQmJb+RZE3iwVFgHStPa2YXrQtPlsq5a8WLVqMHTg++lY8r4gvy44r4j5MvNd3UN8kbgKaix+eI5oEybuDZNplDkdHR5ZQoXgaDHUuhR+bEFsWDq2aggAkzZrSErAcfxeBtLS0QqLCHCGFQAb/5HMpKioikogyicgeTUxP978YJJMARyG/EEMw+0a2NFcS6G/KXkEBgmSmS+cu/TsMDLsUyS+p4E2OsOR9+pu2I1sT6SiaLJYpAwfGQJOSkoBD3hgaGhJLFf4eNZnqCAONgaQpD1MNcCs0Ug0oT50oAqxEDUAgLileQFXoaZJRMhiPyxcNzGkKuQo6Qjs0KTk9+Er5rXFS5QJePoIhrs1dUBvRpm93XkiDZPaAvgPae3aMv1dxmzoIAuP0ZG6i1yh3tQImmi3X36QiXBGvsFDhEiMWi6WprYV8u+YSRNdma2NUNL8oH7ihqTkI1A3SlHscaw60Nakk9RCg5Ixk3GsgiSjgTJJ8swC/dE5TXsg3FJfEcWPuxMsLs7lZwNuwrRfPiAN4U/LmH+BXNJPGTzJjWIBxuqIYoevQWgxsQosgoPkV7SCmipVXeDRU1FG5LqkWUxOhIzk5Obid8Lj0obeKEagbpAnmnaoYt1qWXW0ECHTEBAKlSyx+GnieiIcoLKsgKIZJrs+QSwGQJiKuILLyEDUCiUhyUHOKvqfAm6klKRQCpVHHhoWaeavWreJwKlZ+yiMiyJpVa5y0XfxPVlzqIQ1SM2V3Gd+eHkGUrY+XUnjKM6QWJhaI3HVt2mwtSXQqmpeXJ3HAT81AoG6QZs3AsupKUcdzOnv+7OBRg0ZOGjF89PD1G9Y/f/78NyqckpSCUXDxUBxpAi9LHb+0jRARESaaMmGqNd0m9mGCfBJRBZE6DN1GXbyKtPPXbFhdUNmby+bNnOdi5Br7RCEiR8jRtdFpN6SVhDfzJZ3JAk6hcr1szKzlSVPS00QQEVkESVO+FardDUmz2psAFqACgYSEhEUrFj2LeGwxxMRrnpvzbNs8i8zLTy/NWTAHdxFGRZzvuEqKShDFQ98Yhu9Ugp5maX4pIiExhVRQGiE3N3fpgmXGiGncM4WTlJ8zPzloODXo5Fagnbty/YrsbIWTlNJUls5fqlmiE/dKIWJWaaa1u6WNrTktUbL0hGmjBCr+rw8sTDGLKza9qzMku0q5BD4kTSmwNcTGN1sNKRYsRj1E4NGjRzMXzCwyyrPsYcbUYgAESASSrYutcR99gpfo+LWjO3ftrHTxGmjiDJ/PF4qEiMIEJhiIi3FqwEumkBER+FYwIrI4OTkZiJYtXK5VrJvwWmGl+3nKk7ZGHezb2HFNOcvWLf369SvQlDckEmnFwhWUFFqi4qUeiUUJfSf0sXOxokSgGANJTFFIFqTQsmVLKpEKHFKDogTAm8VISQ0mTfzvkLTk1Wz/40JB0qzm9q2Z2VdxqUAPy2fXttP3TzqMtjb00JflLsJEoIOmx9AztDG0GGoSS4hevGzxx48fZQrfc0RFRZHoijOaYJyLiWS7MmURCQSC/IhYKucSeCVlr5ogk8nLFizjhQgTP0g4VBoqFAsfJN7taznAuplFHjn3xIXjQqHCEjxQY7PZqxet4Qbzg68rLMQH5QQMHj5QX02LlIFkZmTiyqOnp4crjAZTHTB4Vo5kGQokW/NMjZwt/8eFgqRZ857Delaia9euDR019PmXZ2RdYnFGCb9EgAMgrSRVIJYIdZtoqndk7Tu+98aNGzgdnFdXV1csxncghWIRjqRALAaTgeuQAmEhuTgltfzmN0B/3hu3icMJ4XeiQJDUFPDy36W97ms50HWwY7Fagc8eH6lc3tbR0Zk4fBI3npcbq7CM8zX7y8QZ49R5LL6QHxiocAYJMLiqhpocb2KqdFWEiqRnVXKFnXxe0F2VCEDSrEq0YV6VIGBgZCDkC/NLiuNSUyM+xbze+T7ifnRJlsLatLCMNBkkhoa5hvlQ40v3Lx46fLCStL6JwABZJMQPxgWYQKjUJaTSaCieXREBTxAQEvAtMQTQ39hhY5FkQkZIRY8vuiAqPC8UjNMtOpgFZwSeu3BOpi9zNGvWbOmcZbF3Ezk5pTKhUCwMLQqZMGO8UMyPj4+XyaUOFoOJVlQdVZOQJhoWqnCfiFQT2tWFwG+S5j+eNKguNGC+VYWAXD6Xrl/OMMgraSAs0CvNMi7Oc+PlhOQGnAiJe6WwAA1igDVobZq2mqqa80S7T+kf12xYA8b1QK5swLAaU3yfBNARISKB0h4mKoWCSHqxIFzOqKGYZLWmQtKkSZPlC1bwg0TyF1P6Z30GEwjWaraW3cxuPL1+9erVigjfXF5eXuMHj4+8FSMWVpA4T8RNISeMXTLm5PmTuJs7JCP0b7ugxJhIhcbG6CiFht8H8C15+F0NCPwmaf7jSYNqAAJmWZUIiETlvbuHDx9GF8RiZnLPoQDTUtU9f+SCsdgs8HRoYUqRfMEySzMYZIYKRdWiq0kGM3XF6uVv3ryRV5C6QU9TLFL6ZScinNKKXpxUkwJIU+qSt1EEdErlBcBta2s7btD4pPuppXlc4JWalynPzFUsddV1zTobn7lyJja2knPi3bp097JqFPlI4YaOEmFJgUpuuxGtN2xZL//qCw1VDRmJlwq4NDIdISNwc7sU7Rpiyz2sNaREsBh1F4GgoKApsyZ36tWxW59u8xbOvXz58p37d1LZFe/FBVVHeYimhqaqquqq+avH9ZoQei4y7avCjF52aRaGiXXB6lBzvULV/NPnTiUk4PukYHJQ/lA5IuVPIlrKrRgmg7yAoZCouKt/gRDoc8oWgiRuuQ/oNo7sOyrujsKq96PEe+5aHroW2sYd9Lbv2w4W7uVilDuHDRqW/CEt/KHCbceF/AKSOcGksfHGzRvK9ZCyGz+/rSqV8EoYFDqCIiIwraA0sSCLAh3/FAHpsyOfBSRNeTSg+18hALpgq9avXL59GckVaba4YYuVjcgt0deJL/0D/BG5w4WS7IWYmoqqxIEgHdt13L1lDzdAgNv0UyQoKuQXmrHNLbuaMb3om7ZuTFK8/4JMJov4IsB90nQA70gclfU09bR0lUkToyACkfKgXZJG9+7dW7m0jr+nwJsvU5811G2i76bH1S7euW+nRE/xY2hoyGSxYgITEj+Ury9Jw3O5OSqOTIIhsnnrZqlEUw30NMv/TvM4+SSCZNsUiUhCUTi6kyJU1bYy7pA0q7oN6lt+YM4OkNr0JdMyNFIbTnPXc9ElkiXzhWw9ll5rrbarWhizdcgBmOx8ISJCmAymDCVzc/MdG3cacEzAcopMCBylQk4aJ9VJ01XLRZ3qTtq4dSPuKDeZTFLetS4Q4qnQ2tSKKFL6KyCjxUXFIJdKzcRxEw0JJsGXKvYSgbUd38yPTpou5u1NP8f4XrtxTTmirp4uV1cY/DwsPVihZ51VmmnQVC+LkuGzU7IEL7m8TlweO70wQ4yJESHCYrGJRAlo5QHwq1oRUHpcqrU0tT3z8h5Cba/GXyo/WKUZO35s77697z+5T1Ihcgt4hakKE5QgHyqL0nCou0szO1owWn7vJIaAjhUIkhk2m7162eqGho3DL0TzingyOU/Ei8wLa6TbVMdNi+yMbt/tI//iHTKZjCdNAsLlc2XRpQ5NTU0mQbKRXuottykIp5iDKZ0gKg9FkFHDRrE5KpkhFceBeCJuXEGMMcvEtq/lhdvn/fz8ZMpSh7aWNujSllqK/W8G58QobEICvGnRzjSOG71t1zYKmSLrIMdmx/OFfLQEMzEwliYC7ZqAACTNv9kKyj35v5l6bUsrMzMzKiaKZyUuaiFK1y9Iykn/ci4w4l40v5iPq4p5U5PGgxswIkho2rdeFk4DQSaNn9Sneb/Ii3GFcszLF/M/Z/k21mtm4KHPNeNs2LpBdq5RTUMVKVX8FSvFijj4/qOBgQFFUMnaNJFGLFS8uk2+RObm5nNnzEt+kFaUVpEgWNvJ5+cb6Biadjb03uudlpYmH8XEyARBUUwN5VgIfc/4F6Qo3AuXz8uz6GwWXRJx9c5V5NtjFJQSnJSXbCjSs7S0lE8KuqsXAUia1Yt/Xc796KmjJY4CzJaIEBEBTZSrUZKjVqzO0wg4HZIdlYuruZaNZvOJDTVyWKQ8lCfAs6pUuW+fvlOHTYu6GJcVkSOVAFsoFvhlfvTSbWTS0BCzFG7cukF66JBOZchfswY0EToqW7WXeMs+urq6BHzvUxKAUgjSdCSeyj52dnYzJs1MfpAufyNnEb8QdDlN7UzVvdg+eyXDbVlUHXVtRIABL6aFcqyEvqf8izMV7kgGEw7GHQ1KNApViunSTncJn/Pc7yUpBQULUCAiNDUEAUINKcdfKobkofxLScFk/giBiIiIkPgwzEDhAVNHVPt06Ld02rL4u4nJvqm4DNj6rKbjPXUZmqHhIbggmbdly5ZrlqzNfJKb6l+xpA6mFD+kv22g7WXaxIhvXLrZexOY3zQyMML1NDESUlxc0TGUpgnG/ipsFQS/EwkREcQcjpJUGueb3bp1624tuifeV6hIsaBYLBbZNLPKoWXuPbTnmy6iqaYpmzwV66BFRvxPJ76UyL1ZSKpp09nSuZu9fr666mcK9ZGY8lI8ceQE2NOUglNDbIVnuoaU6Q+K8W1g8wdJwKh/BYHw8PA8RgEuKaqQoqWl1dCj0UGfw8JwLP6Nwj1AQJmqQm041r2EXrT30F7grdQ4OztvXrMZCSEkv1MY//pmfvDUbWTW3CSuMPbA4QOleRw0VXGwT6p8eYfFYCFymzrt9WxBviKyWJlhgRxnhgwe4qDtlPRcoSRgnA6mQ227Wr0Ne7Nx80ZpFMDjpMKKPzeRHlKgV/rp4Bf5Ab5UU89Zx7ShEcLBHG0cr1251qVLF6kc2jUEgYpWrCEFgsWoGwiExYSXUEtxdSEIUFVVyXYiMCj2XrONmsSIeozfDU4gEdyGO/klf/TZpTC8lU/KxMRkw+qN6jlaic8qdvCAheb36W/dtBo0GueZw8rKzssmaEj261REpCAopZKfVX1dfZRbMUZRZ6iDKAKiECxkAcf/NTOmzmBms3E3yHFFpShKAMvi/tFfXr16BRLx8PAgMynAITMifZSEkUNORaYHVayng77nlzOB6S+yVi5YdezwMSMjI5k+dNQQBCBp1pCGqGvFSElPQah4hkJFCJNZvp1ITU1tzdK1ca8SQ+9GKlfeupdFaGEwmKAUiUTKoUACoq9dsdYMtYy9lwi8UoNh4o8Z7x00HC3amQp0ueRMxQIAHxVVvjYEvcYAABAASURBVFzOGKxNy9E7iyopIQ/l/SRpUiiUAX0G8MKF8ovpoDxgslXDQs2ip8mOw9s/f/4MVvNRDJQAhFQYEom8avEqlTj1pCtpGe+zwU/I52OB7ezaXz9/o23bthV60FWTEICkWZNaow6VpaCwACPj64OJMEAxMqmmpiaVTo+JTAy+VbHnURZq0cUkThyzfvM6Hq9im5EsFDhIJNKSBUtA1zLmRgImrugqfsny02Xo2vWw1rfQpQRVyEEUPkmYkVExGQokwKjQ2QS5LUBUkuRGSx7K/0nSBCk0btx4+aLlqY8zlBe4VAzYgDfXe6+r5LXpGKKhruHp6blh7cbxAya21G/jzvDcunzr1CnTQJr/3sAcfhMBSJq/CRyM9mMEJOepFQfHUn0UVehtsVXYPHNxXEJy0I1KLvIxa2+cQk4CvPmDNRkwOm5u3SLycqz8KnZiUQKFSG0wzMXU1JAiR8gcQqn8Xk5pkWxsbBg0utQNbIK0hGQktwC/xA9Cv2dsbW2XL1gRezMhLz4fp6NlqWnazej6k6tCxaOQpDyCk62jVNnT07N///6zZs1ydXWVSqBdYxGApFljm6Z2F0wyrJayj1w9UAQVK14+pK6hhvIQnh2WkJIaeL0S3jRta5TBTFu/ZX1OTsU2I7kkJc6xo8d19uwSeSWWJ7f1vURQTCKQGgxwNTM2pHxLmEvkJaZUDOclkRFES0uLzK8geAKh7OyNAElUPJopVf6BDfhu2bzlsbcS5XeSAn0w2aptryk2EZK4KPJt8hQtwMzyDRs3agwUoPlJBBRGDT8Z5x+oQdL8B6DCJBGEQCAgYAlZEQo+j48bHetq60p5hGsjTkwFvBmqGEPiM21tlEZM3r7HR9J7lQgq+QwdPKxv6/5BJ8PkF6OFYgGTzPTs725hbkQJQSQnbehIVLzCrRkgLUCagLiBo0wDkbwnA3hYKJlSwaRA8DOmYcOGsyfMzn6dV5yB39tk3NDQoYuNaiCVkoKyo2iWqcZj+41u2bLlzyRbS3X+erHRv57ibyUISfO3YIOR/h8CFCoFf4oRQagqNDq9YiAM0jDWN0a+zViW8WZa0I1KeNOqq3k2KxP0N783vwmS6tenX7dW3ePuJ/FLKg6YF/ILNKgaDft6GOnpUgIRjIYmp1S8uALEAobFYpEIJERyt5Dkr5IvKttajyL87+yxB1F+YFq2bAXoO+G/lNJ8Lk7NyNOgwRAXY5IOJYuQHp/WoEEDnAL01goEqoA0a0ifulY0R90pJIPOQCu4q7xeGAHD9RZtTW0QucOOgDcTktOCb8pNQ5ZHRUxaG2Yx09dvXv+D7ZPjx07o27Zv5I0YsaBih2Y6J02brtN8RBNTKwNSMoJRMLHiFAHIgcFgIiXlD2puSS6DQkcIiPLtHkDzZ0y3bt1G9xsbez6pIAF/1p6mSmXQmS6OLocOHdLV1f2Z1KBOTUOgCkhT8utd06oNy/OvEVBXU5ddpivLS4SKcV1FMDRmiBT6nlxbcUJUSsQ9hSt7pSkA3gzPCt3gvUH61jOpEGcP6j+4fYOOYdcUtjElFMWbqZg3GdDQWF8vJTYFN0UAUlBRYcsmYPNLC4kEIoYC0pR0PkHob5iOHTvOmjQr93Fh9ts82Z3tie+TQ05EDmwxePuW7Q4ODr+RLIyigEA1eaqANKupZjDbakWAz+GjuAM5CGBRAa6nqaOjQxXgtyaVWojyQwtjnsYr18BttFOOaubK9Svy8/OVQ6WScSPH2ajbh/+nMHcZmhtso2bXcnhTNXP22nVrpZoyW7J79Nt+0OzisruLUESyliXT+HVHo0aNNq7d6Mx2C9wVFnMh8eP2L0Yc04M7D3bv1v3XE4MxahACkDRrUGPUpaI0bdQEk2wSV6hTKbc0VvGFEIA0CXxUskQjr0hHSShJrVAjTuk1QUDLtKVRoW7eguULEhPx6+AgVGpWL1ttQbeMfhIn9Urtr9mfzdgWYJxeSM6/cPGCVCi1WQwWIiwfntPJdBSR/Bcrvc9SqvzzNqjd2LFjjx06Pm/s/O1rd6xYtFJfX//no0PNmokAJM2a2S61vlR6OnoUIRlXDR5LgKKovBBFUS0dLYRTTljlQSSExCRPGD6RGyJI+lhxULI8FEGsW1oZeOps3L5BedOlTGfZvOXCOHHQVYVlpZDcQHNtc/fBzk8+P7py5YpMOS8zF80qL4OVtkUxrwTMaaqoSU58ynR+26GiouLo6GhlZfXbKcCI1YRA5dlC0qwcl3ouFQqFa9ZI3vWYmZnJ55etJv8iIhoaGkwxAxdJRBUnpeIXr40NjVEcaSIID+VjGOazcTsvRBhyA78uJBDzDTz1G3RxX7F+eXIyPkFpphQKpVub7pkR2fInu0FQWF6ola6tVS+Lex/vyHjTzsEeUylncwM1fTEmRshoQQ7+whEQHRqIACRN+AzgEXjw4EGHLh1fvX01ZvKYBSsWjB0/ZuvWrS9fvgQshlf9vl9TU1O5p4nQ0eQ0PMdZm1khChfyShItJnDAQB6sL48bOh5LRcESikQq98nmZulYa7Xo33zFhuXKL1aTKnp6emJEQtDtsJxohbM9oL9po29t29vyzsf/zl04B5TJlIoNUmwaG0gQMUIikSQO+IEIKCIASVMRj/rtA8w4ZMzQ9XvWE+iYVU8z9zmONhPM7GZYFprl3Xp2Y/6C+UDhJxFig3+MMvaRiwCWpItK8ARpb2VP4uOfwzxBQVJKEojavHnzaeOmFweUZoRkAa+8CckN0rXQ8ezVYNWGldKbhORDgRv0dsHcaJE578v5wIJkhXzD88KMdUzt+9g8+fro5KmT5UcnQRyZEWFsJr78skDoqM8I4B/WP8Ci9kYtn8yqvRX485J/+vRp0ozJK7evSslJtmtv1XZFS5PG5ZeSgWlHugVFs4cquRly4e65rdu2Jv3E+UIWi6XCYKOFitiqoqmpabjxvuRNjQL8QB5RQ5PSy/ukgDdXLliV+TwHN9BGEMQv86OTs5N5Q7Mzl84oz29KSJNIEquhJZaCz2cDijMUbkqPL4zVUdex6239LvqN3yc/sPYDEgRG2qEm8Ym6mjrACw1EAIcAJE0ASPlkFnDVT7N9+/Z5S+b5+/sTSQQDe10iiVicpcAvUljYxizjgfqJjNh5S+f+TJfT0dYRwZEmgpBYZDBPKk1QaoMFZSaZLnXLbIyOJKVKeppSia2t7frlG3LfFqR+TZdKZPabtJedune0bWe9adumggL8LCQJIYKBtlAbKTTk+p725yjelJ7GSWWz2Hb9rASaXHKaZBGfQqKEpkmmULUQDT09PVku0AERkCFAkLmgo34i8PTp04fvH5fSeUJ3NN+yNEaQmvg2JfpKfOClENxUoBQf/Ya6Zv2MDl09sPfQHuWjNVIdqe3u6EYqIUrdMhusBWUoXs5GA/+IdPlzQRJlKloqVDiGCFafNyzfWOTLCbqisCAOlJ8mP2rfsr1pY6PNPpsFAoVzSDQ6XbqXSKiLFOiUfjrlz8mRuzsTQfJ4uShCaDDI1a6RFfMrUZDBexf7AUEQtVK2hYUFcEADEcAhUJtIE1d06P0rCNx+cDvLPF/UlITpEzA1VMgUq9E1rpy4OrHblIK3JeE3o0oUe2cgU1UjFdcxjkEFX6fMmxwVFQUklRpAOiwOvgtZQigNC/t26dC3aBpsdTQD++Yr+yYhxbzi+Pj4Mk+5ZWZmNmP8TEIOWXmcfjf+Vrf2PdhWzGUrl5Vrl30xAGl+27Uu1EfytUp9T/njasQRlgjEAodOth49nPXy1dTCqKwwckpgEphhKEsDWn8NAcU2/mvJVnFCkDSrGPCalV1aWlpkYhSmVjFBgXIRPV3JsLRd63bH9hzv49k//FR06mf8xb1CsdCkrZG6l8r8FfMePXpUaa1MTEyoGAVR6Pkh+WgBbk4TQZAGrg3AMBo45A2HygUL6PIS4Pby8lq7eG3as8ys8LJzO0D0zdyMvdq7e2+CIeq9Y+s3GUKn09FvpAmEQn0M9Dd9j/njbm8TigXA6Dhoewxx0dBQQ1JFDT0burm5gSjQ/EUEKp6zv5holScFSbPKIa8BGQoEAsBHERERX7584bL4CiXiY7paOjJJ395992zbq56mlXQ3TVCqyH8IwrZhNp3U6NqLK3sOVD5UNzc3x60FYYxKLmezNrdi8GmyTKWOYionNAI/EgdBYJy+ZvHa2NuJOTFy960jCGC9O/E3Bw8elMCL27lvB9AEhkFnlF1fBJzlhq8j5hPE/seCM4Izy0VlX0KuMPpJ7Cvv96p89cljp2zbtq1MDC2IAB4BSJpyiNQDZ25u7u7du4aPHr5q68r9J/cdPXG0ID4fjRYhxVh57YWIuqp6ubvsC6xur1+9vo1du4TzqQWx+Gt7hGy+wyDbZCxp7pK5yvslXR1dcWtBoOuZU6ywaxJkAvqebL7SoUsVNCgiGIQqG0dHx9WL1kRdiy1MUSgPGGU/TLwHaheeE7rvyD4QkU6jI6JvVQP+MkMxoPVo34MUTgMpZIZlF6QUBV4Ofbfd15hvfvXsteMHjg8bNqxMEVoQgUoQgKRZCSh1UsThcM5fPDd60qiA0i/2k63sxlvq9FP3XOzSanoTfR1tsj+GhouQUgwRIZXuTxw0aNCMCTMLX3Iy3uXg8CkWFGk3UTdtbjR38Zw3b97Ih3o4NaBxyPIShIkmJSbirinq3LkzykFA1vKaGBtNz0jncrnyQpm7QYMGi2YuDrsUVZReLBMCB+hvgnWhIeOGBCR9mb9wfimnFC3AkyaRSNDV1d2+ecfIDmO0kvQSrqY0NWt+bPfxtSvXamtrg0SggQj8AAFl0sQ/YT+IDINqBQJisfj6jetDxwx9EH7PdbKjRTszMr3irIumsXqbQU37r+9uYWFE9sPQbIxEqgiVryDgqa2btpqKzBNvpHILvl0dXKbBE3E5+kU9ZnU7euXIBbm7MDQ0NNTJamUqFZaYjoC51Ao/gqAoamtri+YrPnsoIqAIk79zShJBkObNm8+bPC/8YjSON0HQ27RXHYa0L2WXZGZmYDT8TBqVQJXWsW3btiuWrrh05tKsqbPgy3IBbtD8DALKpIl/wn4mFajzcwhUg5aPj0+nLh13H9qFaIjJLDKvWIHspAXiiXhEArF9/9YdZrfUUVV/+vzJ917Io6KiMm/OvK4Nu8eeT8yOxHc5U0iJXSd3/pzo673dW9pDBAvo6jQ13LQmh1yampoqzVpmN3FvjOI3WSIl1FLcArpMX+po1bL1nAlzwy/EFKUp9DcxBIssCbfrZU0zpVDTCbhpTaqIwmbD0z5SCP/QVvyd+8PEakl0ZdKsJQWvvJj1sQkrR+Kb9JPvJzKFUmjKTWRkhcfFfbr49dORL2kB+NVwroibw802NjTuNaeb2Fo4Y/6M9+/ff0sD/92rV6+FMxcVv+amvcOnE1US3rx/M55W6ZIVS6R819yrGZKn0C6c0pK79+/iEnV0cGQXMnDCInJwpTqSAAAQAElEQVRJeFQETojztmrVav6U+eHno/OTFA5KArVCfoF1NwvXFo7scDIidycIuZior68PFKD5YwTqYx+rjpFmfWzCHz/3HTt2LDIuxUyJmCbKMRQUmHPJRVTVVI2A46GZofjT3IA3OUJOux5tzHob7Tq988iJI99L3NXVdetGb32OceKdVBFfblMPgoTkBrq0cLZqa7Fk5ZKrV69qqmiqFSt06zBDYokQTGEqpG1paUnmEhFxhVCFxkbYaEhkSIXoOy4wTl88a0n4hSjl3fhCscC4pYFjCxv1cDo7nkr+ilGjibpsXXt7++8kBsUQgf+DQB0jzR/UVqGz8wO9Wh2kXPg7j+8W61YMydF8rHWL1htWbFwyYQkvQBR0JbQ0T2GlpVTIiSmIdrJ37DCt7bukN/OXzlNeE5fmoq6uvmzxspbWrSLPx+G2PQblfDW0Neg5ufuNR9eDQ4LBcFgaRWpjamh0VLRQKJR6pTaNRrO2sUblFm0YFAZYC0pMSPiZG9QbN268bun6xPupaYH4zi9I38jLwH2QM62YRM4hsJNpQwcPIRLxR5WAWq0xGCip5AO+oJEiUJVw1B/SrI+dUH9/fx5dgJClz5XEVhOqONo5Ape7e4O9W/blRRW9O/hJebQeVxgrRAX9R/bjWXDmLJ7z4sULEKVSM2zY8PH9JwDexG17BP1NoSZ/+uLpyZxEQSEPkWdm8NCpoRER+HG3l6sXIkeakp4mipDVqNJhfqW5ywvd3Nw2LtskCBAnvCq/6UMWmvg+2e/oV1tt+23rt/136z9PT09ZUK10SJ5lyadWFv7fFLoq4QDP77+pBEy1BiAQGhqaTVHYFMng00xNTaVFAyvIRJSYb8ENeBIacjscEyv8WmeXZoXlhfTvMsBrrPuxa0dPnDwujaVst27devOazaV+gsTXCmyVWBQfXPp12bLl9s1tqeEIIpd8HrkwMlLh3WcgWVdHFxUuEzikRoWuAhxF3KIvX74Ax88YGxubjSs3WaN2UWfj0oMyQSca/B4EngllJaueO3Zuz67dTZo0odPpP5MU1IEIfA8BSJrfQ6YuyP2CPwvZctOEoE4czMDAAHxLDYVKwZhosbMwOinp3WFf3Bo0T8R9k/aysX2TjlPbvk18s2L18oyMSga/IClbW9ttG3z0SowSHinwZmZpxt2EW0tmLW3dphk9iIBwy4lTwBY9e/McRJQ3gPLIRSSZhEwg0cn0EjUubiAvU6jUoampuWDOgilDppnnWyVdSmfEqXgZN/LZsh3uKKoULij8DQQgaf4GaLUmSnxCPJgWrCguHyETyWD2UCYBpImUHZgRWCHptLy3hz+lKx4uBJrv0l9r0DX7j+qbo525YOmC7/X7VFVV1yxfY8d0DD8TLX/jL1jCvhR1burwaV17d2CEkNCyy+IAUyckJ4DE5Q2LxdLT00O/LbVnl+TY6dnwKYKYhBh5tZ9xN2rUaO6ceaeOntq6fuv8+fN/JgrUgQj8JAKQNH8SqNqnlp2dzRPxkYquG4IIMDsnO/makMkkpKi894cZEEochP63g+Ne4d/y+DX7Sx4vb8yAcVodVH32bbtz5458IvLuubPm2mjZpj7O5MjdwMYRllyOPj+067C+Y3qwk6hoLobQETEVi1V8MyVIx9zQVLY3KI+Tb65pijFQZXoFmtBABKoLAUia1YX8P883JycHEJN8Nigf4ZcoXM/BYDJRSsUcOqaKljiL4p4nRt9VePktSCS2MDosN2Rsh/HmQ4z/e33ryJHDQFipWbFi5YieI+KuJRVnVGw454l4V6Mv9Wjeq/fI7vRwIuDNUgZP+Vq5pp5NSaXlz2R2cY6JhjHCQNPT8RcPV5ovFEIEqgaB8ge0ajKDuVQlAoWFhSXFFbQlyZqPaWloSRzfPgw6A1HYZIkgFISuymTlq0ZciRFyFXYFJRUn+GZ+HOE5xnqweWB2wOp1q2JiKh84d+rUecKQibHXkjPDKraCCsT8G7FXOnl16je9JyOMmMfNDwnD78E0NDRUFUnWf6QF1GJpIgQEpREyMxVuJJKGQhsiUC0IEKolV5jpjxHIyMh4+/ZtmNJlvT+OhQstKCgQqiuuAvERHGkymUxEWD48l0VHmYTRw0d3cusScTFWfpQNFFJLUl6nPu9nOci8i3EMN3rT9k0PHz4EcmXTpk2bkf1GZr7KLZA7qCMUC27EXm3t0XbA7D70TPLzl/i1ILBcQ/zW0wRpUklUYIMROu6sOhD+VYNH4K8mDhOrawhA0qxZLVpSUnLi5ImBQwf6nPX22eezc+fOVKVj2j9Z4vz8fB5BoKBcigh5CpKSghI0E08ZPDIfzIcOGzJsZPdR4Rej8xMVzoRncNIfJ97vbznYc6A7X7f0wt3znz59Usjlm6dbt24zxsyMuZ4gvy4EAu8n3PZybth9eOdCTuGzZ8+ARGbU1dUZZDrybQpBIJKUVkgT/eDaDlncn3RUplYxQVFZKJQpI4B/ZpQ16rAEkuYvN+4/el4wDDtz5szAEQOexj1quayJxzhX89GGCeTYzds2f28U/OOiZ+RkgrG2vA6JQtTV1ZWXONg7KCyvl4UVYEWANIGzc+fO8ybOj/8vOdkvFXhlJpubdSf+Vj/LQQ37eGo0Vdm4a8Obt69lofKOpk2bzp08L/Z6YpriaffnyU8atWzUd0GvHQd3vHv3Tj6KkZEhWlyOcUZRJpPC4JH4eXl58jrQXd0I1OufGUiav/z4/Yvn5ezZs937d78TeMt1gqN9DxuaimRYCkqm1UgddRC9/PgCdBuB95cMWJtG5W6pAHFJRBKKKhRfS11TeXguIAvSMtKAPjBNmzQdN3h85tvc9CCFWcU8Xu712MudjLvZOdvZ9LfwOeTz/IVCnxHElZpmzZoN7zs843U2rr/5Pv2NrbVN20kt957c8+hRxRjfwswSKSknzdiseC2WFpfIK8ZNzkqThjZEoDoQgKRZHajL5RkdHd2qdaujF45oeag79bNnauNv+tFx0/qc7bt1+1Y+/9uoVS76D5wsVRampkCRRJRIICi0uJa6FspTSkOIJKYmyaSgv7l55ea8t0Wp/gqr2EX8wuuxlzx1GjrYOdgMsNhzas+OnTtkseQdvXv3mT1hjt/RgAK5+U2g8DnL19jMuPEIr3N3z125cgVIgLE0tpCRZnJ+Cp1ME6FiHk+5lEC3RhpYqLqOgMKfUF2vbE2s37sP7zl0XqE1Lz425f1hv9zYSsahBk1181Vytm33/qUKSCcEFaIIMFyXjUajkVG5o+ll2pg2IT1DgR+tra03rNggCBCn+maUqZRbQrHwfsIdQ5axq62rcVuDV19fvnz1sjxM8Qv0N53tXd4d9cXxZkReGEOT3mR4w4f+9/cf2A8i2drYUvnlRUrNTyOTyGQCqXbfrwFqBU0dQgCSZjU35nu/d8IGKKZDKLTgpavmfTrjnxWBv9wXFNGwtV6SOHHL1i3A/ZNGJMJtJkIIFCLu8l11dXWSkIhPkIzwhPgRsamp6drl68gxVNxBSRD3U8Z7GpHeuFEjmz4W2w/7vHuvMEcJFKSmQ5sOpXT+2xO+yitLXDKn8RCv4PyAZSuXAR6XFQnMaRaWFqmI2WpqatJEoA0RqHYEIGlWZxMIhcKs7GyEWT6IBl28Elvh54sBlfKmUUe98KzQq1fLh7H/t9wFBQUI/lpeDBcLcChRVMkzgJGRr1+/4pT19PR2btvlqu4eeTG2NK9UPjQsL0QgFrjYu9r0sdi0c0OlhTQ3NaORaKXmwncn/ZI+pchHLxGWZPDSHbvb5+tkL1qxSFxcsVMqITeRlU+ztLSU16/fblj7akagkj+Yai5Rnc4+MTExODg4GxBlWTVJJJJQpLCBHNNAAW/6nwnKqqy/adLd8NaTWx8+fCiL/X8sJouJqJbTcbkqnjMRQJqoQFGnTJWDlWZlVexLL5OVW9OmTB/QelDUhfjcGIWZhKTiRDDL6eLkquOlferSqdDQ0PII375AXhQBGdMlcNUEAbdDcVfJAa18Xp5ZM1OTHgZqeixmKImSipJCMOpdsRZZs0mTJkABGojAv0ZA6U+kkgwhaVYCyr8QAbqcuWDGxIUTfE54z5g3Y//+/dINmBQqRbYtUZov4E2qKj37ZV5mOH6cTmGSddtr7j6wKyVFoacmjYizMQT/AIh4ogLQ/ZTTYzAYYL5QSREpFhT/YJdP9+7dF05blHwnPeVL+SK7NMkcbnZ2aVbL7s0te5kuWbMYx5smJiYoHwV5ie2IPBfM92ZA7OsEaUSZzRfxVcxYTac39OzsbCDWJCeh7du0379PMtcp04EOiMC/Q6CSHoRSZpA0lSD5B4JzF89NmDmeb17aYn5jqyFmTjNsIsShS1ct/fLli4qKCsJXYjdVrJVX69QnGbgDOaBo6mZqGk1Udx/YDdy/alAagcViycciEAhinhhRelIwNqqjoyOviXN7eHhs2+hDjKAkvVLYwskRlqRz0lw9XM17GC9ZvRh0q+UjqqiyEZ6kspgqynXBQj5EhvyHu4pYEsovEaT4p4uz0T079qxfv14+BeiuAgRgFj9GAJLmj/H5w1AsMDBwzKTRt7/cbDjD3bihoSw5ncaaGu1V1m5eQ8QIKFcmLnfkoQWgDzhm0Oi4e4m4u4GBhr6nbi4968DhA8D9A1NcWIyU3cMm0wF9T7FYLPNKHbqGuvJv5pEKBWKB8jqSNEhmGxsbb13vbcg1TnigcIcmWFIHvOncwNm8l8ny9cv8/f1lUawcrdFsCS1KJDSU54rEBiYFngrly10jAuYl3mz/YE62vHX5FqBmiSb8QARqEgKQNP9ha0ydOm3S5EkJaQl0bTqJKn9HmyRTTUt168HmcYmxaDqeyBAW+vHLp65durVxaxt1O1airfgx62T8Jvj19859S3VV1FQQFYU+pJgjylC6RZgkJiHf7gaWRpTYKAoWqSSOH37odPqKpSudNdxibiSIBBWL9WJMDHjTysXSorfJ+u3r3r17K00GKxUjFKmz3CY4UDRF2qGHopOfpWeFZwecDfU/GThlxNStm7eWa8AviEANQwCS5j9sEEsrS4ItJc+ZGxYS8+mUf0FyIZVIk89PzUTVdaQjI5dS0f8qCwaj18QkyXzfhDETLRjWgRfwiypAy7SL4eEzh39wqQeRQESwb906EAEYOgpWY8C3vAFr4qjCSnhZIAkpLlG8IalMXKk1Y+qMVnZtYq8lCkolR8VlOgW8fANbA6u+ZrtP7n7w4AGQq6mqIQoqCAOlOzo67vTe2cGqk36WSb8m/c+dON+/f3+gDE2dRaCWVwyS5r9qwJKSkre+79hu6ggT5dlgadTcD0c+8zMF1mq28lmqmao2HOPOjCbJbiyXhJIQjInGlt3RO3X8VE2RFu7sNtBhajMMO+iBRSGQEfAqGzBfiSh2YXkYn0jE78oU8YRoiqIeSAuQJqcYfP+kGTVilBnLPO5KUmmuAgHzRFwVY7Z5b+Mz6qPdVwAAEABJREFU90+dPHuSxWThbqLTFKoZGBgYGhr27dt30ZxFgwYNMjIy+slMoRpEoFoQgKT5r2CX7CsiIyJU1NDMA+SBGRCKDfiPdz4LDA700mkEJDKjYaneYIALM4Yku0QdBHFoXOk9Hdra2vNmzE99klmgeAYR6Og6amGmotXrVgO3slHmR4wjxh31AbGaN24OZgOA45sp65wSkLx8hR1F30K/+7169ZrBXYbGX0spTC3CKbF0mKC/+Szsse+XT4j8WdAUkThJ4ObmhtOHXohATUYAkua/ah2wkIIS0OziHBsda2kemDmBQCSFXIh4+uFJC4PWNCJdKge2jr2WS2d7CW9+m17MIeaFRoSBIGAsLS3nTZ+X+jCTX6I4uEUQ41YG+eTcCxcuADWckZBmGQFWyBkoC6xfV/glLg0NDQZWURJEupROQvlCeXpDfuZfly5dJg6blHA1FbeFE8SlMCm2faxYTjS1PLpKLJUUh9BeIIxA0tgRY83NzYECNBCBv4fAv00Jkua/wpdGo0nXRghoBcgEbVL/nv2TH6Vfu3+1nXEHTZqWLHuDBvr2Ta2YseXrRRgZee/3XhbarFmz3h36xFyNl0lkDqPO+vfe3sVdTAlCiSgRNzwHfMgX4KlQTU2NKlZcnZFERkpKOeD7V03Lli0Xzl5Y+l6Q7q9wK5I0HdOmxi1mN3FpZqcjUNNgqp04dgLwrDQI2hCB2oJAxd9zbSlxbSknICNMIJkrRNGKJex8SiGGYOOHTYh/lHT53eV2Rh116LqyGpk1NzG1NqJGlOlrE4qExfHx8bLQ/v36t3RtHX8nWSaROkhUomFn3X3H9oWEhEglUrsgJ19hnhRB0EIsKjIKUfxXdvy8nKkrQohIaanC7GRF0P9zNWjQYOr4aYx4duKDFLFQgoBCDAxL9k210LS8e+OejY2NQhD0QARqAwKQNP9VKzEYDH19A4SDcQUV+zBFqtinr75t2rRZPHtx1M2YS1/OdTPrrUXXlhXCoZuNmZkhKU4yri5gFgcGBsqCgGPi+In2ag7KV2aw9VhGnfUOnz4kf8O5qakZpl7GvyBmmcG0UFVN1TJnhUUgEKhEfE8TIyJ/chubk5PTlg1bQbey5A0/X24qtiit2PfI11Z2rff47KkoAXRBBGoVAgQEqVXlrVWFtbWyQfOx2Ow4ZwNHacExNTQ2LhZ04po0aTp+0ISw69FXQy/0txysQqngMvuO1hp8NljR5rC4rz/gb0SfO3ueEWKS+AJ/jBLMigoteeu3rpedGaeQyQgmzfabTUHzC/K/ecq/jY2NufmleE0iwuVWcH256i9+jRo1qpNH59IXgvT/crI+5cQ8j4+8FTN71JzZM+f8YkpVq44DrWozry251WeQYE/zHz6lDAqDwaeFZ0SOajJMlg1RgxQRITk72KlTp16tevle+nI7/mZfy4FkAlmqQ6KSGgx0YadKLm9Pzk7NycmRymX2onmLVfPUA5U2bxo00ENtxRu9NxYVSdavSQQSojiBiZGRAsWz59I0WSpshK/4V0BE+TzFyFLVX7RBn3rHth1DOg9trNHck9low7xNHTt2/MU0qlxdoXde5bnXkgzrM0iQNP/hQ9q7d296HqWIW2yibizLJpuUJyVNIBk4YFBz+5Z399x7nfq8h3lfIJEali6zwQBndgo1j5uHu/YCKFCp1Cnjp2pjukmKF6yBIKNG+lyDklXrVgHeVGGroATFZ5uCFhdVsvtSRYWNv7+dgDBU8HfIg/R/w5DJ5KZNmw4ePHjq1Kn29va/kQKMAhGoUQhUBWnWqApXZWF0dXVVmapICRaaHm6kZiDNupTJ8/3qJ3UDe9K4SZ6WjR5feRqRF9rasB2QSI2WjaZTW9uSwqLXb/EjdKBgbm6+fOFycSgh1T8DeOWNUXP9PFaO905vFotFw6jyQQgZQcmoSOlyYrBmheBeJ4Ei+dn4gbxCUtADEaivCEDS/Lct7+LkAqY1A5ODrHTKr9HFVNHQiFA+v2Lwu3DOQl2+wZ0bd7K5WQ4azrICgeG2fTubZ2+fFVf2WjE9Pb0Vi1aU+HHTAvCbe6y6mqVTku8/uUcRkWWpSR2lpVzlE0QMBhMRKQ7PgU+xkyqNDu1fRADg+IsxoHqNRwCS5r9tolZeLclFxC9JX2Vb3BECImZhr169kmWMouiiOYtyPhVcOX2NiBKMWaayINMmRqatDKfPmy4Q4Le1Ax2whrNy0crctwXpwXjeNG1nXKxZhGQr3HAMoqBghK5EwUw6A8FtDcIQUCqgD82fIQB/ef4Mv38cG/ut9OsEaf5Wzasmkp2dnUopKz4nUV9VT5ZjDrMgoew+DplEVVV17PCxCW+Tnrx8DFaEVKkVr8SxaG3GYRav3rSq0uVsCwuLNUvWZD7PyQjNkqUmdVh1MtO21qQGSX3lNkZCwHRnuefbF51Kx5MmguDnQxH4DyJQ1xD4vd+0f0Oav0fgda1FJPUB05oabA0wrVlQWiDxl32E6uKX7yt6mmUypEePHjo6en6XAz/5fSSiRDKhYu+k61DHTHra8rXL5bdhSmMB29raes2StSmP0zPDsoFX3rgOdjSzNKKGVzwbGBn/QkqgT6VQ8VuOMIRA+NGzAVsY4AZN/UTgR38YCoj80l9JxR+pQhr10+Ph4o6miRNyk1hUVjkCLDSXkxcfH1/u/fbVqV0HrrrQ99zXmPAYgbhi0hOEm7UxSUNSfHZvU96BBEJBf3b90g1JD1KVedO5t72JoT45HGhJjJAgUp4hpVNp+J4mhhAJ+PuQJPG/fWALf0MCftc7BH6aNOv1X8kfPRau9q5MEeN97Edb3fKbO0ByRSxOQEAAcMibpl5N2Xwmx1rofzMYDLdVKWpUIlWm4NDXhmvCOXzmcHp6ukwoc9jb229YviHxYWqm0jjdtZ+jqYE+pSw3AUGgPDwnkynKpEkiKp2tlGVW5xy/1CWoc7WHFfo1BH6aNH8tWahdgUDLli2peaT0/Aw27VtPE0GKWCWvP76pUCpzOTk5qRBZmAqaz+QE3wlPSUoxY5tT5MbpRo31k6hxy9ctT0xMLIuhYNnbO2xavjHpcbryix7d+juZmhvQQgilWRxfX1+FaEhZpxJHG0SETCLj1OqwF63DdYNV+9sIQNL824gqpUen011cXNBscUFpoSwQ00AjYiKSkpJkEqmjsVdjNBsTm6IFOqVgnO4f4++p20ieNw299KluxCVrlkRGRkqjyNt2dvabV2xOe5GVFojfv+na39HOzYLIRbW1K466S+OKMRGCow0RxgBL6tJgaEMEIAJyCEDSlAPjnzm7telKziPGZCm87UegJpLezY4giCznlg1bMLIlQ3KxAZqrWux3/uuTL0/aGHWQ500Ddz3NFipL1ixWHuCDdGxsbLas3JrzNj/1SxrwyhurNuauPRxefnrx/n3FpXNAgcfn40lTgGioqoMgaCACEAEcApA0cYD8E6+7uzurkFHIlRwJl2WQRcn1/YwfKTdu3NhYwwgpkWhhxoQctMjvypdnkY97mPchEyrGy7pOOibdDVduWvHu/TuJquLHwsJiy6qtRf6lyucsDRvoazZW33l4x717d2WROKUcRHHVhymi62jpyBSgAyIAEZAhAElTBsU/dGhoaFiYW6A5ChOHYk307ad3uHfqkslkBzN7NFssLY3IBs1hFL848fpJ1KOe5hWH00GolrWGzSALn8PbHj6SvLMMSOSNiYnJ1lXeqW8y49/iZwCMGxpYDTK98vyyz65tHI7kpuH8onyEJB8b0UY19fQqNpYqhEEPRKB+IwBJs4rav3mDpmisSCEzCsIjC3A3BwMFD5cGrNKKyzJEJkgWufDeoYfPYh53M+uJyA2k1YxVbQdanrh54vLVy4jSP8B6Dd0bhr+Kin4aiyiGMrQYVoPMwgWh46ePe/nyheR1QGSFSU16CdXMzEwxEvRBBCACEgQgaUpQ+Lefsv5lx3Yd1UkV53ykOeaxCoKDg6VumQ0mJdmiCtIEcqGENwvu7nn4MeF9W6P2QCIzTG2G7SCLOx/+O3LsiEwoc7BZ7BJtQVhAbPDtbxs1ZWEIYtba2LCb7uH/DoVGBCOlcgEcBCsQ28MbieQggU6IgAwBSJoyKMod2dnZp8+eXrtl7eFjhz59+lQu/ZOvsj6cvr6+ka4hml/GoN9S46H85x9efPOVf1tZWbEpbISjoAl4M7+4+PGRZyGpQS0N2pSrln1J3lk2yPJD4rutPltxR9TJJApCQHgOWExc0oeTn4Vc/FF0NVNVhyE21t0sTIjaql8oqtE0mh9KfS7u1bWniopKWfLQgghABBQQgKSpAEdeXt7wMcNeZjzLN836wvPzOeM9dd4U5XeWKcT5aU+HFu2RrPLJSmkkzIiQkpny9etXqVdmN/GQbDySeaWOUkO+Jknr6YkXYemhHU26IHLjdOC06GESh8UsW7UsI6NisxGJWPZuNQIisENSeNlPdrzOjMAftUQQRNdR22u0u8cgFxaBTuGQWjRrMWjQICD/FQN1IQL1BQFImgotvWXHZqM2BhatTDWtNMCCicsoB3oj8qknJ8ZMHn3q1EkF1V/3WJhYqJaycfEKGMXxCfjzlAa6BupCfEcPU0FLuKX92w58ffKtX7RfD/PeuKSMWuuVGBfMXz5fNuRHCQTZoXLMnFBiKvC7FBBxNaY0n4uLC9bZ/U4EsPgq29Zt897qjaJl3WOckiwtvBz6IQL1CAFImhWNffLMyQRunHlLkwoRgmhYqNv0tWA3YTyPfDZj4XR/f3/50F9yN2nSRJWsght3czR5j54/wqXTslUranHFBqPyUAZayCls3bK1g77Tm5PvXgQ+623Rn4iSykPLvgy89DRbqSzbuOzJsydAgBIR+fORmBaqYqNhgBglXUhPvp2e8TU7Ny4/PSjT78TXpGepsyfMvnj6gpeXF4j4HVMpk35HF4rrGQIK00l1uu6QNMub9+XLlzef3bDvbVNpdwoMYK37mBOcsc2HN27esanS09/lCf3wq2XD5miuwtOFqaGJ2ckJCQny8XR1dNRZ6kgJJi8Ebj5R+Pz58yVLlswYO/PN8Q/XnlzpZd6HJLd/E+ho22nZDbI8dPXA7iO7uHweGLkDocyoYuy2bdse2HNgSLthzphb8OnwsOuRzpqud6/e69Onj0ytBjpgkWo4AlX0i4r/m6gGVCBpSkCPiYkBA3PbPpZEChHHMpLgbx8dey2XcQ4xaNTYqWOu3LjyTfwL33qaeiqCihPo0pjZ9Nz3HxSO6AC5p6sHqrhqBIQ8toBOpwNH48aNvdd7Z/vm79q5u71xJwaJCYQyo2LIdhpm55v68dHzB0SewsOM5YpNTU0ZDEbLli0nTJiwffP2J7efrl27VhYXOiACNRoBhce5ekoKSRPh8Xibt282aqtPYSqNiCtrFLPmxu6TnG/5XR8/a5wy2VUWo0Lm6upKLcLnwtcQPXyJH6GTUTIrX8KP8j3fAph/A+kAABAASURBVKQwNS1Vmhzgvm0btpmrW2zfsl0PNWCRFWZLSVSSXTdr804mehQN9Rg6KQdFRIhaFsvW1FpfX1+aArAdHR2BDQ1EACLw8whA0kTmzJsdERkR+SL29f6Pz73fBF8PB9N8P0aQoUm372PDbkTffnbbgjULwsPDf6wvCwUkpUpTWuFRRbM5OWB+QKYGHH379mWKy3Zryv+00tHYpDgQKjUUCmXRnMUDWg26uOlygl8ijVhGstKwMht0jRtP8nRsbmNB0Fd5Txb4lzx9/PTTX9lHVZZ+nbJgZeoDAn9jdA9JE0lOSubThAWe/AIPfo5jaTQnKfBV+IedfqIwVBf70VFCLRtNt9FOHIPCpduWrNyyIjo6+meeOg8XDzRDYeMRiJVNzcvMVHjPj4GBAZPMQEoVGhljIClpKUBf3vTu0Xvnpl3sDHW/4/55EfnyQcCdG5sHVntyo/Kd7J2WLlz26NGj9u0VtscDHWggAnUTAYW/nrIqyndBygS/YUHSRDp07Mi3+MZiJESogxRa81I0c95d/fBoz3NGJFtPYEAl0r4HroG7nsdkl0x22oKN8wF1hoWFfU9TKgeTlRolqlK3zOapCR68fCjzSh32dvZogWKz09HsrGzcDnagbG5uvmbpmrkj5xMjqQGHQpOfpaV8Tot/k/Rm18eQS5Eeal4Xjl7c57Ova9euTKbC7CeICw1EoM4i8DcoUhkcSJqIqbGphkANBw2mSyg25dtZ2lmr2L0++U7oh+lzDfUYFbOBOH3jhoaeU12zVDNW7lq+cNWCHwyBbW1tyblEXHRMFU3PTU9SvF6TRWKiyd/Y/FsEMpNc6RsvQLiXl9eWNVs3Ld7czaGnboZh6LXIzp5dHlx7MHfuXC0tLaAATbUiADOvIwhUBWkqdpZqHHBubm60DIXdjtIiluhx/dMDS0pKTh461ciqyaerX5KepjVhtrBWtZEqKNtGnvpu4524FiW7Lu0YPXnUtWvXKtExMnJ2dFZeGc9nFd+4cUNev2uXriwmfqkdoaIFBRXvaJPXl7otLS27d+++auWqJ48ez5o1SyqENkQAIvC3EKgK0vw3feS/hQBiYmLSv2d/tcRKxq3JepmX7135+PFjmzZtDu482N69w7WjN1LfZXbS6t5UrwWDVLZQo1QQXUdthyE2+j20L724MGLi8Fu3bwmFCoe+WzZqwc7Dxy1l8aKTYuQT09XVpfIp8hLgFpOwoqIi4Pi/Rro56f+qQQWIQH1D4A+7cVVBmjWwSdLT02/durVnz55Dhw49fPiwUcNGFqgJqrjtXFJsMhKnnbJ97/a0NMkt6M2bNwczg15WDY/uOvrf0dtNVVt1MO6iRq38hnOWLtN1lKNhD93rfleHTxh+9fqV7Ozyc99gDZ2RT5WkL/fBtND45PiMjIqT4zo6OgQ+iigO0MVEcWmp/JVEcknUPecfPt11D5Af1qj6A2tJe/1hN64+kubXr18Hjxh08+u1aLXwaFr47c+3Vm1cqamqqRpCw61Wg6cQ00AT1dJ37NkB3FLTrFmzgzsOdWvR/eC2gyePnrAi2bQ37qRD15WG4my2Psumh4XFQONLzy9OnjX59JnTgK/Buo2dlS3uTmIQkacu/PLlC3DIjI2zLa5IYhRTXgiS6dc1xx8+3XUNjhpfn/rRXvWRNPce2avXQMeqm7mOvZaao4p+R23XWQ6lNoU6ptqsL2TJ2oti546rL/DN/rLv4D75Z7Z9uw4n9p3s1qDnKe8zB/YfVBdotjPq+D3qZGoz3EY52Y+zep/1ZvrC6T57fJysnegF+M5mFi33/acP8rlQMBKqeEcciiIYVkt+0OVrAt0QgbqCQL0jzaMnjhazCp0HOOBaUM9F12W8fePxHqYkXfpnApogRoQVKvlmnDsf7t2+fbtCVObq1qXb2aPn+nr1v3Xg9t49+8i51NaG7ezU8YmX6SI0FapRS33XqfaRhLD/Xtxi5JHRTAV6xjTRsOgwPp8v1Qe2no4+UuEDAoSIEkmkSpatJGHw80ME4E/ND+H5iUCoUoZA/SLNN2/e3Hl126H3d5e/1YxVPEe6tZ7Y2ELNgPGljDrLYAJWuknu4QtHPnxQ6AkCOYFA6Nm955lDZ4e2GPbxP989W/emR2X0Nu/f1qiDBk0TKOAMgUQwaWTYcKa7fU9rE5Eu6zMRjRWXX32EIkKaSH6TvLaGNo40KQgF/MOlCb0/gwD6M0pQByLw/xCoR6SZnJy8ba+3dU8LIpn4Y1iY2kz3Ac6tJjcxZenR/FA0paw/SENTDLMuP7gSGRlZafSunbsd8D64YPii9K+Zi2cseXDnYQvN1iNsxzpqOFeqDxbZvUa5NRvT0MnCUjWCSg1EwcxAPlooT5psFhsRKfSQiuLzU1Lwh4IqTR8KIQIQgX+BQD0izTWb1qAaSHpARtzLhOyo3P+LJlOL4TnEtfkwLyOitmTAniLG1NG3BZ+2+GzJysr6XnQPD491i9ef2H1SmCxet2K9z/5tqnz1KU4zO5t216JpK8di67FsO1p1WNSqSU93KzVjLJN/8vLJ85fOBwYGFhYW0im0igs7uBgtmpifmU8mk5XTgRKIQO1HoHbUoL6Q5qxZs9JSUrnZ/LC8+PC4uM93g55seZXxKkedq2nGNtem63yvudRMVRuNbNB0qIcxWYfuRxCUCsJJsRu2bBAIBN+LAuRaWlobVm+4dPRyN88ewJ48f9KbF2/AIvtIO9DxdAEKykbLRtO1r0OH5a3Nexk/TX7kc9Z74pyJe4/upWeSwUQB+zNJK5JJzSQ0atSoV69eytGhBCIAEagaBOoLae7atWvh3EUkLWrb1m1LDARFDvx8G+7bD5+ub7l1a/vd+C8JTpouwFCI+BVtaTOom6o1HO7eYnRDS3VDLIHvF/ll+87t0qAf2x3bdTy47dCScUuzorIXzFqw+/xOFVRltP0EMOOpQsGfQJcmpWGuZtHK1GaghfMU24Zz3NrMbtp6QpNW05pqmKtTMOqc2XOkatCGCEAEqgWB+kKaAFwWi0VDqPE5CYM9+wMvwkTFbiSegVifbsDMUD27/sLrp28a6zRtY9helYo/ii7RRxAVA7ZbP6d2s5tbNTN99Pbh4NGDP3/+LA36se3u3mD90g071uwyJ1rvWb5v4cb574PeuWk1aGHQ2l7dkU5ifC86iUaiq9MZmoyM4MySCM7eHXstLCy+pwzlEAGIwI8R+Cuh9Yg0zczMhNn8qMwYHbaOvZ6tFL5iU14CJ8nN3m3rcm+DUuPti3deunHRju7QxbQ7GLZLdXA2TY1m3c6i7fIWWi3UvE9umbl4xpu3r3E6lXpNTU2njpt64djFwS2GRT6K2bF659mrZyLTIkzYpo4aLuYqFt+bJciJyUt9mXHswHEbG5tKU4ZCiABEoMoQqEekqaGh0a5lO5UsxtG3J+a1n8mklPfvEnTSDp85UlpaOnfG3H1b9rOy1Hav2Lf35F42qjrAaqiXTiPcS3hkbaPvqus8yp7gjO27vnfsjDF37t/BnTGXaco7aDRaj849Dnof2jRviw3Z4cm2F1cOXX32+mlcYWxWaSaZQCYTJOfNAYGSCJIFH14hL/5O4uola3R1Kz90JJ84dEMEIAL/GoEaS5oK+2z+Fgpt27bVylbj8Ev3vDi4stuS8mQZaIp+1o59OzkcjoGBwYZVG47uOtpEq/nJVad3HtuenJHcyaRrc/1WyveiS6Nr22o6DbHTbKN66d35wWMHHT9zXHpQXRr6A9vW1nb+lPntW3SITU8JeBn2eP3LkJvhaREZfBEPxAIEKhQLSvO5yQ/SR/Yb7enpCYTQQAT+DwL/5O/m/+RZ34J/RJrVisU/2Yns4ODQrU1X9WRWQHJQQk5iX7ee0jqKtLFILHbl6pVSr46OzoQxEw7vOdJYp5n/lcCDhw68CXrtoeMFpiBBB1Cqg7PVTFTtelnbDbd8k/Zy+qJp673X406R4/Rl3obuDakkaqEVr8CVF56T4Hs/4OGa5++8fePPp/ju/Bp/NqVHk169e/eW6UMHROBHCPyTv5sfZfgrYXWE0auXNKsBxH79+hmLDNBo0f5XR1rbtLTUNpe2eqERJyA7+NSZU1IvsLW0tEaOGLl83oqe7n3SH2fvXrn3wn/nVYiqTfSa22s4AQVlQ9egW7Y1azDDOU09aefZ7ROmT7h+/br8xUXKUWxtbRkcmkRORTFjQomdsMReaGlkPXvcnG2rfU4cOdGnTx9JKPxABGo9AjWa0X8e3eolzWoAUVVVdf70eTpFmggXW/7fmoUd5rKoLCle2eaFFx5funfvntQrtXV1dbt27brHZ8+a2WtLvwr2zz18/OjxzLyM9sadAHvSK134RhEDNz3boZYaHdn3Im9PXzR95YaVr1694vEk425psjLb0NCQilDKj1F+k2ppaDo6OlpZWcF97N8ggd8QgZqCQLWSZjWB4OzsPGX4JI1EdiG3yPvxjvU9V6IIKikLEckwzdtzet/79+8lXsUPiHXy4Ek7c/uYoMRzqy8dOnsoNCuohUGrbmY9jVjGirrlPhUDtnl7E7fpDgXG2cceHhk0auCmHRuV34RhaGyIllR0uuk8KiouK095MtX2VVGmaisCzBgiUOMQqI+kCRqhV69ereyaUxKI0VmxtwPvTWk1AQglho5mmOSu997wvfejzZo604RtXKIjCAqMvLz+5u4jex5HPbBUtR5kPcxGzU6SQmUfHQdtmz4WbtOcklkJu67s6DO095ota+49vBcfHy8Wi0FnE+GWRRMipAwECRRERlV+vL1MqeqsGsHcVVddmBNE4KcQqKekCbCZPXW2pcAEzRI/jXghFAlbWDUFQmAwNTTNIHvn/l2VLoKDUXPfLn10SzWFlmixAT8sMubmunv7Duw/+uqQGBO3MmzrqFH5KUmQMplOMnDXcxhk4zzBPlsn/eKncwu3ze81rNf7929VMmhq/lSNQJpKIk1fR+/M6TNAHxqIAESgBiJQt0nzR4CrqKgsnLlAP00L4WGH3xxvad3cRKN8lI0ZEMKI0dt2bONwOMpJDBo0aHj3oeoJLEyfILIlcBpikRkJb05+OrrsxJUnl+OLYhtoe3npNNZl6CnHlUqobIqes45tFyvX0Y6N5rh7TnJtNrlh8ymN9J109dUNrl6u5HVs0ojQhghABKodgfpLmgB6Nze3cQPHakarAPeG+1s72LVlUOjADUyRDieIF/a9A+bDhg5zUXegJJehR0HEpoQSD1GOZvGXG0EPNz69evXqy9BnJJTkouXurOmmx9AHCX7PoASUqkJlaNCTPqaQ0qhnj5/9niaUQwQgAjUBgbI/+5pQkGoqQ9++fbs16qwSJ+HKY+9OmWqYyAqSpZv/MuL13r17ZRJ5x+L5i43y9dB8TCbEjAnFnkIhCTMsMUm8lvb0yIu79+76xn7ki/kmbFNNmha90qX2svjxrxMJieSDuw6W+aAFEYAI1FwE6jtpgpYGljpLAAAQAElEQVSZM3NOIz1PyfXpCBKWHgEkMpNtW/Tw8+NHjx7JJDKHnp7e7CmzTLL0kQralATmGBaGx0Qc23d87oj5TgTX2POJ745+fHnvdWxUbKmQQyKQyARK2VlJMolAlm6VT/ZL0+UabN+0nUYr27ApSQZ+yhBQxLZMBC2IQDUjAElT0gDLFyxzIduj0hvaJYKKT7J+5r4LB3x9fStE31wtWrTo1qwLO5D6TSD5xtTQBELK6Qun3d3dp0+efu7Y+cUTlrbQac35yH+/xc//RHDAjaCIp1Ex7+LiPsR/uu/3Yd9nQZB4ysipampqkvjwI48AKu+p2W6sZhcPlu7vIQBJU4IlWBRau2SNaZ4Bmq307LPQJI30VZtXh4aGSlQVP+PGjnPUs0PTxfJivqn48q2riYmJUiFYcB81bNTezfuunrm2bub6yR2n9bTp21qzfXOV1j2se6+fveHovqOSXUdSbWjXUgRqEb/XUoRrTLEhaZY3hYmJyepFq0zzDdBCPG9immi6cc6GnRvl394jjUYgEGZPna2VrKrwdnIKkq2Tf/LcSamOzAajb2tra9A/7dWr15AhQ4YPH96rZy9XV1eZQiWOKhThq12FWcOsIAK1CAFImhWNBfhr9qiZqtEMhIsnEEyHEEaJXrVldX5+fkWEMpetre2E4eMZMZJr3MoEEgszIXwI+3Ty5EmJ5wefmtQ9qUll+QFkVRSEfwKqKFuYTS1AAJKmQiO1atVq6tDJ6jEsROkNQJLNm0j0io0rFCKUeQb0HeBu4IqmKgzS07VzfAP8ysKhVfsQgD8hta/NqqrEkDTxSAMGbGHTlBWnsLwjVcLMCb7Z/hu8N0q98vb08dO0MtUQOdoEg/rk0tSnT5/Kq9U8NywRRAAi8GsIQNKsBK81q9Y0N21CTqwEHJ6V+IHvwyPHj+Ci2dnZdWvdlZyg0EFJYqc9ePwQpwm9EAGIQK1GoBJeqNX1+VuFnzFpuiPRppLFdAQpdhFcfHr55n83cXmNGjrSS78BklPR28TU0ZTc1ODgYJwm9EIEIAK1FwFImpW3nYGBwawJM3WS1ZECpSUBApJrUXzw3KF3797JR1ZTU+vSsJNqHlNeyNcU1nPSlEcDuiECdQABSJrfbUQ3N7dmzk1009XlZyrLtelopmn+Rp9N9+/fL5eUfXXv3l0P0ZE/W5mCpMfHx5cFQgsiUD8RUOp21HIYIGn+qAFXrFgxoHU/1Zjy91bKq2JqaIZK9s17N3H3sY8bMpaRIXmdpFSZS+Dl5ectW77s8+fPUgm0IQL1DAGFif46UHdImv+nEceNGdfZsT0jTGEbpjSO0BoN4obt2LdT6pXaHTp00BJqIsWY1IuWInQa/f3790VFRVIJtP8yAjA5iEDVIgBJ8//jvXj+4qbGDRkpFf1HWZxSc+HDL48ePHggkwBH3y69ZQcrVeLoofEhTBVG69atQRA0EIF/h0D5D/W/ywCmXIYAJM0yGP6ftXTBUluxJZpWsTIui5FvytlxeKc8b7Zt3VazRB0o0OOIRCGC6mDt23cAXmggAv8Ugbo2DP6LYP3V3xNImj/VMurq6pKbkDAHNFcJfiaapZl//e51Pp8vTSs/P5+tQlf/TDPXM2w4uQGDxGjk0UgaBO1aiAAscu1H4K/+nvx10lTilNoPuLQGFhYW00ZNMUzRVribQ4hIpi/ZaEhm+Ix502cvmdVjQPf1x9ZoOas3mejp0MuWoUnPiylwrTG3ckjrUgPtOvvc1ECsYZH+DIG/Tpp/ldL/rG6/GpvL5UZERGRlZWVmZqalpSUmJsbExISGhvr7+7979+7JkyeJyYkuFs5sPwolEKF9QekfUKYfUTOJaYbpWrmYEBwwkgfiOcvVeZiDaVNjQJegADnRuS4urnS65GZ44IXmewjU4ufme1WC8jqKwF8nzerHKSUlJSgo6PXr1/fu3Tt27ujp06cPHz68d+/enTt3rlu3bnvZv83bNq3dunbWgplL1yydtWDW+CnjB48YPHriqAXLF8xaNmPG8mmz18xatHXhqj0rt57YvO/qnuOPjpz/eOZezO0cgwzXQQ7N+3m1Gdek44LWXVa2bTOrmccwV5tOlkZeBupmaiQaSR6CdL+s5l7N5SXQDRHAIQC9tQuBukOaqampx44dGzdp3OI1i3ef3nX22enrQVc+ZL/7UPomiOwfrRaWoBuTrp+cpBcLTLpBSq5hJsewiO9QwmhNNhio5TjN2nmmXaNF7o4TbV0mOriMt3cabWs/3Mp6kLl5H2Pz7iaWncwsWpsaNzLUc9LRMFdjajPJdAV+VG74rIgcJp/Vtm1b5SAogQhABGopAnWENNevXz9p2qSvpZ+NhujYTbQwG2Ro0s3AvJ2JWTNjQw99PWcdbTstLWsNAzc9LRtNYLRtNLVtNc2am6ibq7F0mVQ2lUD6y1BkBGcl/Jc8a/JsEun/cGstfXRgsSEC9ROBv8wU1QXii/cvrAaY6jXWprAq2U1ZxaUqTC2K/S+REELeuHqTi4tLFecOs6uRCFTrQleNRKT2FqoukOaBAweYRnTQf6zeZihKK457k/B879uP+780NGy803uXvb199RYJ5l5jEIALXTWmKf64IHWBNIPDgnUddf4Yiu8mQCXSVKlqegx9U7a5nbqDg5qTIcGYns/ICc2Lf50Yciv8/RG/R+tevD3vGxAUkatZIrBFxeJKtsF/NwMYABGACNQeBGo9aYpEorDoUDBfKcMccJwGTdOEbeag4eyl07iVYduupj36Ww4eZTduhO0YqZnoOG2264JlnmtwZqH78vHWU/sbDOmm2as1s0NDQlOHUhfdDAM0jJz5NufrtcDrPjePLj3x4ODjqMdxqlkabkyP5LdpqaScwgaCYmeh0BLFNFGODu/p62fwsLmsRaCjriNQv+pX60nzypUrFHUKU5tRksXJDMtO+pgS8iAs4GbwqzNvbh3477TPmX3r9m9avmXB9IVz5sxdMG/BkgVLVyxauXTpknETx/Ue1GvMtDGL1izavn+7905v793eG7dtPHLk8PXLN57ce/r5zefYkDheFl+PpO9p6tWzae9ZI+Yc2Hzo7uV7Fw9fOrDl4Kp5q6dNnL54wWJmIQ2Rv9ADRQhMYkpKCgL/QQQgAnUOgVpPmjfv3GRqMd4e+PT2uK//s5Cv/uFhn6IFSeIBLQetmLxqy0Lv3Wv2Ht5yZNf63fs3Htizft/2NTu2rvKeMWbWkd1Hb1y6dWLfiS2rtsydOnfB7AULZi5YtWjV8vkrlsxeMn/agpkTZk0aMXlw3yEd2nds1KiRo6OjsbGxiooK7hno2qWrtbolmqE4Hicgc+fODQ8PxylDL0TgZxGAS0c/i1RV69Vu0oyNjU1OS85OyU1Xzy905xdZ83kWYp4XEoSG335+Nysry9DQUFtbW01NzdzcHDh0dHR0y/6BRW02m/23JudnjJmumslCvv1D8zAqRhUIBXZ2dt9k8Bsi8IsI/K2n8xezrZnqNapUtZs0z5w5wyvmFTryMQ2FR0xgIn4r/LRp/5bz589XAdzu7u72hrZoVnlnUzNZNSUpqVXrllWQNcwCIgARqGIEajdp5uXlSY4tUhUYU4ogpo4mWmWcfnlu6cplqampUuG/swf1GEjNksxrasQzEL5Qw1C9S6eu/y47mDJEACJQXQjUbtLcuXNn81Yt0YTyLh4eRBKSYZr3LPf1tLnT3rx5gw/9q34zMzMVIV0riKGjpeE+3BnloqD7+VdzqNuJwQm8ut2+Nb52v1LA2k2aoKazJs5wRGzQpO/wJoLwDIQJJunrD2zcuGUj/9uVlyDin5iCgoKIiIgXL14cPnl4wZr5/Ub3nbVhpoG7XoMhLk597Tl5pV4eDQmEWo/tn0D0i3ErGSv8YgpQHSJQRQjU+j9sIyOjdUvWelJcyXHf/cPD1NAM2/y70Y/GTRv/8ePHn4S2tLQ0PT0drIC/f//+7t27h44fXLNl9bR5UweOGjhh9vhNhzeeenXic9FHoTXXYbi110Q3q3bmKgZskDgnjtvEswlwQAMRgAjUPQRqPWmCJgFD40UzFzZUcad+RtFUscQkicGYHY0Xo3FlJlaMJopLEW5oXviyjcvnzp979uzZp2X/nj17BtynLpzcuH3DOu+1S1YvXrZh2ahJI/sO7Tts4tDZq2auO7z2wL29V4Mu+XP98gyz2G3ojhOsXac5WA8xs+pqZtLESMtGk6ZGA8WQGn6JIC8y38bGRuqFNkQAIlDHEPgt0qwxGAQEBOzas2vE+OFLNizJF+aaGhvYqpg6alk4G1m5Wti429g1sLf3cLD3cLL3cLQHbls7c+Om+rkaWXfDbp96dxyYk2+P3Qn5703GyyRGfI5+hsCZK3bjmQwycJ/h6DHLxXmCvcNQa9teVlbtzY0bGmrbabH1WJKlp+8jkPo6vU+Pvrq6ut9XgSEQAYhALUagFpPmxYsXtx/aHkkNtRxl6jrV3n6EtctwB6e+dnbdrW06WYLBskVrU/OWJmYtTMyamwDbvKWJY287ILfuaOHUx862i5XUOPezBwpGngaAE9VNVVm6TJoKlUD+HWQyXmQbYMYjh49E4D+IAESgjiLwO9RQE6D49OnT2TtnLEcYGzTQI9Or/8LKopiSlEuZNjT7ZYuW1QR8YBkgAhCBf4RAzSTN/1/Z+4/vq1mwiWTi/1f9Zxoivig3Ni/7TX7MyURqGHNE35HTp0+nUKr/Qs9/VmOYMEQAIoDUStIUi8XvP723am+h3IAqFFV9poGFipWzplsj3aYtDdr8hmmm3xKY5vqtgA0ScdVyt1Wx18P00XRism9q5MOYiMvRwYciIo/Eq0fptDBptXT2sjWr1zRpAlfMlRsESipDAKtMCGV/A4EqgLZWkuaLFy9oehQyQ3ICR4ozncQwYZuasM3UqeoUAkWECQv5+emcVGAK+AUCsUCqhrOFmLBYUJzNzU4uSgzPCPsc6/si8Nn1F1ev3Lt87srZM6fOnD5w5rTPmTNrz19Yc/njmc+lAXwXivtQzxHzhy/as2nv2RNnly9b3rdvXysrK1zK0AsR+BEC390d96NIMOxnEKgCaGslaV69eUXfTZdfws+OzEn8kBz9JC70dvib8+9enHr15Ojzhwef3t/3+N7eR3d3P7y+479z2y4c3XJ887ytW5Z5b1m1df3iTVs2eG/ZsG3rhm1bVm7btnTHriX79s09fGbdxbuXHj86+iLgSliJL6+FRpuBnkOm9Jq2asaagz6Hrp27fnj3kXXL1k8ZN7VTp04uLi5aWlo/04RQByIAEahjCNQ+0iwpKQmJCM1PLHi+7a3fg6DAoMgo//iSSG6vRn3nDV+wYvKqDXM2ei/etn3Zjp0rd+1atXvnil0+S7evmLVy3cz1XuaNS9I4qdlZqfScFHpOplpBrjmnwJZX0kxc5CnI1i8ubiDM8yoNQ2LuPrmbmprq5eVlaWmprq5ex1odVgciABH4bQRqIvmZ4AAAEABJREFUH2keOHBAwBckFWUUNRIW2wm4pqISV2GEatzeo/vS0tIAx5mYmBgYGOjp6enq6uro6Ojq6urr6zdu3Njd3X3V0pVb12xpZducFktC+BimiSIMFKHh0eObiaJ0Eq88veaz0yc/Px8fDP0QAYhAPUag9pHm46ePhQxRiYFAT61iAzlmQEi3yd19Ya/PDp+srKwfNGjTpk13rN1+cPU+T5KraggdTa780Dqmgaba51wNvzVu2vhXr179IMHKg6AUIgARUEKgClZplPL8+4LaR5pTJk2hqzMBEiKxqKGZB3BIDaaCJlpk3Iq9N2nG5MePH0uF37PBpOTh7YeGthpkwTWhBKNoSuXUyTURxhmmbDq05fDRw99LCsohAn+GQN1gkp/CoApWaX6qHH+mVPtIs0uXLg1NPdFEcVZxdkRGVEf7dvIIFOmXxpmnbj3ns3TNMl9fX/kgZffEiROvHr+8fsxqa44ZGlE5b2JqaLpj3vXPt9asX1tYWKicCJRABP4MgbrBJH+GQa2KXftIk0qlzpg03QmxBbxZUFr4KOxpO9vWbBqrAnY2mm1T+DDyyWrvtSdPnszLy6sIqszVoUOHAz77m2p6sYOpSHrl1JlhnPc84/W8xfOio6MrS6PqZTBHiABEoHoQqH2kCXACSz0blq1vyvaiREt+pZ9GvKAQKVQSFQTJjNiRmOqUc/bzxbGTxm7ZskUoFMqClB0aGhp7t+8Z3WGETpIa4GJlBSAp0C/5TAyavXD2+/fvgRcaiABEoH4iUCtJEzSVsbHx9g0+Xe060YKICA/LKclFUVRPpWJpCOggJCRHvzDeJv159OsJUyY8fPhQIvz+Z+yYsSf3n+ik10YjnIXkV9LlxPQJqVY53vu2/d850+9nAkMgAhCB2o1AbSVNgDqFQlm1cOX0PlPYX6loppgr4KYXZuir6qnSVUBohWGgGea5AZrhe67vnzB94o0bNyqClFz6+vqbVm/q5tbZKF4HTauMN9XQONPUvWf23b9/Xyl2nRLAykAEIAKVIlCLSVNan2EDh+5bv8eJZ8uIISNiJK0gXYyJaWT83kuwtp5imvWZF3js7sn5ixc8f/5cGr1Se+7cuaAb24zSUC2OgSgP65loomnG/nMHYX+zUvSgECJQtxGo9aQJmsfZ2fnY7qOjmw1X96Wj6eIibjHodeKmOIEaMJg5IcUi6xnv9e6ze6fPm/Hff/8BYaXG2tp6j8/uVkbNDaO00DwMr0NHk00z95888OnTJ3wQ9EMEIAJ1GoG6QJqggchk8oSxE/Zs3O2OOdEjSAgX4wl5QF6pwbQJ8ZZp7wp995zZu2btmkp1pMLVq1Yvm7rEOEkXjVcaqjPRBIO0LTu3xsXFSZWh/WsI1BBtpR/EGlIuWIwai0AdIU0pvo6Ojsf2HJ3edbJ6ABMNE0mFZpomUgfOBr3ObLvixzHPRk4dde/ePVyozNukSZNje482ZjeghEhW6mVy4MDU0VStzCMnjgA3NLUVAXyr1tZ6wHJXGQJ1ijSlqA0dNPTE7mNemu7sACqaJY7PSZTKK7HpSImtIKQo3Ofo9nMXzlWiUCbS0tLa77N/WPNBamEMRPGSOa6eMCQj/OnTp2WK0IIIQATqPgJ1kDRBo5mamh7aeXD7Am9XgQMrjPK9U5JAExixPTHXhXPg4ZFRk0fHxsYCSaVm5pSZY7uOlvBmjsJQPYmd9uT5k0qjQGGVIoAfaFdp5jCz+oNA3SRNaft5enqe2Ht8+fAlpvkG9CgSUvr9vyoKUmLDDxKGjZ894dbtW9LoyvaIIcP7Nu+lmaSCFMklVYr5f/UXCBS7oMqRoeRfIwAH2v8aYZh+GQJ1mTTLKoh06tTp6ukrMzpP0QlWRaNFyHfXhxDMgpjnzNl2ccfy9Svi4+Ol0XH2jOkzlk1Zoh2jipSU8yYpASkqKMKp/Za3PMHfigsjQQQgAlWEQN0nTQAkkUgcMmjIhWPnB7n00whgoAkK42ugUGGYaLEj//7XR7OWzv7edqI2bdrMGTtLPYYJ5jfRfIxQgmrqaYLl+4pEftMFe0q/CVx1RYP51k8E6gVpSptWQ0Nj0eyFJ3Yf72PVXTdcHY0tX16Xhsrb4gbEJIOMxduWHj5e+Y1wXTp3GdFtGCUQYUaRmFp0fX0D+ejQDRGACNRhBOoRaUpb0cTEZMWC5VP7T2pv2Jr9lYrGVU6dmAYKhuqn7p1duW4ll8uVxpXZCQkJnJISDRLbo5+LSCi2toAvVpNhUy2OejazUc+qWy2P1A8yrXekKcWiZ8+eW9ds2bt8lyPBlh5GQjiVPYZEhNNA+DT55dyl8zIzM3Nycj5+/Hj69OmZ82Ys27zsK/dz45meGhbqIq7QxsJGmiy0qwmBOjqz8T0061l1vwdDdcnrKWlK4XZxcTlz6PScPjM0g1hoktJEJxdDs7FSjPcxwnfomKFT5009de/4x6J3tOYk+3GWZs1NSFRSaT4XRQk6OjrSBKENEYAI1HkE6jVpSlt3QN8Be7fsaUL1YHwkoREiQpiI+hWhvkNUwigGfA17U/OmAz0az27gMt3OsIeeQSNdVWMVaURgcwt4iBDR1dUFbmggAhCB+oBAvSNNDMPAjOSbN2/OnDnj4+Mzb+G8EWOGr968iqiDWtgZudhaN2nl3nJIo84LW3dc1LrJaE+HTjZ6jjp0dXqlT0PK5zRhqRD2NCsFBwprPAKwgL+DQFWSZmXzhr9S5pSUlLS0tLCwsA8fPjx48OBW2b+bcv+u37x2/tr5//77D8iuXbt26dIlwIxHjx7du3evt7f38lXLxkwY029I32XeS089OfGh4G0MK4LSCrUaZ+o83U63o6bdAGvrjpb6bpK+JJlB/pmiMcVMVZYqk8n8GWWoAxGACNQBBKqSNH9z+jopKenkyZOTZkyavXjWkg2Ld57ccerhiQch917FPX+T9PJV0vOHcfdux9wE5m7Uf09iH96MuAbc9xPvPM14+LbolT/mG8kOTTNO5LtxtLupuc9xsh9tZdbdyKCxrqGHPkuXSaKRfq8hk5+mOxo5wduIfw89GAsiUEsRINTwcgcGBk6ZOeVz4Sed3upusxytR5uZDNA36qan3Updo7mqWmO2ZhM1oxb6Fq1MLVqaWrQxsywzwGvewsS0qbFxQwMDdz1dR21NKw0wF6lqpEIg/lqVtek6+kwDdaoGlUiVYZWXUJB0Jd2WZj9rxmyZEDogAhABHAJ10vtrDFL1EBw7e8yqn6leU22aagVnVV6M3+zIlidGIVD0GPp26g5N9Jp3Ne0x2HpED7PejXSbguC0ktQ8Xi5PxOPklka+in2y45Xfga89WvacPWs2mfxTo3iQCDT1HIE/nZyq5/DVpOrXaNLk8/nxCfHadlp/CzEmiWnEMnbWdG1h0LqjSdde5n0HWQ8bYz9xluv84XZj3LQ92GSVzNKMjxnvL0aduRF+9bH/w6CPQeEPoj+e/vJo04vnh94GBUQW6HFZ9mp/q0gwnXqCwJ/9ptcTkGpHNWs0aWZmZlJVKL8KpApF1YRtBvqM7toeoNvY3rjzAKuhExynLmiwbLbbwlF249sYtjdlm4OuZTY3Ozgn8EHCna1vN+545H3q3okrN648vvjk40m/wP1hIYcj+e8wW64TO0stMyGn0JZf6oFhtkRME00lpX/yhS+6+NWWgfoQgb+NQHWkV9NJk6z6o1UawI9gwtFO3R70HPtaDBjnMHmZ55oZLnNH2I7pZtYTMCagTg2qRj4vzzfx0+nXJ7Y93jzz9NQFR+euObBy596dx3ecuLjlyn/r7sWcTeB+EOpk67fUaTOixeiF4xYf2Hbw8ukrOzbvmD51+v5d+wZ1GUiNJSCy/e9U9GvA1wkTJ1RHk8E8IQIQgepEoMaTpprCpCGLzDJlm5kzLR1pzh7URjaonT7fiJhDiQ+Pf/Lm6f7T+xYfWjDFZ9LI1cMnLB0/b/Xc+YvnL567ZP3MDdf2Xf9w9VPm61yDHBNPRuM+9gPGtZ+weOzSnWt2XTl99dzR87s371k+b8WIISNat25tb2+voaEh3yxzJs8e2LK/5O1DUmkxlpOb06ljJ6kP2hABiED9QaBGk2ZyWjJNg4phWE50btyrhIRrqZE3Y08tO3dyydmre27cPX3//d1P/s8Cov1i82OLGEVMTYF2K5O2/VwHjG87cUK3SbOHzN04b9ORbUevn7txfPeJo3uObV27dfGcxeNHj+/Ro0fz5s0dHBz09PTI5B91ZmWPwtypczo6tiPHoGg+xk6hkiikXr16yUKhAyIAEaiLCFRSp5pOmpxszps9n/zvhUTGJfhnBr/nfM2252RrF1I06baWtlPGTFk6Z+n8qfNnjp85btj4WTNmdenSpX379i3L/rm4uJiZmYE+I4n0Y1r82Tn6MUNGa+SoqMczTNwMXVycyXDpvJInCoogAnUcgRpNmiHBwYnvkzN1C/LtuEX6PKEliqmiCB3BzAn+tNDjfmeGTRw+dfa06Ojof91KHz58WLNpzZJ1i83aGLWc2ZhfImjUoPG/zhSmDxGACNRABGo0aeZm5FFJdEytsp4gSfJ2ipwGJR/yP09YOnnczPFnz54tLCz8ixAnJyc/ffp087ZN/Yb223dzT7ZumsNEa+NmBiQaKSM4E0x9/sW8YFIQAYhAbUHg75LmX6414KxmjZtSs74/uCYjmA0h343jTwnZf+tQ/5EDFq9b4ufn93vl4PF4nz59evLkyZYdW0ZOHLFw/YLTL06kaCY6TbSx62+l56KLEiT0nRubB5bRDQ0Nfy8XGAsiABGo1QjUaNIEyA7qP0g3WQPNwYD7BwbTQEvdRVkeRY8yns/ZMr/v8H77Du+7d+/e96JwOJz4+PiPHz9eu3Zt78E9C1bOHzZx6MDRA72PbD379lSSapzJQAPH8TY2vSz1nHUoLIp8OvlRhRTx/zueJB8BuiECEIE6hMAfkub/4bI/B8rW1nblkhUuhXaqKT9xkxARwQwIxe78OOPUYx/PbDuxve+wfstWLDt8+PC5S+d27N++bP3SKfMnA34EZpnPkoN39j+IvRMk+Iq5CCwGmTSc5+Y2ydG6m4W+iy5djVZp4fMTC0oj+RcvXqw0FAohAhCBOo/AH5KmZLj6rzHy8PDYumFLX4eeWp9YaIAQjRVTwhFmDIkZSWKEERlBRPpXAsufqOJPZvuSWB+IrHdErSSmZimbwiYJ2NxITtiLhKcv0p5EUyJKLYtUWzGNe+p7znZ1GGVj1cvMrI2JSRMjdTO1/3+2HUEKYopSb2XNmDwDrMgj8B9EACJQLxH4Q9L855h9/vx57/49K9YtL6UVa+lp2BqYO5tZObvZNmjp5NXRpXHPBs0GebYa1bjVxCZNRnm2m9ei49LWnVe3bT27Weu5TVtMbdR4vKfbEGfHPnZmzU0M3PQ0rTXY+iy2HutXy83JKU1+mM55z58/e36TJk1+NTrUhwhABOoMAoSaXBPvHZPbfzsAABAASURBVFt3nNoeSgrS7aMhdOU6jbd1GmZn09nSvKWJrqO2lo2mhrmaqpEKS5dFV6cDKiTRSATS36yRiC/KCy1I+y877XpWR4fOPlt83N3dazJisGwQAYjAv0bgb1LM3y3r1u1bgosC7UdaGTbQp6r8eOHl702tIkhpHjczNCvheXLU+bjQg9HGeeaDOw45tPdwnz59qNQfFwP5m+X4u2jC1CACEIG/hEDNJc2Hjx6ZtTT+S9VUSIZOolOIVIkhUIhiYlF6cU5oXvTTuLDLUf57g5OvpetmGnWz6Tl/7MLTR0/PmjWrefPmP3n4pyqmeBWqAj0QAYhAVSNQQ0kzOzubpcWksBT2+vw8NmQChUak0Yh0BompSlVTpaipUFSpIipSQCiMK456HxN4N/jtqY+PfJ7fWfno08Ev/ABxT7s+84cuPLLj6MmDp5bOX9qrVy8nJycK5TcLgMB/EAGIQB1FoIaSZmZmJpn9/T3tSo1BIpBJBBKdxGCSmCwyuyArPyk0JfR5+Ouz7+/ufXR98+1LK25cX3/37sHHL2998P0UFJISm0jIzDYvKWkpznfkfkr5cuPxLQzD1NXVldL+uwKYGkSgdiIA556+tVvNJU2K+o96eYJSYUk2JzsyNzMsO+VLWtLb5JRn6V+OBgacCH215X3OvSLtZH2dbH1eLD8/szBfm1PiISptgpW6i3kOmMiagBkTMC0UYaAAB0wVFbggwaTw+ZsXrt68JiUlBQihgQjUEQT+FtlJ/lbqCCR/WI2aS5pMHYa0bkKeKC+hIPFjypczAZ/2f/myJ+jrjpDYE4nFj7jEAIpJtoUnqXErvXZdnXq0cm29as7qi6cuHtx1cNmiZZs2brp7/e6ScYuMsvTIgRhS/KPHB9Mh5LqW/Bd3f+SU0ecunpdmDe1KEPgRipWoQ1E1IwDJ7m83QA0lzYjYCKoKJeFd0rtDvu+vf3571e+zX3CcMD2JlJUjzMdIaO+efTau3bRti8+8OfPGjh07YMCAzp07T5gwwczMDLdo07N7z+unrw5tPcgoTpsaTkBTZNevV4IlZkrIdS8+8uT49DkzgoKCKtGo8aJ/XkD4R/jPIa4pGcDfx0pbooaSZmR0ZPTj2JCA6DTNvAzNAq6zWDKmNiRgZoQCR26sfvLm69v6jR2wdtu6kJCQSismLySRSLOnz7517ubSgQutOWZqUUw07/vPAxUtsOD4EQLXbQGToHfl04FuiEC9QgD+Plba3DWUNNOT0wX5Yo6p0MbaRpulhSs6poIK7JBMh4Kb0XenrJ0+aPzgC1cuREZG4tRwXgKBAHqdl05cXDZskXORrWoEA839LnXyNAXRFklX7l+Fx8xxMEIvRKCeI1ATSbOkpGTWzFljho3WT9eKyIgyVDMY5NGPTVM6+0hBMBNCkSsvSjPB+87OORvmzV0+9/Xr10Kh8MeN2r59+1MHT64as8ypxIYVQkETxZXqYzQkQC/i8fsnt27dqlShngphtSEC9RuBmkiaTCaze9fuw4YNa27aRC9Z42ty4KXP1zrYtR3QoK+bkYtye4Hlb8yWmGqb86Lo3bKjq3oP6bNn/55Hjx4pa8pL2rRuc/rAqVFthtsKLRgRJKSksl4nAfmiFnr55pWbN28+efJEPjp0QwQgAvUTgZpImtKWQFF00fyFfdx7GoVroznY9a//3Q6652LotKXPumaWlV+ZgekSimy5KQ45Z0Mu7T9/cNmqZf/3QuLx48dfOHp+bu9ZBuGatAQSotzppCIZOjnnL5x7+PCBtGDQhghABOozAjWXNEGrEInEiRMmLpu6xFPgoh2lwksrPf3x/Irb60w0jDb3XtvRvh3QqcRQEb6hOMEm/X7+0zX71o2dMs7X17cSNTlRvz79zhw5Pdx9kFYAW3l5PUe1IK8kPysvWy7GTzixn9CBKpUgAEUQgRqNQI0mTSlyjRs3Prz70Kj2IzzFLuxAiiCZe8H3yuKbK7OKs0c2GtrJob1UTdkGHc9k66wAbvDS3SsmzZ188vRJZR2ZRENDY9rkaXvX727M9KS+QUDfVhYkcVCwwuICiePnP3Dp8eexgpq1HoF61EeoBaQpfZzAFOfhnYd2LPBpzmykHaSCJov9EwNAx/Nh6BMHfTtTDRMdtrZUE2eLrYnZ9oW+4q/7rx/qNrTHoVOH09PTcToyr62t7f6te7cu3WyUrotGihCRJAQtxIg0olAs5PF4Ej/8QAQgAngE6lEfodaQprSNPDw8dm/atXvVzsFWfc0j9JmJFKQIC00LT8hNzCzKkupUamM6BEFDNNU0+9CLY6Omj16xbuWdO3cq1QTCls1b/nfuZn/X3tQAFKTPzqSZNTdmaDJSU1NBqJKpR7+xSnWvlQJYaIjAnyBQy0hTWlU7O7uFcxcumbF4auuJVmnGrEAKmiRG+NLAH9psFLMmZjYovBf7aOfVPf1G9D959mRaWlqlcZbOWTJ7+Ax2KFmDqWLc0JCmSf2OZj36ja0UKCiECNQrBGolaUpbyMvLa+jgoVdOXt63dHdvy27aX9mUABTNFEtDf2yLrQk5NkWxxim7nx0YMX3kkjVLP336pBzFzNCMxWTad7UBQQW5BW/fvgUOaCACEIH6jEAtJk1Zs7m4uKycv+LO5dsjWgxpTPFU86WjESI0/ydGzSwUsyLmeJQ8zHm2dMfycVPHPXv2TJbsly9f1nuvs+9tzdSWXB2i66Str68vC4UOiMB3EYABdRqBukCa0gaiUCjTp0/fv3XvpUMXlvVe6FpspxnCQlN/quOJ6RFynIv9maHrz2waOGbQzTu3nj5/usZntU0/Sw2L8hs2xYWYqqqqNC9oQwQgAvUWgbpDmrIm1NHR6den34n9J3wWenfWaacboooG/1THE1NH86xLorUTNx7avOPENrtBVpqW5YwJEs+PLrS2tgYOaCACEIH6jEAlpPkTw9ragZirq+vGlRvWz1nX0byNY5G1+mcGGvV/2BMtxchJqLGdnud4dxUDtqyeuTF5xprGYAFKJoEOiED1IQBzrk4EKiHNOrYY7OnpuXnD5jMHTp/edXJJt/luxQ6SYz8xIqQI/+sAFpFoAQSnRjYNBrmQGWT5Zsl6nde3Zz95CXRDBCAC9ROBSkizrgJhZGQ0oP+A4/uPHdlyaForyV4l1SA6GitGeBL2JESLVTPoTUd6WjQ3xSEQeCs0OTK1pKQEJ4deiABEoMYiIPmr/jeFq0ekKQPQzMxs3MhxV05enjd09iDnvtpf2dQXmImabpsZzdTN1GRqUkfM6/jY0KQ8D86py6fl19alodCGCNRJBOpApf7diLk+kqbsgejRo4eLjbMKk+3Z39VzqBuRQpQFAQcBJca+SQh9EyV0QBE2GqoTc/j4kczMTBD0B+bf/f79QaFg1LqJAHzY/km71l/SzM7O3rZ92/WX12xGWOg30MWhSyFQgu6FBr+L4DlgCL3sR4uFJiQnbN++Haf5i96ypH4xDlSHCPwWAvBh+y3Y/l+kekqaL1++nL1gdiIlzqy/oXTvugwoOolO5lLeH/eN9kvgO6HljFkWLGKJo+Oiy5zQgghABP4Agdoctd6RZl5e3vZd20/eOm7QS1u3Mf7tQ7oMvdIk3oejfl09undt2lkthIFmiWXtS2GQ8wvyZV7ogAhUGQJwpF1lUP/fjOoXab548WLKnMnh4hCroWaqRiry6FCJNGdNt4i30eG3o1bOXjV+zPjVi1ZtX+xtU2QhuSOuTJXEJ6oasQMCAsp80IIIVB0CcKRddVj/v5zqC2kmJCSs27ru8K1DJr0NTFsY4WAxZZubkEwv7L/IymXv9d7n5uYmVXB3dz936Ewvx260QCIriWLorKflquH3xU8aCm2IAESgpiLwD8tVL0jz0OFDJ+4cS6bFOw6zwXUwVSiqLQ3axAXHn910oW+z/qsWrcYdMCcSiasWrOzp1ZVVSLVoZapppfHe790/bBCYdJ1AAI6m60QzVl6JOk6afn5+0+dPex39kmtaYtJUoYNJRInN9Fu6argfO3Ys5V2696ptA3oPqBQkP3+/Vx9eOvSypanRwKoRF+HGxsZWqgmFEAEpAnA0LcWhTtp1ljTfv3+/adumHad8SO6o/UBrth5Lvv0aaHsOtx0TFhW2c81uL/3GB30O2trayivI3M9fPl+zdbVdX2vZdUdUDUpSUpJMATogAhCBeoWAlDTrVJWzsrIOHTm06+iuBHqMwygbbVtN+eq5arlPdZ6lRlVfe3D12/Pvl0xcOm38NHkFefeZs2cOXzxoP8hay1pDJicTyDQaTeaFjipF4JfGvb+kXKXVgJnVYgTqFGmmpaWdPnd6wowJn4t8HcZZGTcylG8ZF0236c5zGmh7HXlxaPe6vY4Ml8M7j3h5ecnryNwgqVVrV76Kfm4z2FJ+GhQwZn58gYWFhUwTOqoUgV8a9/6ScpVWA2ZWixGoJaT5E12G6zevzVw04+ab6y6T7ExbGsqfibRRswO9y86m3T9mvF+9b2Xo9YiZw2fNmjqLwZBcya7cem/evJm7aE62VoZZd2MKkyxTUKGopHxMa+rZTFtbWyaEDogARKBeIVBFpPmnmP6wy/Dq1asJM8bf+nzDdoSlxzhXKpsqy45JYva1HDjAakgeL2/bk81nNp9roOa1f8f+Jk2ayHTkHRiGHTl25PClg0Z99A0a6skHqVM1inNKUl9l9urZS14O3RABiEC9QqCWkOZ32iQiImL5+uUHru1Ta82y6WVJV1eYagTj8cnOM83Y5tdCLy1Ztjjzac6AzgMnT5z8vQ5mWFjYzPkzP6a/sxlhoWassPVdhaKKicVxt5MmjJlgaoq/O+47pYNiiABEoA4iUFtJk8PhHDt9dNG6hXk6WU4j7NRMVeUbh0Figt5lD/M+4XmhK44vPbf+Up/m/bas29qzZ095NXn39evX1mxZjTqLzDuZoASFnq0WXZuIEoMuhrXxatuxY0f5WNANEYAI1CYEfmKi7/9Wp1aS5qdPn6Ytmvoi7pnHDBeDBmWDaLmKOmm6TnGeQSfRN9/asHXFNkoSY5/PvsGDBlMoFDmtCmdcXNyyVcvuB9yzGWmu64SfrLRXdxAJRH6n/Zs5tBgyZEhFNOiCCEAEah0CCt2h3yx97SPNQ8cPbT28RaO5il03awJRofxgED3Yenhbw/aXPl6cPm1Grl/BkqlLNq7bqK+v/z14bty8MW/Z3DyDLLMeRlSVislQqX4TveYR8ZEfj/p1adhtxIgRUiG0IQIQgfqMgALp1HAgCgsLV61b+SHprftkJw2590RKi+2h7TXRcVpSTtKCbfNenH21cOLCreu2Ojs7S0OV7ZiYmAUrFlz/eNVhjI2hB55VAf820295/9Vd32P+I3qPGjCg8sNCyslCCUQAIlC3EahNpLln3+4cdrZVN3Nck4Al8kHWw0zZ5mtOr9y5dHc7244n9p9o1qw5Tk3ee/Xq1UWrF3KMC+z6WeGWj4Canbr4BFyuAAAOG0lEQVSDuYrluStns17lrV++vn379ggCxNBABCAC/wqBvzHZ+K/Khku31pDm/fv3U7jJ+s3xc45GLJPelgPufrizceUmrSLdEwdODOj3o15hQEDArAWzrry45DDW2qCBcgdTpZNJ17zSvMvHL2sV6G7fuMPBwQEHGfRCBGo2AljNLl7lpfsbk42Vp/zXpbWDNDt36Xzx2kWWGx1XfzetBtqIzqYdG2Ifxc+fsGDuzLnq6uo4HZmXx+MdOX5k58ntiIvQZbSD/HZOqY6nTsPGes1ufb75/NDLFuatNq3arKFRcXpSqgNtiECNR6AW8U+Nx7KyAtYO0nRwdoiJjVZV3Dtpq2b37vX7kxtOd3Tqsstnt6ura2UVLJcFBwdPnDrhU+Z7i0EmOvb4C9vZZHZfy0FF/MLTd04Gnwob12fChDETy2NW1RfMByIAEagVCNQO0uzWqRuGIiKeSIopmUAmFJDuHXtIiqfu2rq7X99+Uvn3bDCDuX7HOrXWbLP2xgQSvsquWu7tjDs+SLjz4OpDcTBh6zrvtm3bfi8pKIcIQATqOQJ4BqmZcICJRQqdUprPlRYv7lPCg22PkwJS8gvzL127fPPmzdevXwcGBiYmJhYUFEh1pHZycvLy1cvuBdyxGWau3MHUomsPsh6OYdh53zN+p/0dmS47Nu+0traWxoU2RAAiABFQRqB6SfNnZ6z19fVpFBonhwMqEPEwOuB5WGEDQXajktfop9PhFzbd37bq9Lolu5dNXzlzxOSRnXt3GTh+8OBxQ/sO6jti/Igc3UzLXqa4PZhkAqW9caf2Rp3uxd969OLR5wOB5gxLMyNzwL9v3rzx9/ePjIz8+vUryK7uGFgTiABE4G8gUL2k+Qsz1hbGFiXZnIhH0dHhCaWuYoSJImQEU0MxAwLfVJxnXpxqkZNkk5nknJXhVRDFio8rihNo8xvP9DDyMsABpc80GGU3LoebczHq7Ifrfn43AjI18u/lPFl3d4vPvd2rTq1bcWD1Yu+lG/ds6j2w99Q507x3bbtz5w5g0ry8PFxS0AsRgAjUNwSqlzR/Ae0GLg3SQ7LiApNL7SveqVtpfDRRTI8iurS0bzzag6XDlNdBUUJz/VadTbpfjbl458Ht1/s/RCUkcBshmBURMyZgFgS+jTjXvCjFLCvOPDXKMinBOfMD9cuF6Ksrb65btHsp6MaOnz7h6LGjnz9/BoN6+ZShGyIAEagnCNQa0vTy8sqLzS/R5/2gYdBcjPoVNWXptZnZzKyxMU5Ti6YNOphEAvFU+FH/ZwGBD8MyqQVCGxRBcYpyXiKCqaCYPuBTYpZ1QYprzmeV4P2+R1fsW9V3WL8DRw/ExMSUa2Pl3/X4C1YdIlAvEKg1pGlrayvkCBHxdxiOj5AjEWY4qWFXF88hrgxNhR2dBJTYwqB1R5Mu9xNu3/3838ezXwJfh5c4CEHv8pcbmYViJoQ0q9x4q7QjH05NXTx938F9JSUlP2LeX84DRoAIQARqLgK1hjSpVKqOjo5+oiYjlYKUbz0qhxVNEdM+o7a25p1WtdF10imXfvsyZZv3txyUwUk/H3n6w+NPr498TCzMEDRAEcZ3+PdbxP/zTUPBcD7TveB64H/rNq7jcCSLVP8nCgyGCEAEaj8CtYY0AdS3b9/evW3XMOdBZmF66kEMNFKEhovIfmIdgVrLCY3sOlihqAIPqlBU2hl1VKOqXY4+/+rd66c7Xwd8Ci9xEmGWf7PWuUZFvvn+5y+cByWE5p8iABOHCNQEBP4mfVRBfSwtLadOmnLj/PV9K/cMcxmomadiZm7YYmIjFQM2LndHDRcTtvnT5EevAl693v4h6FwYW6xqzjC1Sjc2DdUzC9e3jTc1CdE1CtYyiNfSi9c0LzZWzWOiORhaiCFcDPmVOcpcduHVW1dxBYBeiABEoE4iUMtIU9YGH30/+kZ9dB/r5DrESSaUOtSo6taqNhH5YR/D38ffTk6/ld2nVV/v9Vt3rPfxXr5l59od6xevPexzcNOSjSf2HPNeuXXd5NU93Lr0d+o1xKr/QJ1eNkmmTqnWhl80jIN1jKIlEwKqyQwwAwBWmSRkKs0DZ6ugmCoaFhaGE0MvRAAiUPcQqH2kKRQKN3tvehH2zGGkraqxwpt8EARlU1S4wtKv0V/9TwbEX0rp3qDnyaMnJ02aBBbfLSwsTE1NDQ0NnZyctLW1zc3NNTQ07OzsGjRoMHXq1KFDhwK1xYsWXzx38czR03eu3Tm178SOpdtWjl42r8usaQ0mdGW1d023MwvUs00wM07VoyYR0Swx8m0xP4uW9+nzJwT+q9UI1OvC/8rYql4DhdQ+0jxy7EicINa6nzmRrFx4LCcvJ+JZdNip6L4t+h/df7RXr14EgrLaT7W5urq6lZVV48aNe/ToMW7cuPWr1508fOLCyfMbF61fMGjOnNbTW9Gb6gSqsEIpaKoY0URfvHv5U+lCJYhATURAYT2gJhawxpTpNwmlusofERHx9utrk474Qz7S8iT7pUaciXFje5w7fm7ggEHfe+ukVPn3bBqNBnqsLVq0GDRo0I6N2x/eeLBzjk9zdiNGDDk5LQX8+71kYSyIAESgtiBQy0hz06ZNJCOiMrg5MXkRF2O1svS2rvSeOnHqv6BL5UylEg8Pj92bdq2fua60gHP//n2pENoQgcoQgLK6gMCvk2a1Tn04OzuLxQrHKLmFvPjHSTlPC6b0m7puxToTE5NqaZbWLVqNHznu3v171ZI7zBQiABGoMgR+nTSrdeqjadOm6UGZMnSAO+BoiA5Hf970eYAu8/PzRSLFje8y1X/vGDVq1KSJk4qKiv59VjAHiABEoNoQ+HXSrLaiSjIGK91CjrAwpYhEIEU9jf18MzCZkvk05eXCXUtmrJg1Yd7E7v179BjUc/ikEaOnjBk/bYLUjJ06btiE4f1G9e87ql/v4X17D+/TY3DPPiP7de3fvc+Ivl37dwOOnoN7DRs/fPLsKbMXz5k6e9qOPTvOnj17/fp1b2/voKCg3NxcSfY//KAo2qlTJzYbv2P0h5FgIETgbyIA06oCBGoZaVKpVDqVmR0lWSIP/xpb6oVhNkSelTjDMi/OKjXaMjndKz/ZMTuEHRWgGf5ZPVhiaEH+GqGhujGxhilxJqkJlmkJJhnJ9tnxFmlprrnx1ulpbnnAkWSfFaof85H+9ZXowweO35nIS9vf7t334tAj/ycr96wePX1s36H9pi+YceDQgcePH1fc01EFTQSzgAhABGoSArWMNAF0FqbmCX4pUW/ieHZY5TumSAiiQZAcLWegElvzm5uFInQUoaIIC0HICEJBECKCkBBJIsABJCCUjWLqKGZGlNxsZEzI1SvKdiqKN0tLcsqMs0l7h/odCTy19fr2GatndRvQfeXGVc+fPy8sLASlggYiUM8RqNbFjirFnlCluf2NzDzcPDg5HB5bICG+v5Hgz6ZBKbvz2JCQbVyQZp+b6pR7J/3hpgveg0YN3rRtc2Bg4M+mA/UgArUXge+XHP1+UB0LqX2k6eXhRRaTsXysr1vPyS3Gbeq1Zmnn+V0cO3qaNlCl4w4I/cvGIiOYHiHLLD+9Qf6VuJvLvVds2+HzM1Of/7JMMG2IAETgnyNQ+0jT0dFxzYo1zWwaB93+eurKmSXnVu59cSijSLKk7mroPKLRkBVdFx8csuvo8H37Bu9Y1W3p1JYTALeOazqqnW1rPRXdv48oEcEMCWBK9GbUnRVrVmRnZ//9LGCKEAGIQI1BoPaRJoCudevWPlt95o2eM7HB6IbFLqrvacWv8kQBPFEkP/hx4LW71xYdWT5h79Rpe2atubxh//3DBx8cPXb35NPPz9NT05F8DCmSXGWEZmFoHoZmYpKbjeLESOmfzsmUGPFCsaiTp06CEkIDEYAI/BYCFZH+9A+yIqW/7KqVpAkwIBKJjRo1Gj169KHdhy6cPL9+wdrxvcd0dutgwTJtpd2sp1an3qwuLQmNGxe7eRW6ANOg2AHQa8NiVy+Oc2Oue1OBRxOCRytS45a0xu2YLVyI9paJRjZxJqahusaROjrRasxoChojQpPFaDaGFGO4a49BASo1+XrFvpGfCwoKKg2FQogARODnEaixk6S1lTTloWcymdbW1k2bNu3evfvy5csnTpw4d+7clStX7vLZeWDXgcN7DgFz7MAxQK+Hdh88vPfwgR379/rs3eezd8emHTs37/Beu/XkwRNXT105ufvE8d3Hdq3asXXWpo2j167quXSE4+C2rBZOudYGARp6AWp6UerqCSxKCgF0Tr93TVyuMC80NFS+eNANEYAI1CUE6gJp/q32oNPpGhoa5ubmrq6uLVu27NWr15xps7et3Xrm4Om7V++cP3jOZ4H3soGLpjee1Jnd1irBWOszix5ERKNFaJYYEZeXIoeS/yXgS7kHfkEEIAI1DIE/Lw4kzZ/FUF1d3cHBoV27diNGjNi4esOVU5evn7x2bOXhKW3Hu4jt6e8JaIQIDOQxDfTDl48/myjU+20EauyM12/XCEasJQjISBM+g7/cYmw2297efsLwCSd3nbh//m7fhr1oXwlgZSm3KDctLe2Xk4MRfgmBGjvj9Uu1gMq1EAEZacJn8I9aT1VVdfm0pffO3XFTccorzofTmn+EJowMEajBCMhIs/IyQukvIQCG8Md9jppoGV+9ee2XIkJliABEoLYgAEnz77fUopkLw0PgS9b+PrAwRYhATUAAkubfbwV3d/fHjx7//XRhihABiEANQKC6SbMGQPAvikAikf5FsjBNiABEoNoRgKRZ7U0ACwARgAjUJgQgadam1oJlhQhABKodgf8BAAD//46D/aQAAAAGSURBVAMAdfrr3Rc4SYgAAAAASUVORK5CYII=;rotation=-150;" vertex="1" parent="1">
          <mxGeometry x="940" y="-430" width="444" height="600" as="geometry" />
        </mxCell>
        <mxCell id="schMxlsDzBp6fQwOlisN-5" value="" style="endArrow=none;html=1;rounded=0;" edge="1" parent="1">
          <mxGeometry width="50" height="50" relative="1" as="geometry">
            <mxPoint x="440" y="441" as="sourcePoint" />
            <mxPoint x="920" y="441" as="targetPoint" />
          </mxGeometry>
        </mxCell>
        <mxCell id="schMxlsDzBp6fQwOlisN-6" value="Promoter" style="rounded=0;whiteSpace=wrap;html=1;fontSize=20;" vertex="1" parent="1">
          <mxGeometry x="560" y="410" width="120" height="60" as="geometry" />
        </mxCell>
        <mxCell id="schMxlsDzBp6fQwOlisN-8" value="&lt;font style=&quot;font-size: 20px;&quot;&gt;Gene&lt;/font&gt;" style="rounded=0;whiteSpace=wrap;html=1;" vertex="1" parent="1">
          <mxGeometry x="760" y="410" width="120" height="60" as="geometry" />
        </mxCell>
        <mxCell id="schMxlsDzBp6fQwOlisN-10" value="" style="endArrow=classic;html=1;rounded=0;strokeWidth=1;" edge="1" parent="1">
          <mxGeometry width="50" height="50" relative="1" as="geometry">
            <mxPoint x="720" y="470" as="sourcePoint" />
            <mxPoint x="880" y="510" as="targetPoint" />
            <Array as="points">
              <mxPoint x="720" y="510" />
            </Array>
          </mxGeometry>
        </mxCell>
        <mxCell id="schMxlsDzBp6fQwOlisN-11" value="" style="ellipse;whiteSpace=wrap;html=1;" vertex="1" parent="1">
          <mxGeometry x="575" y="330" width="95" height="70" as="geometry" />
        </mxCell>
        <mxCell id="schMxlsDzBp6fQwOlisN-12" value="" style="ellipse;whiteSpace=wrap;html=1;" vertex="1" parent="1">
          <mxGeometry x="580" y="360" width="40" height="40" as="geometry" />
        </mxCell>
        <mxCell id="schMxlsDzBp6fQwOlisN-13" value="" style="ellipse;whiteSpace=wrap;html=1;" vertex="1" parent="1">
          <mxGeometry x="640" y="320" width="30" height="50" as="geometry" />
        </mxCell>
        <mxCell id="schMxlsDzBp6fQwOlisN-23" value="Initiates transcription" style="text;html=1;align=center;verticalAlign=middle;whiteSpace=wrap;rounded=0;fontSize=16;" vertex="1" parent="1">
          <mxGeometry x="670" y="520" width="250" height="30" as="geometry" />
        </mxCell>
        <mxCell id="schMxlsDzBp6fQwOlisN-24" value="" style="endArrow=none;html=1;rounded=0;" edge="1" parent="1">
          <mxGeometry width="50" height="50" relative="1" as="geometry">
            <mxPoint x="480" y="970" as="sourcePoint" />
            <mxPoint x="920" y="971" as="targetPoint" />
          </mxGeometry>
        </mxCell>
        <mxCell id="schMxlsDzBp6fQwOlisN-25" value="Promoter" style="rounded=0;whiteSpace=wrap;html=1;fontSize=20;" vertex="1" parent="1">
          <mxGeometry x="560" y="940" width="120" height="60" as="geometry" />
        </mxCell>
        <mxCell id="schMxlsDzBp6fQwOlisN-27" value="Gene" style="rounded=0;whiteSpace=wrap;html=1;fontSize=20;" vertex="1" parent="1">
          <mxGeometry x="760" y="940" width="120" height="60" as="geometry" />
        </mxCell>
        <mxCell id="schMxlsDzBp6fQwOlisN-30" value="" style="ellipse;whiteSpace=wrap;html=1;" vertex="1" parent="1">
          <mxGeometry x="575" y="860" width="95" height="70" as="geometry" />
        </mxCell>
        <mxCell id="schMxlsDzBp6fQwOlisN-31" value="" style="ellipse;whiteSpace=wrap;html=1;" vertex="1" parent="1">
          <mxGeometry x="580" y="890" width="40" height="40" as="geometry" />
        </mxCell>
        <mxCell id="schMxlsDzBp6fQwOlisN-32" value="" style="ellipse;whiteSpace=wrap;html=1;" vertex="1" parent="1">
          <mxGeometry x="640" y="850" width="30" height="50" as="geometry" />
        </mxCell>
        <mxCell id="schMxlsDzBp6fQwOlisN-36" value="" style="endArrow=none;html=1;rounded=0;" edge="1" parent="1">
          <mxGeometry width="50" height="50" relative="1" as="geometry">
            <mxPoint x="480" y="681" as="sourcePoint" />
            <mxPoint x="920" y="681" as="targetPoint" />
          </mxGeometry>
        </mxCell>
        <mxCell id="schMxlsDzBp6fQwOlisN-37" value="" style="endArrow=none;html=1;rounded=1;curved=0;" edge="1" parent="1">
          <mxGeometry width="50" height="50" relative="1" as="geometry">
            <mxPoint x="480" y="970" as="sourcePoint" />
            <mxPoint x="480" y="681" as="targetPoint" />
            <Array as="points">
              <mxPoint x="380" y="921" />
              <mxPoint x="350" y="831" />
              <mxPoint x="400" y="721" />
            </Array>
          </mxGeometry>
        </mxCell>
        <mxCell id="schMxlsDzBp6fQwOlisN-38" value="Enhancer" style="rounded=0;whiteSpace=wrap;html=1;fontSize=20;" vertex="1" parent="1">
          <mxGeometry x="560" y="650" width="120" height="60" as="geometry" />
        </mxCell>
        <mxCell id="schMxlsDzBp6fQwOlisN-40" value="" style="ellipse;whiteSpace=wrap;html=1;" vertex="1" parent="1">
          <mxGeometry x="575" y="730" width="95" height="70" as="geometry" />
        </mxCell>
        <mxCell id="schMxlsDzBp6fQwOlisN-41" value="" style="ellipse;whiteSpace=wrap;html=1;" vertex="1" parent="1">
          <mxGeometry x="580" y="760" width="40" height="40" as="geometry" />
        </mxCell>
        <mxCell id="schMxlsDzBp6fQwOlisN-42" value="" style="ellipse;whiteSpace=wrap;html=1;" vertex="1" parent="1">
          <mxGeometry x="620" y="815" width="50" height="40" as="geometry" />
        </mxCell>
        <mxCell id="schMxlsDzBp6fQwOlisN-46" value="" style="ellipse;whiteSpace=wrap;html=1;" vertex="1" parent="1">
          <mxGeometry x="580" y="790" width="60" height="70" as="geometry" />
        </mxCell>
        <mxCell id="schMxlsDzBp6fQwOlisN-47" value="" style="ellipse;whiteSpace=wrap;html=1;" vertex="1" parent="1">
          <mxGeometry x="650" y="730" width="30" height="50" as="geometry" />
        </mxCell>
        <mxCell id="schMxlsDzBp6fQwOlisN-49" value="" style="endArrow=classic;html=1;rounded=0;strokeWidth=1;" edge="1" parent="1">
          <mxGeometry width="50" height="50" relative="1" as="geometry">
            <mxPoint x="720" y="1000" as="sourcePoint" />
            <mxPoint x="880" y="1040" as="targetPoint" />
            <Array as="points">
              <mxPoint x="720" y="1040" />
            </Array>
          </mxGeometry>
        </mxCell>
        <mxCell id="schMxlsDzBp6fQwOlisN-51" value="Enhances transcription" style="text;html=1;align=center;verticalAlign=middle;whiteSpace=wrap;rounded=0;fontSize=16;" vertex="1" parent="1">
          <mxGeometry x="660" y="800" width="250" height="30" as="geometry" />
        </mxCell>
      </root>
    </mxGraphModel>
  </diagram>
</mxfile>
